<?xml version="1.0" encoding="UTF-8"?>
<svg width="200px" height="133px" viewBox="0 0 200 133" version="1.1" xmlns="http://www.w3.org/2000/svg" xmlns:xlink="http://www.w3.org/1999/xlink">
    <title>Untitled</title>
    <g id="Page-1" stroke="none" stroke-width="1" fill="none" fill-rule="evenodd">
        <g id="bg-header-mobile" fill="#63BABA">
            <path d="M87.4693213,112.475837 C78.160362,103.168145 78.159276,88.0765611 87.4669683,78.7677828 L87.4693213,78.7654299 L159.262624,6.98208145 C168.573213,-2.32723982 183.66733,-2.32723982 192.977919,6.98208145 C202.286697,16.2895928 202.287783,31.3809955 192.980271,40.6901357 C192.979367,40.6908597 192.978462,40.6915837 192.977919,40.6924887 L121.184253,112.475837 C111.873846,121.784977 96.7799095,121.784977 87.4693213,112.475837 Z M6.98208145,125.475656 C-2.32687783,116.168145 -2.3279638,101.07638 6.97972851,91.7676018 L6.98208145,91.7652489 L78.7753846,19.9819005 C88.0859729,10.6725792 103.18009,10.6725792 112.490679,19.9819005 C121.799457,29.2894118 121.800543,44.3809955 112.493032,53.6899548 L112.490679,53.6923077 L40.6970136,125.475656 C31.3866063,134.784796 16.2926697,134.784796 6.98208145,125.475656 Z" id="Shape"></path>
        </g>
    </g>
</svg>