<?xml version="1.0" encoding="UTF-8"?>
<svg width="200px" height="200px" viewBox="0 0 200 200" version="1.1" xmlns="http://www.w3.org/2000/svg" xmlns:xlink="http://www.w3.org/1999/xlink">
    <title>Untitled</title>
    <g id="Page-1" stroke="none" stroke-width="1" fill="none" fill-rule="evenodd">
        <g id="Group">
            <g id="bg-header-mobile" fill="#5BA4A4">
                <circle id="Oval" cx="100" cy="100" r="100"></circle>
            </g>
            <g id="iconfinder-icon-(14)" transform="translate(60.000000, 44.000000)" fill="#FFFFFF" fill-rule="nonzero">
                <g id="Layer-1">
                    <path d="M70.4761905,32.3809524 L9.52380952,32.3809524 C8.47183857,32.3809524 7.61904762,31.5281614 7.61904762,30.4761905 L7.61904762,11.4285714 C7.61904762,10.3766005 8.47183857,9.52380952 9.52380952,9.52380952 L70.4761905,9.52380952 C71.5281614,9.52380952 72.3809524,10.3766005 72.3809524,11.4285714 L72.3809524,30.4761905 C72.3809524,31.5281614 71.5281614,32.3809524 70.4761905,32.3809524 Z M11.4285714,28.5714286 L68.5714286,28.5714286 L68.5714286,13.3333333 L11.4285714,13.3333333 L11.4285714,28.5714286 Z" id="svg_1"></path>
                    <path d="M78.0952381,110.47619 L1.9047619,110.47619 C0.852790953,110.47619 0,109.6234 0,108.571429 L0,1.9047619 C0,0.852790953 0.852790953,0 1.9047619,0 L78.0952381,0 C79.147209,0 80,0.852790953 80,1.9047619 L80,108.571429 C80,109.6234 79.147209,110.47619 78.0952381,110.47619 Z M3.80952381,106.666667 L76.1904762,106.666667 L76.1904762,3.80952381 L3.80952381,3.80952381 L3.80952381,106.666667 Z" id="svg_2"></path>
                    <path d="M25.7142857,51.4285714 L11.4285714,51.4285714 C10.3766005,51.4285714 9.52380952,50.5757805 9.52380952,49.5238095 L9.52380952,38.0952381 C9.52380952,37.0432671 10.3766005,36.1904762 11.4285714,36.1904762 L25.7142857,36.1904762 C26.7662567,36.1904762 27.6190476,37.0432671 27.6190476,38.0952381 L27.6190476,49.5238095 C27.6190476,50.5757805 26.7662567,51.4285714 25.7142857,51.4285714 Z M13.3333333,47.6190476 L23.8095238,47.6190476 L23.8095238,40 L13.3333333,40 L13.3333333,47.6190476 Z" id="svg_3"></path>
                    <path d="M47.1428571,51.4285714 L32.8571429,51.4285714 C31.8051719,51.4285714 30.952381,50.5757805 30.952381,49.5238095 L30.952381,38.0952381 C30.952381,37.0432671 31.8051719,36.1904762 32.8571429,36.1904762 L47.1428571,36.1904762 C48.1948281,36.1904762 49.047619,37.0432671 49.047619,38.0952381 L49.047619,49.5238095 C49.047619,50.5757805 48.1948281,51.4285714 47.1428571,51.4285714 Z M34.7619048,47.6190476 L45.2380952,47.6190476 L45.2380952,40 L34.7619048,40 L34.7619048,47.6190476 Z" id="svg_4"></path>
                    <path d="M68.5714286,51.4285714 L54.2857143,51.4285714 C53.2337433,51.4285714 52.3809524,50.5757805 52.3809524,49.5238095 L52.3809524,38.0952381 C52.3809524,37.0432671 53.2337433,36.1904762 54.2857143,36.1904762 L68.5714286,36.1904762 C69.6233995,36.1904762 70.4761905,37.0432671 70.4761905,38.0952381 L70.4761905,49.5238095 C70.4761905,50.5757805 69.6233995,51.4285714 68.5714286,51.4285714 Z M56.1904762,47.6190476 L66.6666667,47.6190476 L66.6666667,40 L56.1904762,40 L56.1904762,47.6190476 Z" id="svg_5"></path>
                    <path d="M25.7142857,74.2857143 L11.4285714,74.2857143 C10.3766005,74.2857143 9.52380952,73.4329233 9.52380952,72.3809524 L9.52380952,60.952381 C9.52380952,59.90041 10.3766005,59.047619 11.4285714,59.047619 L25.7142857,59.047619 C26.7662567,59.047619 27.6190476,59.90041 27.6190476,60.952381 L27.6190476,72.3809524 C27.6190476,73.4329233 26.7662567,74.2857143 25.7142857,74.2857143 Z M13.3333333,70.4761905 L23.8095238,70.4761905 L23.8095238,62.8571429 L13.3333333,62.8571429 L13.3333333,70.4761905 Z" id="svg_6"></path>
                    <path d="M47.1428571,74.2857143 L32.8571429,74.2857143 C31.8051719,74.2857143 30.952381,73.4329233 30.952381,72.3809524 L30.952381,60.952381 C30.952381,59.90041 31.8051719,59.047619 32.8571429,59.047619 L47.1428571,59.047619 C48.1948281,59.047619 49.047619,59.90041 49.047619,60.952381 L49.047619,72.3809524 C49.047619,73.4329233 48.1948281,74.2857143 47.1428571,74.2857143 Z M34.7619048,70.4761905 L45.2380952,70.4761905 L45.2380952,62.8571429 L34.7619048,62.8571429 L34.7619048,70.4761905 Z" id="svg_7"></path>
                    <path d="M68.5714286,74.2857143 L54.2857143,74.2857143 C53.2337433,74.2857143 52.3809524,73.4329233 52.3809524,72.3809524 L52.3809524,60.952381 C52.3809524,59.90041 53.2337433,59.047619 54.2857143,59.047619 L68.5714286,59.047619 C69.6233995,59.047619 70.4761905,59.90041 70.4761905,60.952381 L70.4761905,72.3809524 C70.4761905,73.4329233 69.6233995,74.2857143 68.5714286,74.2857143 Z M56.1904762,70.4761905 L66.6666667,70.4761905 L66.6666667,62.8571429 L56.1904762,62.8571429 L56.1904762,70.4761905 Z" id="svg_8"></path>
                    <path d="M25.7142857,97.1428571 L11.4285714,97.1428571 C10.3766005,97.1428571 9.52380952,96.2900662 9.52380952,95.2380952 L9.52380952,83.8095238 C9.52380952,82.7575529 10.3766005,81.9047619 11.4285714,81.9047619 L25.7142857,81.9047619 C26.7662567,81.9047619 27.6190476,82.7575529 27.6190476,83.8095238 L27.6190476,95.2380952 C27.6190476,96.2900662 26.7662567,97.1428571 25.7142857,97.1428571 Z M13.3333333,93.3333333 L23.8095238,93.3333333 L23.8095238,85.7142857 L13.3333333,85.7142857 L13.3333333,93.3333333 Z" id="svg_9"></path>
                    <path d="M47.1428571,97.1428571 L32.8571429,97.1428571 C31.8051719,97.1428571 30.952381,96.2900662 30.952381,95.2380952 L30.952381,83.8095238 C30.952381,82.7575529 31.8051719,81.9047619 32.8571429,81.9047619 L47.1428571,81.9047619 C48.1948281,81.9047619 49.047619,82.7575529 49.047619,83.8095238 L49.047619,95.2380952 C49.047619,96.2900662 48.1948281,97.1428571 47.1428571,97.1428571 Z M34.7619048,93.3333333 L45.2380952,93.3333333 L45.2380952,85.7142857 L34.7619048,85.7142857 L34.7619048,93.3333333 Z" id="svg_10"></path>
                    <path d="M68.5714286,97.1428571 L54.2857143,97.1428571 C53.2337433,97.1428571 52.3809524,96.2900662 52.3809524,95.2380952 L52.3809524,83.8095238 C52.3809524,82.7575529 53.2337433,81.9047619 54.2857143,81.9047619 L68.5714286,81.9047619 C69.6233995,81.9047619 70.4761905,82.7575529 70.4761905,83.8095238 L70.4761905,95.2380952 C70.4761905,96.2900662 69.6233995,97.1428571 68.5714286,97.1428571 Z M56.1904762,93.3333333 L66.6666667,93.3333333 L66.6666667,85.7142857 L56.1904762,85.7142857 L56.1904762,93.3333333 Z" id="svg_11"></path>
                </g>
            </g>
        </g>
    </g>
</svg>