<?xml version="1.0" encoding="UTF-8"?>
<svg width="200px" height="200px" viewBox="0 0 200 200" version="1.1" xmlns="http://www.w3.org/2000/svg" xmlns:xlink="http://www.w3.org/1999/xlink">
    <title>Untitled</title>
    <g id="Page-1" stroke="none" stroke-width="1" fill="none" fill-rule="evenodd">
        <g id="Group">
            <g id="bg-header-mobile" fill="#5BA4A4">
                <circle id="Oval" cx="100" cy="100" r="100"></circle>
            </g>
            <g id="iconfinder-icon-(13)" transform="translate(50.000000, 63.000000)" fill="#FFFFFF" fill-rule="nonzero">
                <g id="Layer-1">
                    <path d="M100,21.5517241 L100,27.5862069 L96.5517241,27.5862069 L96.5517241,21.5517241 C96.5550991,20.1744032 96.0090086,18.8526159 95.0344828,17.8793103 C94.6212252,17.4831276 94.1503735,17.1517876 93.637931,16.8965517 L93.1896552,17 C93.0422373,17.042667 92.8925865,17.0772018 92.7413793,17.1034483 C92.2933426,17.1963696 91.8368798,17.2425937 91.3793103,17.2413793 L91.3793103,17.2413793 C90.9333629,17.2384338 90.4887525,17.1922405 90.0517241,17.1034483 L89.637931,17.1034483 L89.1724138,16.9827586 C87.397102,17.8197467 86.2484698,19.5894417 86.2068966,21.5517241 L86.2068966,27.5862069 L82.7586207,27.5862069 L82.7586207,21.5517241 C82.76384,18.9908555 83.9073399,16.5648668 85.8793103,14.9310345 C84.4306003,13.4884104 83.6175846,11.5272427 83.6206897,9.48275862 C83.6098261,5.97063846 85.9596199,2.88923507 89.3494283,1.97037414 C92.7392366,1.05151321 96.3235388,2.52438642 98.0878675,5.56120223 C99.8521962,8.59801805 99.3564745,12.4413028 96.8793103,14.9310345 C97.0862069,15.0862069 97.2758621,15.2586207 97.4655172,15.4310345 C99.0838218,17.0576162 99.9946527,19.2572418 100,21.5517241 L100,21.5517241 Z" id="svg_1"></path>
                    <path d="M100,68.1034483 L100,74.137931 L96.5517241,74.137931 L96.5517241,68.1034483 C96.5550991,66.7261273 96.0090086,65.4043401 95.0344828,64.4310345 C94.6212252,64.0348517 94.1503735,63.7035117 93.637931,63.4482759 C93.3390769,63.517226 93.0402263,63.5861915 92.7413793,63.6551724 C92.2933426,63.7480938 91.8368798,63.7943178 91.3793103,63.7931034 L91.3793103,63.7931034 C90.9333629,63.790158 90.4887525,63.7439647 90.0517241,63.6551724 L89.637931,63.6551724 L89.1724138,63.5344828 C87.397102,64.3714708 86.2484698,66.1411658 86.2068966,68.1034483 L86.2068966,74.137931 L82.7586207,74.137931 L82.7586207,68.1034483 C82.76384,65.5425796 83.9073399,63.1165909 85.8793103,61.4827586 C84.4306003,60.0401346 83.6175846,58.0789669 83.6206897,56.0344828 C83.6098261,52.5223626 85.9596199,49.4409592 89.3494283,48.5220983 C92.7392366,47.6032373 96.3235388,49.0761106 98.0878675,52.1129264 C99.8521962,55.1497422 99.3564745,58.993027 96.8793103,61.4827586 C97.0862069,61.637931 97.2758621,61.8103448 97.4655172,61.9827586 C99.0838218,63.6093403 99.9946527,65.8089659 100,68.1034483 L100,68.1034483 Z" id="svg_2"></path>
                    <path d="M17.2413793,43.9655172 L17.2413793,50 L13.7931034,50 L13.7931034,43.9655172 C13.7964784,42.5881963 13.2503879,41.266409 12.2758621,40.2931034 C11.8626045,39.8969207 11.3917528,39.5655807 10.8793103,39.3103448 L10.3448276,39.4137931 C10.1974097,39.4564601 10.0477589,39.4909949 9.89655172,39.5172414 C9.47673413,39.6044241 9.04944005,39.6506181 8.62068966,39.6551724 L8.62068966,39.6551724 C8.17474219,39.6522269 7.73013177,39.6060336 7.29310345,39.5172414 L6.87931034,39.5172414 L6.4137931,39.3965517 C4.63848135,40.2335398 3.48984913,42.0032348 3.44827586,43.9655172 L3.44827586,50 L-7.65671051e-15,50 L-7.65671051e-15,43.9655172 C0.0052192751,41.4046486 1.14871917,38.9786599 3.12068966,37.3448276 C1.67197962,35.9022035 0.858963893,33.9410358 0.862068966,31.8965517 C0.851205433,28.3844316 3.20099925,25.3030282 6.5908076,24.3841672 C9.98061594,23.4653063 13.5649182,24.9381795 15.3292468,27.9749953 C17.0935755,31.0118112 16.5978538,34.8550959 14.1206897,37.3448276 C14.3275862,37.5 14.5172414,37.6724138 14.7068966,37.8448276 C16.3252011,39.4714093 17.236032,41.6710349 17.2413793,43.9655172 L17.2413793,43.9655172 Z" id="svg_3"></path>
                    <path d="M70.8448276,22.9137931 L65.9827586,27.7758621 C60.6851019,19.6963542 50.1605377,16.8906397 41.5439609,21.2607907 C32.9273841,25.6309417 28.9732039,35.7799783 32.362069,44.8275862 L26.7068966,50.4827586 L29.137931,52.9137931 L34,48.0517241 C39.2895883,56.1361024 49.8108931,58.9522059 58.4316253,54.5910256 C67.0523575,50.2298454 71.0169872,40.0853885 67.637931,31.0344828 L73.2931034,25.3793103 L70.8448276,22.9137931 L70.8448276,22.9137931 Z M34.4827586,37.9310345 C34.4945168,30.8960626 39.2375421,24.7491799 46.0395299,22.9536492 C52.8415176,21.1581185 60.0004095,24.1632348 63.4827586,30.2758621 L57.5689655,36.2068966 L41.0172414,36.2068966 L35.0862069,42.137931 C34.6930655,40.7699454 34.4900121,39.3543729 34.4827586,37.9310345 L34.4827586,37.9310345 Z M65.5172414,37.9310345 C65.5054832,44.9660064 60.7624579,51.1128891 53.9604701,52.9084198 C47.1584824,54.7039504 39.9995905,51.6988342 36.5172414,45.5862069 L42.4310345,39.6551724 L58.9827586,39.6551724 L64.9137931,33.7241379 C65.3069345,35.0921236 65.5099879,36.5076961 65.5172414,37.9310345 Z" id="svg_4"></path>
                </g>
            </g>
        </g>
    </g>
</svg>