<?xml version="1.0" encoding="UTF-8"?>
<svg width="200px" height="200px" viewBox="0 0 200 200" version="1.1" xmlns="http://www.w3.org/2000/svg" xmlns:xlink="http://www.w3.org/1999/xlink">
    <title>Untitled</title>
    <g id="Page-1" stroke="none" stroke-width="1" fill="none" fill-rule="evenodd">
        <g id="Group-7">
            <path d="M100,200 C139.938993,200 174.409425,176.586302 190.434099,142.7361 C196.568679,129.777535 200,115.289482 200,100 C200,44.771525 155.228475,0 100,0 C44.771525,0 0,44.771525 0,100 C0,155.228475 44.771525,200 100,200 Z" id="Oval" fill="#5BA4A4"></path>
            <g id="iconfinder-icon-(11)" transform="translate(35.000000, 39.000000)">
                <g id="background">
                    <rect id="canvas_background" x="0" y="0" width="150" height="103.608247"></rect>
                </g>
                <g id="Layer-1" transform="translate(13.000000, 0.000000)" fill="#FFFFFF">
                    <path d="M48.3515464,99.6731959 C31.4884021,99.6731959 16.8912371,99.6048969 0.0280927835,99.6048969 L0.0280927835,104.239948 C0.0280927835,105.513144 0.54871134,106.670361 1.39072165,107.512371 C2.22603093,108.34768 3.39020619,108.868041 4.66314433,108.868041 L96.5587629,108.868041 C97.8322165,108.868041 98.989433,108.34768 99.8311856,107.512371 C100.666495,106.670103 101.187113,105.513144 101.187113,104.239948 L101.187113,99.6048969 C83.5775773,99.6051546 65.9608247,99.6731959 48.3515464,99.6731959 M39.3275773,14.193299 C39.8481959,14.3987113 40.3822165,14.5561856 40.9298969,14.6796392 C41.7242268,14.8572165 42.5525773,14.9463918 43.4216495,14.9463918 C45.8796392,14.9463918 48.1595361,14.1726804 50.0219072,12.8512887 C50.6654639,12.3994845 51.2543814,11.8860825 51.7884021,11.3177835 L51.8639175,11.228866 L51.8706186,11.2219072 C52.7195876,10.2976804 53.4177835,9.22963918 53.9244845,8.05902062 C49.7342784,6.45695876 44.9484536,7.44252577 41.7373711,10.6608247 C40.7244845,11.6670103 39.9028351,12.8652062 39.3275773,14.193299 L39.3275773,14.193299 Z M52.4868557,13.0842784 C52.0283505,13.5157216 51.5489691,13.9128866 51.035567,14.2755155 C48.885567,15.8023196 46.256701,16.6992268 43.4216495,16.6992268 C42.4497423,16.6992268 41.4842784,16.5896907 40.5530928,16.3842784 C39.9371134,16.2474227 39.3342784,16.0693299 38.7528351,15.8502577 C38.5131443,16.7747423 38.382732,17.7466495 38.382732,18.7463918 C38.382732,21.9092784 39.6631443,24.7713918 41.7306701,26.8389175 C43.8051546,28.9134021 46.6670103,30.1938144 49.8234536,30.1938144 C52.9863402,30.1938144 55.8481959,28.906701 57.9159794,26.8389175 C59.9904639,24.7713918 61.2708763,21.9092784 61.2708763,18.7463918 C61.2708763,17.9793814 61.1958763,17.2332474 61.0518041,16.5072165 C59.3332474,16.4729381 57.6902062,16.1036082 56.1837629,15.4597938 C54.8216495,14.8780928 53.5685567,14.0701031 52.4868557,13.0842784 L52.4868557,13.0842784 Z M55.4992268,8.81185567 C55.0270619,9.8935567 54.403866,10.9002577 53.6713918,11.8036082 C54.6092784,12.6528351 55.6909794,13.3510309 56.8755155,13.8507732 C58.0121134,14.3371134 59.2512887,14.6381443 60.5456186,14.7340206 C59.9770619,13.2072165 59.0871134,11.8311856 57.9639175,10.7015464 L57.9159794,10.660567 C57.1974227,9.94149485 56.3891753,9.3185567 55.4992268,8.81185567 Z M49.7417526,43.2023196 L56.9368557,43.2023196 L56.725,36.9791237 L55.9719072,37.6502577 L55.9652062,37.656701 L55.9510309,37.6708763 L55.9443299,37.6773196 L55.9376289,37.6842784 L55.9239691,37.6907216 L55.9175258,37.6976804 L55.9108247,37.7043814 L49.9061856,43.0791237 C49.8510309,43.1273196 49.7963918,43.1680412 49.7417526,43.2023196 L49.7417526,43.2023196 Z M42.6005155,37.1708763 L42.2853093,43.2023196 L48.8992268,43.2023196 C48.8445876,43.1680412 48.7896907,43.1273196 48.7417526,43.0791237 L42.6005155,37.1708763 L42.6005155,37.1708763 Z M51.2273196,44.8865979 L47.9819588,44.8865979 L47.9819588,45.996134 L51.2273196,45.996134 L51.2273196,44.8865979 Z M46.2976804,45.996134 L46.2976804,44.8798969 L41.4020619,44.8798969 C40.9365979,44.8798969 40.5597938,44.5036082 40.5597938,44.0448454 L40.9502577,36.5543814 L25.6481959,42.5590206 L25.6481959,45.996134 L46.2976804,45.996134 L46.2976804,45.996134 Z M52.9115979,44.8798969 L52.9115979,45.996134 L73.553866,45.996134 L73.553866,42.5590206 L58.3886598,36.6090206 L58.6420103,44.017268 C58.6556701,44.4757732 58.2927835,44.8662371 57.8270619,44.8798969 L52.9115979,44.8798969 L52.9115979,44.8798969 Z M54.5409794,36.6778351 L54.5409794,31.0773196 C53.0755155,31.6386598 51.4873711,31.9466495 49.8234536,31.9466495 C48.0229381,31.9466495 46.3113402,31.5837629 44.743299,30.9265464 L44.743299,36.9033505 L49.3440722,41.3262887 L54.5409794,36.6778351 L54.5409794,36.6778351 Z M93.7170103,60.8051546 L93.7170103,47.6801546 L74.4164948,47.6801546 L52.0896907,47.6801546 L47.1188144,47.6801546 L24.7850515,47.6801546 L7.50463918,47.6801546 L7.50463918,97.9206186 L10.4487113,97.9206186 L10.4487113,51.7335052 C10.4487113,51.2677835 10.825,50.8912371 11.2907216,50.8912371 L89.9306701,50.8912371 C90.3966495,50.8912371 90.7734536,51.2677835 90.7734536,51.7335052 L90.7734536,60.8051546 L93.7170103,60.8051546 Z M94.5801546,62.489433 L94.5592784,62.489433 L94.5322165,62.489433 L89.9520619,62.489433 L89.9311856,62.489433 L89.9108247,62.489433 L84.8443299,62.489433 C83.8652062,62.489433 82.975,62.8865979 82.3247423,63.5368557 L82.2909794,63.571134 C81.6677835,64.2146907 81.2773196,65.0909794 81.2773196,66.0494845 L81.2773196,77.7981959 C81.2773196,78.7773196 81.6811856,79.6675258 82.3244845,80.3177835 C82.9747423,80.9613402 83.8652062,81.3585052 84.8440722,81.3585052 L96.9213918,81.3585052 C97.1064433,81.3585052 97.2845361,81.4198454 97.421134,81.5296392 L104.254381,85.7675258 L104.254381,82.2005155 C104.254381,81.7347938 104.637629,81.3582474 105.096392,81.3582474 L106.198454,81.3582474 C107.177835,81.3582474 108.074485,80.9610825 108.718041,80.3175258 C109.361598,79.667268 109.765722,78.7768041 109.765722,77.7979381 L109.765722,66.0492268 C109.765722,65.0703608 109.361598,64.1801546 108.718041,63.5298969 C108.074485,62.8863402 107.177577,62.4891753 106.198454,62.4891753 L94.5801546,62.4891753 L94.5801546,62.489433 L94.5801546,62.489433 Z M51.6175258,103.233505 C51.3569588,102.980412 51.0010309,102.82268 50.6108247,102.82268 C50.2206186,102.82268 49.8646907,102.980155 49.6046392,103.233505 C49.3515464,103.493814 49.1935567,103.843041 49.1935567,104.240206 C49.1935567,104.63067 49.3512887,104.986598 49.6046392,105.239691 C49.8579897,105.499742 50.2139175,105.657216 50.6108247,105.657216 C51.0012887,105.657216 51.3572165,105.499742 51.6103093,105.246392 C51.8708763,104.98634 52.0283505,104.630412 52.0283505,104.240206 C52.0283505,103.85 51.8708763,103.493814 51.6175258,103.233505 Z M50.6108247,101.13866 C51.4597938,101.13866 52.2402062,101.487629 52.7948454,102.042268 L52.8293814,102.076804 C53.3703608,102.631186 53.7126289,103.398196 53.7126289,104.240464 C53.7126289,105.089433 53.3636598,105.863144 52.8023196,106.424485 L52.7747423,106.458763 C52.2134021,107 51.4463918,107.342268 50.6110825,107.342268 C49.7554124,107.342268 48.981701,106.993041 48.4203608,106.431443 L48.4136598,106.417784 C47.8520619,105.863402 47.5095361,105.089691 47.5095361,104.240722 C47.5095361,103.384794 47.8587629,102.61134 48.4136598,102.049485 L48.4476804,102.022423 C49.0020619,101.474227 49.7688144,101.13866 50.6108247,101.13866 L50.6108247,101.13866 Z M90.7734536,86.6170103 L90.7734536,97.9203608 L93.7170103,97.9203608 L93.7170103,86.6170103 L90.7734536,86.6170103 L90.7734536,86.6170103 Z M79.8662371,64.3997423 C80.1195876,63.6396907 80.5443299,62.9551546 81.0920103,62.3935567 L81.1399485,62.3456186 C82.0847938,61.3940722 83.3997423,60.8048969 84.8440722,60.8048969 L89.0889175,60.8048969 L89.0889175,52.575 L12.1329897,52.575 L12.1329897,97.9201031 L89.0889175,97.9201031 L89.0889175,86.6167526 L82.6463918,86.6167526 L74.6768041,91.5600515 C74.2796392,91.7997423 73.7662371,91.6762887 73.5201031,91.2860825 C73.4376289,91.1492268 73.3966495,90.9987113 73.3966495,90.8479381 L73.3966495,86.6170103 L73.1365979,86.6170103 C71.6920103,86.6170103 70.3840206,86.0208763 69.4257732,85.0695876 C68.4806701,84.1177835 67.8847938,82.8100515 67.8847938,81.3654639 L67.8847938,69.6237113 C67.8847938,68.1791237 68.4806701,66.864433 69.4324742,65.9128866 C70.3840206,64.9613402 71.6920103,64.3721649 73.1365979,64.3721649 L79.8734536,64.3721649 L79.8662371,64.3997423 Z M19.1371134,71.8353093 C18.671134,71.8353093 18.2948454,71.4585052 18.2948454,70.9927835 C18.2948454,70.5273196 18.671134,70.1507732 19.1371134,70.1507732 L52.0762887,70.1507732 C52.5347938,70.1507732 52.918299,70.5273196 52.918299,70.9927835 C52.918299,71.4585052 52.5347938,71.8353093 52.0762887,71.8353093 L19.1371134,71.8353093 Z M35.6033505,75.5115979 C35.1448454,75.5115979 34.7610825,75.1283505 34.7610825,74.6695876 C34.7610825,74.203866 35.1445876,73.8270619 35.6033505,73.8270619 L52.0762887,73.8270619 C52.5347938,73.8270619 52.918299,74.203866 52.918299,74.6695876 C52.918299,75.1280928 52.5347938,75.5115979 52.0762887,75.5115979 L35.6033505,75.5115979 Z M19.1371134,79.181701 C18.671134,79.181701 18.2948454,78.8051546 18.2948454,78.339433 C18.2948454,77.8806701 18.671134,77.4971649 19.1371134,77.4971649 L40.7793814,77.4971649 C41.2448454,77.4971649 41.6216495,77.8804124 41.6216495,78.339433 C41.6216495,78.8051546 41.2448454,79.181701 40.7793814,79.181701 L19.1371134,79.181701 Z M19.1371134,82.8582474 C18.671134,82.8582474 18.2948454,82.4814433 18.2948454,82.0157216 C18.2948454,81.5502577 18.671134,81.1737113 19.1371134,81.1737113 L52.0762887,81.1737113 C52.5347938,81.1737113 52.918299,81.5502577 52.918299,82.0157216 C52.918299,82.4814433 52.5347938,82.8582474 52.0762887,82.8582474 L19.1371134,82.8582474 Z M23.6283505,86.5347938 C23.1628866,86.5347938 22.7863402,86.1515464 22.7863402,85.6925258 C22.7863402,85.2270619 23.1628866,84.8502577 23.6283505,84.8502577 L52.0760309,84.8502577 C52.5345361,84.8502577 52.9180412,85.2270619 52.9180412,85.6925258 C52.9180412,86.1512887 52.5345361,86.5347938 52.0760309,86.5347938 L23.6283505,86.5347938 L23.6283505,86.5347938 Z M19.1371134,90.2046392 C18.671134,90.2046392 18.2948454,89.8278351 18.2948454,89.3623711 C18.2948454,88.9036082 18.671134,88.5201031 19.1371134,88.5201031 L40.7793814,88.5201031 C41.2448454,88.5201031 41.6216495,88.9033505 41.6216495,89.3623711 C41.6216495,89.8278351 41.2448454,90.2046392 40.7793814,90.2046392 L19.1371134,90.2046392 Z M19.1371134,93.8814433 C18.671134,93.8814433 18.2948454,93.5046392 18.2948454,93.0389175 C18.2948454,92.5734536 18.671134,92.1966495 19.1371134,92.1966495 L52.0762887,92.1966495 C52.5347938,92.1966495 52.918299,92.5734536 52.918299,93.0389175 C52.918299,93.5046392 52.5347938,93.8814433 52.0762887,93.8814433 L19.1371134,93.8814433 Z M88.1100515,68.3296392 C87.6510309,68.3296392 87.2747423,67.9530928 87.2747423,67.4873711 C87.2747423,67.0216495 87.6510309,66.6451031 88.1100515,66.6451031 L102.932732,66.6451031 C103.398711,66.6451031 103.775,67.0216495 103.775,67.4873711 C103.775,67.9530928 103.398711,68.3296392 102.932732,68.3296392 L88.1100515,68.3296392 Z M88.1100515,74.3340206 C87.6510309,74.3340206 87.2747423,73.9574742 87.2747423,73.4917526 C87.2747423,73.0332474 87.6510309,72.656701 88.1100515,72.656701 L102.932732,72.656701 C103.398711,72.656701 103.775,73.0332474 103.775,73.4917526 C103.775,73.9574742 103.398711,74.3340206 102.932732,74.3340206 L88.1100515,74.3340206 Z M33.871134,16.2268041 C34.9048969,11.9956186 36.6850515,6.91546392 39.567268,4.225 C42.3744845,1.60953608 45.893299,0.000515463918 49.8234536,0.000515463918 C53.8219072,0.000515463918 57.3819588,1.59561856 60.196134,4.225 C63.0579897,6.88814433 64.878866,11.9479381 65.8719072,16.2268041 L66.7551546,16.2268041 L66.7551546,21.2865979 L62.7770619,21.2865979 C62.9412371,20.4649485 63.0234536,19.6159794 63.0234536,18.7466495 C63.0234536,17.8837629 62.9412371,17.0487113 62.7837629,16.2270619 L64.0778351,16.2270619 C63.1533505,12.3657216 61.5311856,7.85360825 59.0043814,5.50515464 C56.5056701,3.17036082 53.3561856,1.75309278 49.8231959,1.75309278 C46.3657216,1.75309278 43.2505155,3.18402062 40.7582474,5.50515464 C38.218299,7.87396907 36.6368557,12.3997423 35.6780928,16.2270619 L36.8698454,16.2270619 C36.7121134,17.0417526 36.6301546,17.8840206 36.6301546,18.7466495 C36.6301546,19.6159794 36.7121134,20.4652062 36.8768041,21.2865979 L32.9054124,21.2865979 L32.9054124,16.2268041 L33.871134,16.2268041 Z M9.57242268,115.263144 C9.10695876,115.263144 8.73041237,114.886856 8.73041237,114.420876 C8.73041237,113.955412 9.10695876,113.578608 9.57242268,113.578608 L63.7018041,113.578608 C64.167268,113.578608 64.5440722,113.955412 64.5440722,114.420876 C64.5440722,114.886856 64.167268,115.263144 63.7018041,115.263144 L9.57242268,115.263144 Z M41.2721649,118.556443 C40.8064433,118.556443 40.4301546,118.179897 40.4301546,117.714175 C40.4301546,117.248454 40.8064433,116.871907 41.2721649,116.871907 L78.7296392,116.871907 C79.1886598,116.871907 79.5719072,117.248454 79.5719072,117.714175 C79.5719072,118.179897 79.1889175,118.556443 78.7296392,118.556443 L41.2721649,118.556443 Z M82.5641753,118.556443 C82.0987113,118.556443 81.7219072,118.179897 81.7219072,117.714175 C81.7219072,117.248454 82.0987113,116.871907 82.5641753,116.871907 L87.2474227,116.871907 C87.7126289,116.871907 88.089433,117.248454 88.089433,117.714175 C88.089433,118.179897 87.7126289,118.556443 87.2474227,118.556443 L82.5641753,118.556443 Z M7.44304124,118.453866 C6.97706186,118.453866 6.6007732,118.077062 6.6007732,117.611598 C6.6007732,117.152835 6.97706186,116.76933 7.44304124,116.76933 L25.189433,116.76933 C25.6548969,116.76933 26.0314433,117.152577 26.0314433,117.611598 C26.0314433,118.077062 25.6548969,118.453866 25.189433,118.453866 L7.44304124,118.453866 Z M97.3662371,83.4675258 L96.6884021,83.043299 L84.8438144,83.043299 C83.3994845,83.043299 82.0845361,82.4543814 81.1396907,81.5025773 C80.1884021,80.5510309 79.5992268,79.2363402 79.5992268,77.7984536 L79.5992268,66.0564433 L73.1365979,66.0564433 C72.1505155,66.0564433 71.260567,66.4536082 70.6170103,67.103866 C69.9734536,67.7476804 69.5698454,68.6445876 69.5698454,69.6234536 L69.5698454,81.3654639 C69.5698454,82.3445876 69.9734536,83.2412371 70.6170103,83.8850515 C71.260567,84.5283505 72.1505155,84.9324742 73.1365979,84.9324742 L74.2384021,84.9324742 C74.6974227,84.9324742 75.0739691,85.3090206 75.0739691,85.7747423 L75.0739691,89.3347938 L81.9136598,85.0969072 C82.0507732,84.9943299 82.2286082,84.932732 82.4131443,84.932732 L94.4907216,84.932732 C95.4698454,84.932732 96.3597938,84.5286082 97.0100515,83.8853093 C97.1407216,83.7548969 97.2569588,83.6180412 97.3662371,83.4675258 Z" id="svg_2"></path>
                </g>
            </g>
        </g>
    </g>
</svg>