<?xml version="1.0" encoding="UTF-8"?>
<svg width="200px" height="200px" viewBox="0 0 200 200" version="1.1" xmlns="http://www.w3.org/2000/svg" xmlns:xlink="http://www.w3.org/1999/xlink">
    <title>Untitled</title>
    <g id="Page-1" stroke="none" stroke-width="1" fill="none" fill-rule="evenodd">
        <g id="Group-12">
            <path d="M100,200 C139.938993,200 174.409425,176.586302 190.434099,142.7361 C196.568679,129.777535 200,115.289482 200,100 C200,44.771525 155.228475,0 100,0 C44.771525,0 0,44.771525 0,100 C0,155.228475 44.771525,200 100,200 Z" id="Oval" fill="#5BA4A4"></path>
            <g id="iconfinder-icon-(17)" transform="translate(50.000000, 50.000000)" fill="#FFFFFF" fill-rule="nonzero">
                <g id="Layer-1">
                    <path d="M100,33.3333333 C100,19.5833333 88.75,8.33333333 75,8.33333333 C72.9166667,8.33333333 71.25,8.75 69.1666667,9.16666667 C64.5833333,3.33333333 57.9166667,0 50,0 C42.0833333,0 35.4166667,3.33333333 30.8333333,9.16666667 C28.75,8.75 27.0833333,8.33333333 25,8.33333333 C11.25,8.33333333 7.40148683e-15,19.5833333 7.40148683e-15,33.3333333 C7.40148683e-15,44.1666667 7.08333333,53.3333333 16.6666667,57.0833333 L16.6666667,95.8333333 C16.6666667,98.3333333 18.3333333,100 20.8333333,100 L79.1666667,100 C81.6666667,100 83.3333333,98.3333333 83.3333333,95.8333333 L83.3333333,57.0833333 C92.9166667,53.3333333 100,44.1666667 100,33.3333333 Z M75,91.6666667 L25,91.6666667 L25,83.3333333 L75,83.3333333 L75,91.6666667 Z M75,50 L75,79.1666667 L25,79.1666667 L25,50 C15.8333333,50 8.33333333,42.5 8.33333333,33.3333333 C8.33333333,24.1666667 15.8333333,16.6666667 25,16.6666667 C25.4166667,16.6666667 25.8333333,16.6666667 26.25,16.6666667 C29.1666667,17.0833333 32.0833333,17.9166667 34.1666667,19.5833333 C35.4166667,16.6666667 36.6666667,14.5833333 39.1666667,12.5 C42.0833333,10 45.8333333,8.33333333 50,8.33333333 C54.1666667,8.33333333 57.9166667,10 60.8333333,12.5 C62.9166667,14.1666667 64.5833333,16.6666667 65.4166667,19.5833333 C67.9166667,17.9166667 70.8333333,17.0833333 73.75,16.6666667 C74.1666667,16.6666667 74.5833333,16.6666667 75,16.6666667 C84.1666667,16.6666667 91.6666667,24.1666667 91.6666667,33.3333333 C91.6666667,42.5 84.1666667,50 75,50 L75,50 Z" id="svg_1"></path>
                </g>
            </g>
        </g>
    </g>
</svg>