<?xml version="1.0" encoding="UTF-8"?>
<svg width="200px" height="200px" viewBox="0 0 200 200" version="1.1" xmlns="http://www.w3.org/2000/svg" xmlns:xlink="http://www.w3.org/1999/xlink">
    <title>Untitled</title>
    <g id="Page-1" stroke="none" stroke-width="1" fill="none" fill-rule="evenodd">
        <g id="Group-4">
            <path d="M100,200 C139.938993,200 174.409425,176.586302 190.434099,142.7361 C196.568679,129.777535 200,115.289482 200,100 C200,44.771525 155.228475,0 100,0 C44.771525,0 0,44.771525 0,100 C0,155.228475 44.771525,200 100,200 Z" id="Oval" fill="#5BA4A4"></path>
            <g id="iconfinder-icon-(9)" transform="translate(28.000000, 22.000000)">
                <g id="background">
                    <rect id="canvas_background" x="0" y="0" width="143.732" height="143.732"></rect>
                </g>
                <g id="Layer-1" transform="translate(1.000000, 31.000000)" fill="#FFFFFF" fill-rule="nonzero">
                    <path d="M62.595,78.36217 C62.595,77.80017 63.043,77.34917 63.603,77.34917 L78.128,77.34917 C78.689,77.34917 79.14,77.79917 79.14,78.36217 C79.14,78.92317 78.689,79.37617 78.128,79.37617 L63.603,79.37617 C63.045,79.37517 62.595,78.92217 62.595,78.36217 M121.003,71.91917 L20.315,71.91917 L20.315,4.47417 L121.003,4.47417 L121.003,71.91917 L121.003,71.91917 Z M141.024,78.85817 C141.024,77.35817 139.811,76.14217 138.317,76.14217 L138.317,75.94917 L123.954,75.94917 C124.686,75.62117 125.2,74.88617 125.2,74.02617 L125.2,2.36217 C125.2,1.19817 124.262,0.25517 123.1,0.25517 L18.216,0.25517 C17.061,0.25517 16.119,1.19817 16.119,2.36217 L16.119,74.02517 C16.119,74.88017 16.632,75.62017 17.364,75.94817 L3.414,75.94817 L3.414,76.13617 C1.92,76.13517 0.708,77.35317 0.708,78.85517 C0.708,80.35717 1.92,81.57517 3.414,81.57517 L138.317,81.57517 C139.813,81.57317 141.024,80.35817 141.024,78.85817" id="svg_1"></path>
                </g>
            </g>
        </g>
    </g>
</svg>