<?xml version="1.0" encoding="UTF-8"?>
<svg width="200px" height="200px" viewBox="0 0 200 200" version="1.1" xmlns="http://www.w3.org/2000/svg" xmlns:xlink="http://www.w3.org/1999/xlink">
    <title>Untitled</title>
    <g id="Page-1" stroke="none" stroke-width="1" fill="none" fill-rule="evenodd">
        <g id="Group-6">
            <g id="Group-5">
                <path d="M100,200 C139.938993,200 174.409425,176.586302 190.434099,142.7361 C196.568679,129.777535 200,115.289482 200,100 C200,44.771525 155.228475,0 100,0 C44.771525,0 0,44.771525 0,100 C0,155.228475 44.771525,200 100,200 Z" id="Oval" fill="#5BA4A4"></path>
                <g id="iconfinder-icon-(10)" transform="translate(40.000000, 46.000000)" fill="#FFFFFF" fill-rule="nonzero">
                    <g id="Layer-1">
                        <path d="M117.951181,43.7501538 L117.901335,43.6356923 L117.929027,43.6135385 L117.563489,42.9156923 L97.9573348,5.58461538 C97.4219502,4.60984615 95.5591809,1.74830769 91.9757963,1.74830769 L26.2951809,1.74830769 C22.2964117,1.74830769 20.2951809,5.688 20.2508732,5.78030769 L0.995488615,42.4430769 L0.988104,42.4596923 L0.851488615,42.7181538 C0.528411692,43.3569231 -0.187896,45.0923077 0.522873231,46.8055385 C5.41518092,54.7476923 14.1364117,60.0756923 24.148104,60.0756923 C33.9364117,60.0756923 42.4748732,54.9710769 47.4225655,47.3224615 C48.1794886,45.5852308 47.1253348,43.4086154 47.1253348,43.4086154 L28.9074886,8.71569231 L28.7302578,8.37969231 C28.4847194,7.81476923 28.2668732,6.73846154 30.220104,6.73846154 L54.1056425,6.73846154 C54.7831809,6.76061538 56.6717963,7.09661538 56.6717963,10.2590769 L56.6717963,92.4461538 C56.6274886,93.2603077 56.3191809,94.9089231 54.6262578,95.9538462 L42.6687194,103.349538 C42.6687194,103.349538 39.532104,105.328615 42.6687194,105.328615 L76.5991809,105.328615 C78.9124117,105.328615 76.5991809,103.724308 76.5991809,103.724308 L64.2816425,96.1846154 C64.276104,96.1809231 64.276104,96.1772308 64.2705655,96.1735385 C62.2453348,94.9329231 61.8668732,93.3710769 61.8114886,92.5827692 L61.8114886,9.90830769 C61.8114886,7.05046154 63.8607194,6.75507692 64.5807194,6.73846154 L87.9364117,6.73846154 C88.5474886,6.74953846 90.4102578,6.95261538 89.2379502,9.19569231 L70.948104,44.0104615 C70.948104,44.0104615 70.3757963,45.3803077 71.020104,46.8830769 C75.9179502,54.7809231 84.6059502,60.0756923 94.5862578,60.0756923 C104.583181,60.0756923 113.302566,54.7698462 118.194873,46.8461538 C118.684104,45.5686154 118.13395,44.1507692 117.951181,43.7501538 L117.951181,43.7501538 Z M41.2102578,42.6535385 L41.212104,42.6553846 L41.4631809,43.1372308 C41.8508732,43.9384615 42.436104,45.4633846 41.212104,45.4633846 L6.48964246,45.4596923 C5.33764246,45.4596923 5.56656554,44.4055385 5.93395015,43.5544615 L6.484104,42.5095385 L6.48964246,42.5003077 L23.0422578,10.9827692 C23.0422578,10.9827692 23.8877963,9.67569231 24.5745655,10.9827692 L24.5764117,10.9827692 L41.2102578,42.6535385 L41.2102578,42.6535385 Z M76.9887194,43.0356923 L77.2342578,42.5686154 C77.2342578,42.5667692 77.2434886,42.5501538 77.2434886,42.5501538 L93.4268732,11.736 C93.4490271,11.7027692 94.5474886,9.61292308 95.6662578,11.7415385 L111.801642,42.4596923 C112.135796,43.1206154 113.156719,45.4670769 110.762258,45.4670769 L78.5376425,45.4615385 C78.532104,45.4615385 78.532104,45.4615385 78.532104,45.4615385 C76.1837963,45.4596923 76.6084117,43.8609231 76.9887194,43.0356923 L76.9887194,43.0356923 Z" id="svg_1"></path>
                    </g>
                </g>
            </g>
        </g>
    </g>
</svg>