<?xml version="1.0" encoding="UTF-8"?>
<svg width="200px" height="200px" viewBox="0 0 200 200" version="1.1" xmlns="http://www.w3.org/2000/svg" xmlns:xlink="http://www.w3.org/1999/xlink">
    <title>Untitled</title>
    <g id="Page-1" stroke="none" stroke-width="1" fill="none" fill-rule="evenodd">
        <g id="Group-23">
            <path d="M100,200 C139.938993,200 174.409425,176.586302 190.434099,142.7361 C196.568679,129.777535 200,115.289482 200,100 C200,44.771525 155.228475,0 100,0 C44.771525,0 0,44.771525 0,100 C0,155.228475 44.771525,200 100,200 Z" id="Oval" fill="#5BA4A4"></path>
            <g id="iconfinder-icon-(28)" transform="translate(40.000000, 45.000000)" fill="#FFFFFF" fill-rule="nonzero">
                <g id="Layer-1">
                    <path d="M68.1138462,84.9276923 C68.1138462,84.9276923 88.8646154,105.678462 90.3553846,107.169231 C95.1553846,111.969231 102.932308,111.969231 107.727692,107.169231 C112.527692,102.369231 112.527692,94.5923077 107.727692,89.7923077 C106.236923,88.3015385 85.4861538,67.5507692 85.4861538,67.5507692 L68.1138462,84.9276923 Z" id="svg_1"></path>
                    <path d="M101.529231,36.9369231 L86.7553846,33.2446154 L83.0630769,18.4707692 L100.167692,1.36615385 C90.3415385,-1.75846154 79.1630769,0.553846154 71.3676923,8.34461538 C60.2446154,19.4676923 63.8030769,33.9461538 74.9307692,45.0692308 C86.0538462,56.1923077 100.532308,59.7553846 111.655385,48.6276923 C119.450769,40.8323077 121.763077,29.6538462 118.633846,19.8323077 L101.529231,36.9369231 Z" id="svg_2"></path>
                    <polygon id="svg_3" points="48.4615385 39.2307692 32.3076923 23.0769231 27.6923077 9.23076923 9.23076923 0 0 9.23076923 9.23076923 27.6923077 23.0769231 32.3076923 39.2307692 48.4615385"></polygon>
                    <path d="M73.2876923,27.1338462 C57.7615385,42.66 14.9676923,85.4538462 13.2876923,87.1338462 C7.87846154,92.5430769 7.87846154,101.307692 13.2876923,106.716923 C18.6969231,112.126154 27.4615385,112.126154 32.8707692,106.716923 C34.5507692,105.036923 77.3446154,62.2430769 92.8707692,46.7169231 L73.2876923,27.1338462 L73.2876923,27.1338462 Z M23.0769231,101.538462 C20.5292308,101.538462 18.4615385,99.4707692 18.4615385,96.9230769 C18.4615385,94.3753846 20.5292308,92.3076923 23.0769231,92.3076923 C25.6246154,92.3076923 27.6923077,94.3753846 27.6923077,96.9230769 C27.6923077,99.4707692 25.6246154,101.538462 23.0769231,101.538462 Z" id="svg_4"></path>
                </g>
            </g>
        </g>
        <g id="Group-17" transform="translate(184.000000, -159.000000)" fill="#5BA4A4">
            <path d="M100,200 C139.938993,200 174.409425,176.586302 190.434099,142.7361 C196.568679,129.777535 200,115.289482 200,100 C200,44.771525 155.228475,0 100,0 C44.771525,0 0,44.771525 0,100 C0,155.228475 44.771525,200 100,200 Z" id="Oval"></path>
        </g>
    </g>
</svg>