<?xml version="1.0" encoding="UTF-8"?>
<svg width="200px" height="200px" viewBox="0 0 200 200" version="1.1" xmlns="http://www.w3.org/2000/svg" xmlns:xlink="http://www.w3.org/1999/xlink">
    <title>Untitled</title>
    <g id="Page-1" stroke="none" stroke-width="1" fill="none" fill-rule="evenodd">
        <g id="Group">
            <g id="bg-header-mobile" fill="#5BA4A4">
                <circle id="Oval" cx="100" cy="100" r="100"></circle>
            </g>
            <g id="iconfinder-icon-(8)" transform="translate(42.000000, 42.000000)" fill="#FFFFFF" fill-rule="nonzero">
                <g id="Layer-1">
                    <path d="M113.85,48.8 L61.35,1.3 C59.4469045,-0.417592679 56.5530955,-0.417592679 54.65,1.3 L2.15,48.8 C0.0789322737,50.6501539 -0.100153781,53.8289321 1.7500001,55.8999999 C3.60015397,57.9710677 6.77893218,58.1501538 8.85,56.3 L58,11.75 L107.15,56.2 C109.221068,58.0570573 112.405442,57.8835676 114.2625,55.8124999 C116.119557,53.7414321 115.946068,50.5570575 113.875,48.7 L113.85,48.8 Z" id="svg_1"></path>
                    <path d="M103,62.5 C100.238576,62.5 98,64.7385763 98,67.5 L98,105 L78,105 L78,77.5 C78,74.7385763 75.7614237,72.5 73,72.5 L43,72.5 C40.2385763,72.5 38,74.7385763 38,77.5 L38,105 L18,105 L18,67.5 C18,64.7385763 15.7614237,62.5 13,62.5 C10.2385763,62.5 8,64.7385763 8,67.5 L8,110 C8,112.761424 10.2385763,115 13,115 L103,115 C105.761424,115 108,112.761424 108,110 L108,67.5 C108,64.7385763 105.761424,62.5 103,62.5 Z M48,105 L48,82.5 L68,82.5 L68,105 L48,105 Z" id="svg_2"></path>
                </g>
            </g>
        </g>
    </g>
</svg>