<?xml version="1.0" encoding="UTF-8"?>
<svg width="200px" height="200px" viewBox="0 0 200 200" version="1.1" xmlns="http://www.w3.org/2000/svg" xmlns:xlink="http://www.w3.org/1999/xlink">
    <title>Untitled</title>
    <g id="Page-1" stroke="none" stroke-width="1" fill="none" fill-rule="evenodd">
        <g id="Group-24">
            <path d="M100,200 C139.938993,200 174.409425,176.586302 190.434099,142.7361 C196.568679,129.777535 200,115.289482 200,100 C200,44.771525 155.228475,0 100,0 C44.771525,0 0,44.771525 0,100 C0,155.228475 44.771525,200 100,200 Z" id="Oval" fill="#5BA4A4"></path>
            <g id="iconfinder-icon-(30)" transform="translate(50.000000, 50.000000)" fill="#FFFFFF">
                <g id="Layer-1">
                    <path d="M35.2627854,40.1796804 L1.61712329,86.333105 C0.601369863,87.7228311 -2.84217094e-14,89.4239726 -2.84217094e-14,91.269863 C-2.84217094e-14,95.8538813 3.71324201,99.5666667 8.29680365,99.5666667 L91.2696347,99.5666667 C95.853653,99.5666667 99.5664384,95.8538813 99.5664384,91.269863 C99.5664384,89.4239726 98.9655251,87.7228311 97.9502283,86.333105 L64.3034247,40.1796804 L64.3034247,10.3712329 L65.3406393,10.3712329 C68.202968,10.3712329 70.5257991,8.04771689 70.5257991,5.18561644 C70.5257991,2.32351598 68.202968,-3.55271368e-14 65.3406393,-3.55271368e-14 L34.2255708,-3.55271368e-14 C31.3634703,-3.55271368e-14 29.0399543,2.32351598 29.0399543,5.18561644 C29.0399543,8.04794521 31.3634703,10.3712329 34.2255708,10.3712329 L35.2627854,10.3712329 L35.2627854,40.1796804 Z M45.6347032,10.3712329 L53.9319635,10.3712329 L53.9319635,41.4858447 L68.4525114,62.2289954 L31.1143836,62.2289954 L45.6347032,41.4858447 L45.6347032,10.3712329 Z" id="svg_1"></path>
                </g>
            </g>
        </g>
    </g>
</svg>