<?xml version="1.0" encoding="UTF-8"?>
<svg width="200px" height="200px" viewBox="0 0 200 200" version="1.1" xmlns="http://www.w3.org/2000/svg" xmlns:xlink="http://www.w3.org/1999/xlink">
    <title>Untitled</title>
    <g id="Page-1" stroke="none" stroke-width="1" fill="none" fill-rule="evenodd">
        <g id="Group-20">
            <path d="M100,200 C139.938993,200 174.409425,176.586302 190.434099,142.7361 C196.568679,129.777535 200,115.289482 200,100 C200,44.771525 155.228475,0 100,0 C44.771525,0 0,44.771525 0,100 C0,155.228475 44.771525,200 100,200 Z" id="Oval" fill="#5BA4A4"></path>
            <g id="iconfinder-icon-(25)" transform="translate(50.000000, 35.000000)" fill="#FFFFFF" fill-rule="nonzero">
                <g id="Layer-1">
                    <path d="M55.4017857,8.14732143 C55.3348214,11.1383929 52.9910714,13.4821429 50,13.5491071 C47.0089286,13.6160714 44.6651786,11.0491071 44.5982143,8.14732143 C44.53125,5.13392857 47.0982143,2.79017857 50,2.72321429 C52.9910714,2.65625 55.3348214,5.24553571 55.4017857,8.14732143 C55.4464286,9.86607143 58.125,9.86607143 58.0803571,8.14732143 C57.96875,3.68303571 54.4642857,0.15625 50,0.0669642857 C45.5357143,-0.0446428571 42.0089286,3.83928571 41.9196429,8.14732143 C41.8080357,12.6116071 45.6919643,16.1383929 50,16.2276786 C54.4642857,16.3392857 57.9910714,12.4553571 58.0803571,8.14732143 C58.125,6.40625 55.4464286,6.40625 55.4017857,8.14732143 Z" id="svg_5"></path>
                    <path d="M33.6830357,36.6741071 C38.8169643,39.1071429 44.3080357,40.5803571 50,40.6026786 C55.6696429,40.6473214 61.2276786,39.0848214 66.3169643,36.6741071 C66.71875,36.4732143 66.9866071,35.9598214 66.9866071,35.5133929 C66.8973214,26.2053571 59.3303571,18.6160714 50,18.5267857 C40.6696429,18.4375 33.1026786,26.3392857 33.0133929,35.5133929 C32.9910735,37.2321429 35.6696429,37.2321429 35.6919643,35.5133929 C35.7589286,27.65625 42.1428571,21.2723214 50,21.2053571 C57.8571429,21.1383929 64.2410714,27.7678571 64.3080357,35.5133929 C64.53125,35.1339286 64.7544643,34.7321429 64.9776786,34.3526786 C60.2678571,36.5848214 55.2232143,37.9017857 50,37.9241071 C44.7991071,37.9464286 39.6875,36.5625 35.0223214,34.3526786 C33.4821429,33.6160714 32.1205357,35.9375 33.6830357,36.6741071 L33.6830357,36.6741071 Z" id="svg_9"></path>
                    <path d="M48.6607143,46.4732143 C48.6607143,53.59375 48.6607143,60.7366071 48.6607143,67.8571429 C48.6607143,69.5758929 51.3392857,69.5758929 51.3392857,67.8571429 C51.3392857,60.7366071 51.3392857,53.59375 51.3392857,46.4732143 C51.3392857,44.7544643 48.6607143,44.7544643 48.6607143,46.4732143 L48.6607143,46.4732143 Z" id="svg_13"></path>
                    <path d="M49.0848214,68.7946429 C54.1294643,73.8392857 59.1741071,78.8839286 64.1964286,83.90625 C65.4241071,85.1339286 67.3214286,83.2366071 66.09375,82.0089286 C61.0491071,76.9642857 56.0044643,71.9196429 50.9821429,66.8973214 C49.7544643,65.6919643 47.8571429,67.5892857 49.0848214,68.7946429 L49.0848214,68.7946429 L49.0848214,68.7946429 Z" id="svg_16"></path>
                    <path d="M49.0178571,66.9196429 C43.9732143,71.9642857 38.9285714,77.0089286 33.90625,82.03125 C32.6785714,83.2589286 34.5758929,85.15625 35.8035714,83.9285714 C40.8482143,78.8839286 45.8928571,73.8392857 50.9151786,68.8169643 C52.1428571,67.5892857 50.2455357,65.6919643 49.0178571,66.9196429 L49.0178571,66.9196429 L49.0178571,66.9196429 Z" id="svg_19"></path>
                    <path d="M88.3035714,76.8526786 C88.2366071,79.84375 85.8928571,82.1875 82.9017857,82.2544643 C79.9107143,82.3214286 77.5669643,79.7544643 77.5,76.8526786 C77.4330357,73.8616071 80,71.5178571 82.9017857,71.4508929 C85.8928571,71.3839286 88.2366071,73.9508929 88.3035714,76.8526786 C88.3482143,78.5714286 91.0267857,78.5714286 90.9821429,76.8526786 C90.8705357,72.3883929 87.3660714,68.8616071 82.9017857,68.7723214 C78.4375,68.6607143 74.9107143,72.5446429 74.8214286,76.8526786 C74.7098214,81.3169643 78.59375,84.84375 82.9017857,84.9330357 C87.3660714,85.0446429 90.8928571,81.1607143 90.9821429,76.8526786 C91.0267857,75.1339286 88.3482143,75.1339286 88.3035714,76.8526786 Z" id="svg_24"></path>
                    <path d="M66.5848214,105.379464 C71.71875,107.8125 77.2098214,109.285714 82.9017857,109.308036 C88.5714286,109.352679 94.1294643,107.790179 99.21875,105.379464 C99.6205357,105.178571 99.8883929,104.665179 99.8883929,104.21875 C99.7991071,94.9107143 92.2321429,87.3214286 82.9017857,87.2321429 C73.5714286,87.1428571 66.0044643,95.0446429 65.9151786,104.21875 C65.8928592,105.9375 68.5714286,105.9375 68.59375,104.21875 C68.6607143,96.3616071 75.0446429,89.9776786 82.9017857,89.9107143 C90.7589286,89.84375 97.1428571,96.4732143 97.2098214,104.21875 C97.4330357,103.839286 97.65625,103.4375 97.8794643,103.058036 C93.1696429,105.290179 88.125,106.607143 82.9017857,106.629464 C77.7008929,106.651786 72.5892857,105.267857 67.9241071,103.058036 C66.3839286,102.34375 65.0223214,104.642857 66.5848214,105.379464 L66.5848214,105.379464 Z" id="svg_28"></path>
                    <path d="M22.5,76.3839286 C22.4330357,79.375 20.0892857,81.71875 17.0982143,81.7857143 C14.1071429,81.8526786 11.7633929,79.2857143 11.6964286,76.3839286 C11.6294643,73.3928571 14.1964286,71.0491071 17.0982143,70.9821429 C20.0892857,70.9151786 22.4330357,73.4821429 22.5,76.3839286 C22.5446429,78.1026786 25.2232143,78.1026786 25.1785714,76.3839286 C25.0669643,71.9196429 21.5625,68.3928571 17.0982143,68.3035714 C12.6339286,68.1919643 9.10714286,72.0758929 9.01785714,76.3839286 C8.90625,80.8482143 12.7901786,84.375 17.0982143,84.4642857 C21.5625,84.5758929 25.0892857,80.6919643 25.1785714,76.3839286 C25.2232143,74.6651786 22.5446429,74.6651786 22.5,76.3839286 Z" id="svg_32"></path>
                    <path d="M0.78125,104.933036 C5.91517857,107.366071 11.40625,108.839286 17.0982143,108.861607 C22.7678571,108.90625 28.3258929,107.34375 33.4151786,104.933036 C33.8169643,104.732143 34.0848214,104.21875 34.0848214,103.772321 C33.9955357,94.4642857 26.4285714,86.875 17.0982143,86.7857143 C7.76785714,86.6964286 0.200892857,94.5982143 0.111607143,103.772321 C0.0892877821,105.491071 2.76785714,105.491071 2.79017857,103.772321 C2.85714286,95.9151786 9.24107143,89.53125 17.0982143,89.4642857 C24.9553571,89.3973214 31.3392857,96.0267857 31.40625,103.772321 C31.6294643,103.392857 31.8526786,102.991071 32.0758929,102.611607 C27.3660714,104.84375 22.3214286,106.160714 17.0982143,106.183036 C11.8973214,106.205357 6.78571429,104.821429 2.12053571,102.611607 C0.580357143,101.875 -0.78125,104.196429 0.78125,104.933036 L0.78125,104.933036 Z" id="svg_36"></path>
                </g>
            </g>
        </g>
        <g id="Group-19" transform="translate(164.000000, -193.000000)" fill="#5BA4A4">
            <path d="M100,200 C139.938993,200 174.409425,176.586302 190.434099,142.7361 C196.568679,129.777535 200,115.289482 200,100 C200,44.771525 155.228475,0 100,0 C44.771525,0 0,44.771525 0,100 C0,155.228475 44.771525,200 100,200 Z" id="Oval"></path>
        </g>
    </g>
</svg>