<?xml version="1.0" encoding="UTF-8"?>
<svg width="200px" height="200px" viewBox="0 0 200 200" version="1.1" xmlns="http://www.w3.org/2000/svg" xmlns:xlink="http://www.w3.org/1999/xlink">
    <title>Untitled</title>
    <g id="Page-1" stroke="none" stroke-width="1" fill="none" fill-rule="evenodd">
        <g id="Group">
            <g id="bg-header-mobile" fill="#5BA4A4">
                <circle id="Oval" cx="100" cy="100" r="100"></circle>
            </g>
            <g id="iconfinder-icon-(29)" transform="translate(25.000000, 33.000000)">
                <g id="background">
                    <rect id="canvas_background" x="0" y="0" width="150" height="103.608247"></rect>
                </g>
                <g id="Layer-1" transform="translate(3.608247, 19.845361)" fill="#FFFFFF" fill-rule="nonzero">
                    <path d="M113.690722,47.628866 L73.1237113,47.628866 C72.1262887,47.628866 71.3195876,46.8221649 71.3195876,45.8247423 L71.3195876,23.2474227 C71.3195876,22.7551546 71.5206186,22.2860825 71.8762887,21.9458763 L84.5180412,9.83247423 C84.8530928,9.51030928 85.3015464,9.32989691 85.7654639,9.32989691 L113.690722,9.32989691 C114.688144,9.32989691 115.494845,10.1365979 115.494845,11.1340206 L115.494845,16.9845361 C115.494845,17.9819588 114.688144,18.7886598 113.690722,18.7886598 C112.693299,18.7886598 111.886598,17.9819588 111.886598,16.9845361 L111.886598,12.9381443 L86.4896907,12.9381443 L74.9252577,24.0180412 L74.9252577,44.0206186 L111.884021,44.0206186 L111.884021,29.9381443 C111.884021,28.9407216 112.690722,28.1340206 113.688144,28.1340206 C114.685567,28.1340206 115.492268,28.9407216 115.492268,29.9381443 L115.492268,45.8247423 C115.494845,46.8195876 114.688144,47.628866 113.690722,47.628866 Z" id="svg_4"></path>
                    <path d="M113.690722,24.5850515 C113.574742,24.5850515 113.456186,24.5721649 113.337629,24.5489691 C113.224227,24.5257732 113.110825,24.4896907 113,24.4458763 C112.891753,24.4020619 112.78866,24.3453608 112.690722,24.2809278 C112.590206,24.2139175 112.497423,24.1391753 112.414948,24.056701 C112.332474,23.9716495 112.257732,23.8814433 112.190722,23.7809278 C112.126289,23.6829897 112.069588,23.5798969 112.025773,23.4690722 C111.979381,23.3608247 111.945876,23.2474227 111.92268,23.1340206 C111.899485,23.0154639 111.886598,22.8969072 111.886598,22.7809278 C111.886598,22.6623711 111.899485,22.5438144 111.92268,22.4278351 C111.945876,22.3118557 111.979381,22.1984536 112.025773,22.0902062 C112.069588,21.9819588 112.126289,21.8762887 112.190722,21.7783505 C112.257732,21.6804124 112.332474,21.5876289 112.414948,21.5051546 C112.752577,21.1675258 113.216495,20.9742268 113.690722,20.9742268 C114.164948,20.9742268 114.631443,21.1675258 114.966495,21.5051546 C115.048969,21.5876289 115.126289,21.6804124 115.190722,21.7783505 C115.255155,21.8762887 115.311856,21.9819588 115.358247,22.0902062 C115.402062,22.1984536 115.438144,22.3118557 115.458763,22.4278351 C115.484536,22.5438144 115.494845,22.6623711 115.494845,22.7809278 C115.494845,22.8969072 115.484536,23.0154639 115.458763,23.1340206 C115.438144,23.2474227 115.402062,23.3608247 115.358247,23.4690722 C115.311856,23.5798969 115.255155,23.6829897 115.190722,23.7809278 C115.126289,23.8814433 115.048969,23.9716495 114.966495,24.056701 C114.631443,24.3917526 114.167526,24.5850515 113.690722,24.5850515 L113.690722,24.5850515 Z" id="svg_6"></path>
                    <path d="M104.384021,40.2963918 L82.4304124,40.2963918 C81.4329897,40.2963918 80.6262887,39.4896907 80.6262887,38.492268 L80.6262887,27.2216495 C80.6262887,26.7293814 80.8273196,26.2603093 81.1829897,25.9201031 L88.257732,19.1417526 C88.5927835,18.8195876 89.0412371,18.6391753 89.5051546,18.6391753 L104.384021,18.6391753 C105.381443,18.6391753 106.188144,19.4458763 106.188144,20.443299 L106.188144,38.492268 C106.188144,39.4871134 105.381443,40.2963918 104.384021,40.2963918 Z M84.2345361,36.6881443 L102.579897,36.6881443 L102.579897,22.2474227 L90.2319588,22.2474227 L84.2371134,27.992268 L84.2371134,36.6881443 L84.2345361,36.6881443 L84.2345361,36.6881443 Z" id="svg_8"></path>
                    <path d="M59.9072165,92.5773196 C59.7912371,92.5773196 59.6726804,92.5670103 59.556701,92.5412371 C59.4407216,92.5206186 59.3273196,92.4845361 59.2190722,92.4407216 C59.1082474,92.3943299 59.0051546,92.3376289 58.9072165,92.2731959 C58.806701,92.2087629 58.7164948,92.1314433 58.6314433,92.0489691 C58.5489691,91.9664948 58.4742268,91.8737113 58.4072165,91.7757732 C58.3427835,91.6778351 58.2886598,91.5721649 58.242268,91.4639175 C58.1984536,91.3556701 58.1623711,91.242268 58.1391753,91.1262887 C58.1159794,91.0103093 58.1030928,90.8917526 58.1030928,90.7731959 C58.1030928,90.6572165 58.1159794,90.5386598 58.1391753,90.4201031 C58.1623711,90.306701 58.1984536,90.193299 58.242268,90.0850515 C58.2886598,89.9742268 58.3427835,89.871134 58.4072165,89.7731959 C58.4742268,89.6752577 58.5489691,89.5824742 58.6314433,89.4974227 C58.7164948,89.4149485 58.806701,89.3402062 58.9072165,89.2731959 C59.0051546,89.2087629 59.1082474,89.1520619 59.2190722,89.1082474 C59.3273196,89.0618557 59.4407216,89.0283505 59.556701,89.0051546 C60.1417526,88.8865979 60.7654639,89.0798969 61.1829897,89.4974227 C61.2680412,89.5824742 61.3427835,89.6752577 61.4072165,89.7731959 C61.4742268,89.871134 61.5283505,89.9742268 61.5747423,90.0850515 C61.6185567,90.193299 61.6546392,90.306701 61.6778351,90.4201031 C61.7010309,90.5386598 61.7113402,90.6572165 61.7113402,90.7731959 C61.7113402,90.8917526 61.7010309,91.0103093 61.6778351,91.1262887 C61.6546392,91.242268 61.6185567,91.3556701 61.5747423,91.4639175 C61.5283505,91.5721649 61.4742268,91.6778351 61.4072165,91.7757732 C61.3427835,91.8737113 61.2680412,91.9664948 61.1829897,92.0489691 C60.8479381,92.3840206 60.3840206,92.5773196 59.9072165,92.5773196 L59.9072165,92.5773196 Z" id="svg_10"></path>
                    <path d="M113.221649,92.5773196 L66.2912371,92.5773196 C65.2938144,92.5773196 64.4871134,91.7706186 64.4871134,90.7731959 C64.4871134,89.7757732 65.2938144,88.9690722 66.2912371,88.9690722 L113.221649,88.9690722 C117.824742,88.9690722 121.572165,85.2242268 121.572165,80.6185567 L121.572165,79.4793814 C121.572165,74.8762887 117.82732,71.128866 113.221649,71.128866 L38.806701,71.128866 C34.2036082,71.128866 30.4561856,74.8737113 30.4561856,79.4793814 L30.4561856,80.6185567 C30.4561856,85.2216495 34.2010309,88.9690722 38.806701,88.9690722 L54.3659794,88.9690722 C55.3634021,88.9690722 56.1701031,89.7757732 56.1701031,90.7731959 C56.1701031,91.7706186 55.3634021,92.5773196 54.3659794,92.5773196 L38.806701,92.5773196 C32.2139175,92.5773196 26.8479381,87.2139175 26.8479381,80.6185567 L26.8479381,79.4793814 C26.8479381,72.8865979 32.2113402,67.5206186 38.806701,67.5206186 L113.221649,67.5206186 C119.814433,67.5206186 125.180412,72.8840206 125.180412,79.4793814 L125.180412,80.6185567 C125.180412,87.2139175 119.81701,92.5773196 113.221649,92.5773196 Z" id="svg_12"></path>
                    <path d="M113.693299,61.6984536 L34.3943299,61.6984536 C33.3969072,61.6984536 32.5902062,60.8917526 32.5902062,59.8943299 L32.5902062,53.378866 C32.5902062,52.8943299 32.7835052,52.4304124 33.128866,52.0927835 L40.8170103,44.5386598 C41.1546392,44.2061856 41.6082474,44.0206186 42.0824742,44.0206186 L113.693299,44.0206186 C114.690722,44.0206186 115.497423,44.8273196 115.497423,45.8247423 L115.497423,59.8943299 C115.497423,60.8891753 114.688144,61.6984536 113.693299,61.6984536 Z M36.1984536,58.0902062 L111.886598,58.0902062 L111.886598,47.628866 L42.8195876,47.628866 L36.1984536,54.1340206 L36.1984536,58.0902062 Z" id="svg_14"></path>
                    <path d="M40.6752577,86.0180412 C37.3865979,86.0180412 34.7087629,83.3427835 34.7087629,80.0515464 C34.7087629,76.7603093 37.3840206,74.0850515 40.6752577,74.0850515 C43.9664948,74.0850515 46.6417526,76.7603093 46.6417526,80.0515464 C46.6417526,83.3427835 43.9639175,86.0180412 40.6752577,86.0180412 Z M40.6752577,77.693299 C39.3762887,77.693299 38.3170103,78.75 38.3170103,80.0515464 C38.3170103,81.3530928 39.3737113,82.4097938 40.6752577,82.4097938 C41.9768041,82.4097938 43.0335052,81.3530928 43.0335052,80.0515464 C43.0335052,78.75 41.9742268,77.693299 40.6752577,77.693299 Z" id="svg_17"></path>
                    <path d="M58.3453608,86.0180412 C55.056701,86.0180412 52.378866,83.3427835 52.378866,80.0515464 C52.378866,76.7603093 55.0541237,74.0850515 58.3453608,74.0850515 C61.6365979,74.0850515 64.3118557,76.7603093 64.3118557,80.0515464 C64.3118557,83.3427835 61.6340206,86.0180412 58.3453608,86.0180412 L58.3453608,86.0180412 Z M58.3453608,77.693299 C57.0463918,77.693299 55.9871134,78.75 55.9871134,80.0515464 C55.9871134,81.3530928 57.0438144,82.4097938 58.3453608,82.4097938 C59.6469072,82.4097938 60.7036082,81.3530928 60.7036082,80.0515464 C60.7036082,78.75 59.6443299,77.693299 58.3453608,77.693299 Z" id="svg_19"></path>
                    <path d="M76.0154639,86.0180412 C72.7268041,86.0180412 70.0489691,83.3427835 70.0489691,80.0515464 C70.0489691,76.7603093 72.7242268,74.0850515 76.0154639,74.0850515 C79.306701,74.0850515 81.9819588,76.7603093 81.9819588,80.0515464 C81.9819588,83.3427835 79.3041237,86.0180412 76.0154639,86.0180412 Z M76.0154639,77.693299 C74.7164948,77.693299 73.6572165,78.75 73.6572165,80.0515464 C73.6572165,81.3530928 74.7139175,82.4097938 76.0154639,82.4097938 C77.3170103,82.4097938 78.3737113,81.3530928 78.3737113,80.0515464 C78.3737113,78.75 77.314433,77.693299 76.0154639,77.693299 Z" id="svg_21"></path>
                    <path d="M93.685567,86.0180412 C90.3969072,86.0180412 87.7190722,83.3427835 87.7190722,80.0515464 C87.7190722,76.7603093 90.3943299,74.0850515 93.685567,74.0850515 C96.9768041,74.0850515 99.6520619,76.7603093 99.6520619,80.0515464 C99.6520619,83.3427835 96.9742268,86.0180412 93.685567,86.0180412 Z M93.685567,77.693299 C92.3865979,77.693299 91.3273196,78.75 91.3273196,80.0515464 C91.3273196,81.3530928 92.3840206,82.4097938 93.685567,82.4097938 C94.9871134,82.4097938 96.0438144,81.3530928 96.0438144,80.0515464 C96.0438144,78.75 94.9845361,77.693299 93.685567,77.693299 Z" id="svg_23"></path>
                    <path d="M111.35567,86.0180412 C108.06701,86.0180412 105.389175,83.3427835 105.389175,80.0515464 C105.389175,76.7603093 108.064433,74.0850515 111.35567,74.0850515 C114.646907,74.0850515 117.322165,76.7603093 117.322165,80.0515464 C117.322165,83.3427835 114.64433,86.0180412 111.35567,86.0180412 Z M111.35567,77.693299 C110.056701,77.693299 108.997423,78.75 108.997423,80.0515464 C108.997423,81.3530928 110.054124,82.4097938 111.35567,82.4097938 C112.657216,82.4097938 113.713918,81.3530928 113.713918,80.0515464 C113.713918,78.75 112.654639,77.693299 111.35567,77.693299 Z" id="svg_25"></path>
                    <path d="M67.3479381,47.628866 L50.0979381,47.628866 C49.1005155,47.628866 48.2938144,46.8221649 48.2938144,45.8247423 C48.2938144,44.8273196 49.1005155,44.0206186 50.0979381,44.0206186 L63.4690722,44.0206186 L30.3608247,4.74226804 L8.45103093,28.6675258 L11.5257732,30.2268041 L27.5773196,14.1726804 C27.9536082,13.7963918 28.4793814,13.6056701 29.0103093,13.6520619 C29.5412371,13.6984536 30.0257732,13.9793814 30.3298969,14.4149485 L45.3737113,35.9226804 C45.9458763,36.7396907 45.7448454,37.8634021 44.9304124,38.435567 C44.1134021,39.007732 42.9896907,38.8092784 42.4175258,37.992268 L28.6082474,18.2474227 L13.1520619,33.7061856 C12.6005155,34.257732 11.757732,34.3917526 11.0592784,34.0386598 L4.69845361,30.814433 C4.19587629,30.5592784 3.84020619,30.0824742 3.73969072,29.5283505 C3.63917526,28.9742268 3.80412371,28.4020619 4.18298969,27.9871134 L29.0850515,0.793814433 C29.435567,0.412371134 29.9407216,0.190721649 30.4536082,0.208762887 C30.9716495,0.219072165 31.4613402,0.453608247 31.7963918,0.850515464 L68.7268041,44.6649485 C69.1778351,45.2010309 69.2783505,45.9510309 68.9845361,46.5876289 C68.6881443,47.2216495 68.0515464,47.628866 67.3479381,47.628866 L67.3479381,47.628866 Z" id="svg_27"></path>
                    <path d="M16.443299,52.7654639 C16.2525773,52.7654639 16.0618557,52.7345361 15.8762887,52.6752577 L9.87886598,50.6907216 C2.40206186,48.2164948 -1.67010309,40.1185567 0.804123711,32.6417526 L1.18556701,31.4948454 C1.26546392,31.2551546 1.3943299,31.0335052 1.56701031,30.8479381 L4.18556701,27.9871134 C4.73195876,27.3891753 5.61082474,27.2293814 6.33247423,27.5953608 L12.693299,30.8195876 L33.3324742,41.2731959 C33.9407216,41.5798969 34.3221649,42.2036082 34.3221649,42.8840206 C34.3221649,43.564433 33.935567,44.1881443 33.3273196,44.492268 L17.2551546,52.5721649 C17,52.7010309 16.7216495,52.7654639 16.443299,52.7654639 L16.443299,52.7654639 Z M4.4871134,32.9974227 L4.22680412,33.7783505 C2.37886598,39.3634021 5.42268041,45.4149485 11.0103093,47.2654639 L16.2989691,49.0154639 L28.507732,42.878866 L5.91752577,31.4329897 L4.4871134,32.9974227 L4.4871134,32.9974227 Z" id="svg_29"></path>
                </g>
            </g>
        </g>
    </g>
</svg>