<?xml version="1.0" encoding="UTF-8"?>
<svg width="200px" height="200px" viewBox="0 0 200 200" version="1.1" xmlns="http://www.w3.org/2000/svg" xmlns:xlink="http://www.w3.org/1999/xlink">
    <title>Untitled</title>
    <g id="Page-1" stroke="none" stroke-width="1" fill="none" fill-rule="evenodd">
        <g id="Group-21">
            <path d="M100,200 C139.938993,200 174.409425,176.586302 190.434099,142.7361 C196.568679,129.777535 200,115.289482 200,100 C200,44.771525 155.228475,0 100,0 C44.771525,0 0,44.771525 0,100 C0,155.228475 44.771525,200 100,200 Z" id="Oval" fill="#5BA4A4"></path>
            <g id="iconfinder-icon-(26)" transform="translate(30.000000, 29.000000)" fill="#FFFFFF" fill-rule="nonzero">
                <g id="Layer-1">
                    <path d="M140.488,88.613 L140.488,86.09 L78.213,44.375 L78.213,76.15 C78.209,76.056 78.204,75.962 78.201,75.867 L78.201,19.195 C78.201,12.271 76.055,5.976 72.547,1.24 C72.157,0.514 71.219,9.1038288e-15 70.121,9.1038288e-15 C69.024,9.1038288e-15 68.085,0.516 67.695,1.239 C64.189,5.975 62.041,12.27 62.041,19.194 C62.041,20.116 62.086,21.024 62.16,21.923 L62.16,44.452 L0,86.09 L0,88.612 L61.975,80.27 C61.949,81.682 61.936,83.104 61.936,84.537 C61.936,95.647 62.716,106.162 64.115,115.532 L50.925,133.53 L50.925,134.864 L67.085,130.432 L67.085,130.405 C68.007,133.965 69.034,137.225 70.151,140.137 C71.265,137.235 72.287,133.987 73.206,130.444 L89.322,134.864 L89.322,133.53 L76.176,115.592 C77.578,106.203 78.365,95.668 78.365,84.533 C78.365,83.095 78.351,81.662 78.325,80.242 L140.488,88.613 Z" id="svg_1"></path>
                </g>
            </g>
        </g>
    </g>
</svg>