<?xml version="1.0" encoding="UTF-8"?>
<svg width="200px" height="200px" viewBox="0 0 200 200" version="1.1" xmlns="http://www.w3.org/2000/svg" xmlns:xlink="http://www.w3.org/1999/xlink">
    <title>Untitled</title>
    <g id="Page-1" stroke="none" stroke-width="1" fill="none" fill-rule="evenodd">
        <g id="Group-29">
            <path d="M100,200 C139.938993,200 174.409425,176.586302 190.434099,142.7361 C196.568679,129.777535 200,115.289482 200,100 C200,44.771525 155.228475,0 100,0 C44.771525,0 0,44.771525 0,100 C0,155.228475 44.771525,200 100,200 Z" id="Oval" fill="#5BA4A4"></path>
            <g id="iconfinder-icon-(35)" transform="translate(50.000000, 50.000000)" fill="#FFFFFF" fill-rule="nonzero">
                <g id="Layer-1">
                    <path d="M69.4666667,53.3333333 L30.5333333,53.3333333 C17.3597499,53.3516938 6.68502709,64.0264166 6.66666667,77.2 L6.66666667,93.3333333 L93.3333333,93.3333333 L93.3333333,77.2 C93.3149729,64.0264166 82.6402501,53.3516938 69.4666667,53.3333333 Z" id="svg_1"></path>
                    <path d="M69.4666667,46.6666667 L30.5333333,46.6666667 C13.6778544,46.6850378 0.0183711106,60.3445211 4.4408921e-15,77.2 L4.4408921e-15,96.6666667 C4.4408921e-15,98.5076158 1.49238417,100 3.33333333,100 L96.6666667,100 C98.5076158,100 100,98.5076158 100,96.6666667 L100,77.2 C99.9816289,60.3445211 86.3221456,46.6850378 69.4666667,46.6666667 L69.4666667,46.6666667 Z M93.3333333,93.3333333 L6.66666667,93.3333333 L6.66666667,77.2 C6.68502709,64.0264166 17.3597499,53.3516938 30.5333333,53.3333333 L69.4666667,53.3333333 C82.6402501,53.3516938 93.3149729,64.0264166 93.3333333,77.2 L93.3333333,93.3333333 Z" id="svg_2"></path>
                    <path d="M50,53.3333333 C35.2724067,53.3333333 23.3333333,41.39426 23.3333333,26.6666667 C23.3333333,11.9390733 35.2724067,0 50,0 C64.7275933,0 76.6666667,11.9390733 76.6666667,26.6666667 C76.6666667,33.7391064 73.8571509,40.5218774 68.8561808,45.5228475 C63.8552107,50.5238176 57.0724397,53.3333333 50,53.3333333 Z M50,6.66666667 C38.954305,6.66666667 30,15.6209717 30,26.6666667 C30,37.7123617 38.954305,46.6666667 50,46.6666667 C61.045695,46.6666667 70,37.7123617 70,26.6666667 C70,15.6209717 61.045695,6.66666667 50,6.66666667 Z" id="svg_3"></path>
                </g>
            </g>
        </g>
    </g>
</svg>