<?xml version="1.0" encoding="UTF-8"?>
<svg width="200px" height="200px" viewBox="0 0 200 200" version="1.1" xmlns="http://www.w3.org/2000/svg" xmlns:xlink="http://www.w3.org/1999/xlink">
    <title>Untitled</title>
    <g id="Page-1" stroke="none" stroke-width="1" fill="none" fill-rule="evenodd">
        <g id="Group-2">
            <path d="M100,200 C139.938993,200 174.409425,176.586302 190.434099,142.7361 C196.568679,129.777535 200,115.289482 200,100 C200,44.771525 155.228475,0 100,0 C44.771525,0 0,44.771525 0,100 C0,155.228475 44.771525,200 100,200 Z" id="Oval" fill="#5BA4A4"></path>
            <g id="iconfinder-icon-(7)" transform="translate(32.000000, 43.000000)">
                <g id="background">
                    <rect id="canvas_background" x="0" y="0" width="102" height="102"></rect>
                </g>
                <g id="Layer-1" transform="translate(23.000000, 14.000000)" fill="#F7F7F7" fill-rule="nonzero">
                    <path d="M94.825,34.79375 L91.96875,34.79375 C90.3375,34.79375 88.11875,34.79375 85.6291667,34.79375 C76.25,34.79375 62.7416667,34.79375 59.4583333,34.79375 C54.3020833,34.79375 51.6833333,36.5166667 51.6833333,36.5166667 L24.375,57.0375 C24.2520833,57.1333333 24.0895833,57.3291667 23.91875,57.5625 C22.9083333,58.46875 22.2416667,59.74375 22.2416667,61.20625 C22.2416667,63.93125 24.4520833,66.1395833 27.1770833,66.1395833 C28.3020833,66.1395833 29.2770833,65.6875 30.10625,65.05 L30.10625,65.1604167 L31.7020833,64.0416667 C35.3645833,61.6729167 50.2354167,52.0520833 51.5020833,51.3145833 C52.9520833,50.4770833 54.9979167,50.5895833 56.5645833,52.7625 C58.3708333,56.3770833 53.79375,59.0270833 53.79375,59.0270833 L37.8416667,69.4375 C34.725,71.46875 31.9729167,71.8729167 30.6,71.94375 L8.10208333,72.0416667 C7.73958333,72.0416667 7.39791667,72.0604167 7.05,72.075 L5.325,72.075 C5.27708333,72.075 5.23541667,72.0458333 5.18333333,72.0458333 C3.48333333,72.0458333 2.05833333,72.9708333 1.18125,74.2895833 C1.14375,74.3458333 1.10416667,74.4 1.06666667,74.4604167 C0.622916667,75.1958333 0.3,76.0083333 0.3,76.9291667 C0.3,79.625 2.48541667,81.8125 5.18333333,81.8125 L5.1875,81.8125 L5.81666667,81.8125 L13.1958333,81.8125 L42.0145833,81.8125 C43.1958333,81.7979167 47.6645833,81.5604167 51.9270833,78.7541667 L76.1666667,62.7833333 C76.24375,62.73125 78.4854167,61.25 82.5708333,61.225 C84.7604167,61.20625 87.8270833,61.2 91.7291667,61.2541667 C91.7291667,61.2541667 91.7729167,61.2541667 91.7895833,61.2541667 C91.8375,61.2541667 91.8958333,61.2541667 91.9395833,61.2541667 C92.1354167,61.2541667 92.46875,61.2395833 92.8583333,61.1875 L94.8229167,61.1875 C97.5166667,61.1875 99.6979167,59.00625 99.6979167,56.3104167 L99.6979167,39.6729167 C99.6979167,36.9791667 97.51875,34.79375 94.825,34.79375 Z" id="svg_2"></path>
                    <path d="M1.9625,14.46875 C1.9625,14.46875 2.01458333,14.7541667 2.14375,15.25 L2.14375,15.26875 L2.14791667,15.26875 C2.97291667,18.5020833 7.13541667,31.20625 23.4625,42.4229167 L23.4708333,42.4708333 L25.0729167,43.5333333 L25.9958333,42.9229167 L26.0041667,42.8895833 C43.1625,31.38125 47.2875,18.1291667 48.0354167,15.1145833 L48.0395833,15.1 C48.1354167,14.6958333 48.1770833,14.4666667 48.1770833,14.4666667 L48.125,14.4520833 C48.2104167,13.6958333 48.30625,12.4 48.0354167,11.2604167 C48.03125,11.2270833 48.0020833,11.2354167 47.9916667,11.2041667 C47.09375,5.71875 42.3645833,1.52083333 36.625,1.52083333 C30.5041667,1.52083333 25.55,6.29375 25.15,12.3104167 L24.9979167,12.3104167 C24.59375,6.29375 19.6333333,1.52083333 13.51875,1.52083333 C7.54583333,1.52083333 2.6875,6.07083333 2.08125,11.8854167 C2.02916667,11.9145833 1.9875,11.9895833 1.9625,12.1333333 C1.8375,12.85625 1.925,13.7854167 2.01875,14.4520833 L1.9625,14.46875 Z" id="svg_3"></path>
                </g>
            </g>
        </g>
    </g>
</svg>