<?xml version="1.0" encoding="UTF-8"?>
<svg width="200px" height="200px" viewBox="0 0 200 200" version="1.1" xmlns="http://www.w3.org/2000/svg" xmlns:xlink="http://www.w3.org/1999/xlink">
    <title>Untitled</title>
    <g id="Page-1" stroke="none" stroke-width="1" fill="none" fill-rule="evenodd">
        <g id="Group-16">
            <path d="M100,200 C139.938993,200 174.409425,176.586302 190.434099,142.7361 C196.568679,129.777535 200,115.289482 200,100 C200,44.771525 155.228475,0 100,0 C44.771525,0 0,44.771525 0,100 C0,155.228475 44.771525,200 100,200 Z" id="Oval" fill="#5BA4A4"></path>
            <g id="iconfinder-icon-(21)" transform="translate(45.000000, 33.000000)" fill="#FFFFFF" fill-rule="nonzero">
                <g id="Layer-1">
                    <path d="M109.06383,46.106383 C108.829787,44.7606383 107.484043,43.7659574 106.138298,43.7659574 L104.090426,43.7659574 C102.510638,43.7659574 100.930851,43.7659574 99.2925532,43.7659574 C98.2393617,39.4946809 96.5425532,35.3989362 94.2021277,31.5957447 L94.8457447,30.9521277 C96.25,29.5478723 97.712766,28.0851064 99.1170213,26.6808511 C100.111702,25.6861702 100.228723,24.1648936 99.4095745,23.0531915 C95.8989362,18.1968085 91.6276596,13.9255319 86.7712766,10.4734043 C85.6595745,9.65425532 84.1382979,9.82978723 83.143617,10.8244681 C82.2659574,11.7021277 81.3882979,12.6382979 80.4521277,13.5159574 C79.75,14.2180851 78.9893617,14.9787234 78.2287234,15.7393617 C74.4255319,13.4574468 70.3297872,11.7606383 66,10.7074468 C66,10.1808511 66,9.71276596 66,9.18617021 L66,8.30851064 C66,8.19148936 66,8.07446809 66,7.95744681 L66,6.55319149 C66,5.67553191 66,4.79787234 66,3.80319149 C66,2.39893617 65.0053191,1.2287234 63.6595745,1.05319149 C57.75,0.117021277 52.1329787,0.117021277 46.2234043,1.05319149 C44.8191489,1.28723404 43.8244681,2.51595745 43.8829787,3.9787234 C43.8829787,4.85638298 43.8829787,5.73404255 43.8829787,6.61170213 L43.8829787,8.01595745 C43.8829787,8.13297872 43.8829787,8.25 43.8829787,8.36702128 L43.8829787,9.24468085 C43.8829787,9.7712766 43.8829787,10.2978723 43.8829787,10.7659574 C39.6117021,11.8191489 35.5159574,13.5159574 31.6542553,15.7978723 C30.893617,15.037234 30.1914894,14.3351064 29.4308511,13.5744681 C28.5531915,12.6968085 27.6170213,11.8191489 26.7393617,10.8829787 C25.8031915,9.88829787 24.2234043,9.7712766 23.1117021,10.5319149 C18.3138298,13.9255319 14.0425532,18.1968085 10.5319149,23.0531915 C9.71276596,24.1648936 9.88829787,25.7446809 10.8244681,26.6808511 C12.287234,28.0851064 13.6914894,29.5478723 15.0957447,30.9521277 L15.7393617,31.5957447 C13.4574468,35.3989362 11.7606383,39.4946809 10.6489362,43.7659574 C9.06914894,43.7659574 7.4893617,43.7659574 5.85106383,43.7659574 L3.62765957,43.7659574 C2.22340426,43.7659574 1.05319149,44.7606383 0.877659574,46.1648936 C0.409574468,49.2659574 0.175531915,52.1914894 0.175531915,55.0585106 C0.175531915,58.0425532 0.409574468,61.0265957 0.877659574,63.9521277 C1.11170213,65.2393617 2.28191489,66.2340426 3.56914894,66.2925532 C3.68617021,66.2925532 3.86170213,66.2925532 4.15425532,66.2925532 C5.55851064,66.2925532 6.90425532,66.2925532 8.30851064,66.2925532 C9.06914894,66.2925532 9.82978723,66.2925532 10.5904255,66.2925532 C11.7021277,70.6223404 13.3989362,74.7180851 15.7393617,78.5797872 C14.2765957,80.0425532 12.8138298,81.4468085 11.3510638,82.9680851 C11.1170213,83.2021277 10.8829787,83.4361702 10.7074468,83.6702128 C9.82978723,84.6648936 9.7712766,86.0691489 10.5319149,87.1223404 C14.0425532,91.9202128 18.2553191,96.1329787 23.1117021,99.5851064 C24.2234043,100.404255 25.9202128,100.111702 26.9148936,99.0585106 C27.8510638,98.0638298 28.8457447,97.1276596 29.7819149,96.1329787 C30.4255319,95.5478723 31.0106383,94.9042553 31.5957447,94.3191489 C32.1223404,94.6117021 32.6489362,94.962766 33.2340426,95.2553191 C34.5797872,96.0159574 36.2765957,95.4893617 37.037234,94.143617 C37.7978723,92.7978723 37.2712766,91.1010638 35.9255319,90.3404255 C34.6968085,89.6968085 33.643617,89.0531915 32.7659574,88.4095745 C31.712766,87.7074468 30.3085106,87.8244681 29.3723404,88.643617 L28.9042553,88.9946809 C28.8457447,89.0531915 28.787234,89.1117021 28.7287234,89.1702128 C27.7925532,90.1648936 26.7978723,91.1595745 25.8031915,92.1542553 C25.3351064,92.6223404 24.8670213,93.0904255 24.3989362,93.5585106 C21.4734043,91.2180851 18.7819149,88.5851064 16.5,85.6595745 C17.9042553,84.1968085 19.3670213,82.7925532 20.8882979,81.3297872 C21.1808511,81.037234 21.4734043,80.7446809 21.6489362,80.4521277 C22.2925532,79.5159574 22.2925532,78.287234 21.6489362,77.3510638 C18.6648936,72.9042553 16.6170213,67.9893617 15.6223404,62.8404255 C15.3882979,61.5531915 14.2180851,60.5585106 12.8723404,60.5585106 L12.5797872,60.5585106 C11.1755319,60.5585106 9.7712766,60.5585106 8.36702128,60.5585106 C7.60638298,60.5585106 6.84574468,60.5585106 6.14361702,60.5585106 C5.90957447,58.6861702 5.85106383,56.8138298 5.85106383,54.9414894 C5.85106383,53.0691489 5.96808511,51.1968085 6.20212766,49.2659574 C8.13297872,49.2659574 10.0638298,49.2659574 11.9361702,49.3244681 C12.5212766,49.3829787 13.1648936,49.3244681 13.75,49.1489362 C14.8031915,48.856383 15.5638298,48.037234 15.7393617,46.9840426 C16.7340426,41.893617 18.7234043,37.1542553 21.6489362,32.7659574 C22.2340426,31.8297872 22.2925532,30.6595745 21.7074468,29.7234043 C21.4148936,29.1968085 21.0053191,28.787234 20.537234,28.3776596 C20.537234,28.3776596 20.3617021,28.2021277 20.3617021,28.2021277 L19.1329787,26.9734043 C18.2553191,26.0957447 17.4361702,25.2180851 16.5585106,24.3989362 C18.8989362,21.4148936 21.5904255,18.7819149 24.5744681,16.4414894 C24.9255319,16.7925532 25.2180851,17.0851064 25.5691489,17.4361702 C26.6223404,18.4893617 27.6755319,19.4840426 28.6117021,20.4787234 C29.1968085,21.1223404 29.7819149,21.5319149 30.4840426,21.7659574 C31.3031915,22.0585106 32.2393617,21.9414894 33,21.4734043 C37.3882979,18.606383 42.1861702,16.6170213 47.2765957,15.6223404 C48.3297872,15.3882979 49.2074468,14.6276596 49.4414894,13.5159574 C49.5585106,13.106383 49.6170213,12.6968085 49.5585106,12.1117021 C49.5,11.1170213 49.5,10.1223404 49.5585106,9.06914894 L49.5585106,7.78191489 C49.5585106,7.66489362 49.5585106,7.54787234 49.5585106,7.43085106 L49.5585106,6.37765957 C49.5585106,6.2606383 49.5585106,6.14361702 49.5585106,5.96808511 C53.2446809,5.55851064 56.8138298,5.55851064 60.5,5.96808511 C60.5,6.08510638 60.5,6.20212766 60.5,6.37765957 L60.5,7.37234043 C60.5,7.4893617 60.5,7.60638298 60.5,7.72340426 L60.5,9.0106383 C60.5,10.0053191 60.5,11 60.4414894,12.1702128 C60.4414894,12.6382979 60.5,13.0478723 60.6170213,13.4574468 C60.8510638,14.5106383 61.7287234,15.3297872 62.7819149,15.5638298 C67.8723404,16.5585106 72.6702128,18.4893617 77.0585106,21.4148936 C77.8191489,21.8829787 78.6968085,22 79.5744681,21.7074468 C80.2180851,21.4734043 80.8617021,21.0638298 81.3882979,20.4787234 C82.3829787,19.4255319 83.4361702,18.3723404 84.4893617,17.3776596 C84.8404255,17.0265957 85.1329787,16.7340426 85.4840426,16.3829787 C88.4680851,18.7234043 91.1595745,21.4148936 93.5,24.3404255 C92.6223404,25.2180851 91.7446809,26.0957447 90.9255319,26.9148936 L89.6968085,28.143617 C89.6968085,28.143617 89.5212766,28.3191489 89.5212766,28.3191489 C89.0531915,28.787234 88.7021277,29.1968085 88.3510638,29.6648936 C87.7659574,30.6010638 87.8244681,31.7712766 88.4095745,32.7074468 C91.3351064,37.0957447 93.3244681,41.8351064 94.3191489,46.9255319 C94.5531915,47.9787234 95.3138298,48.7978723 96.3085106,49.0904255 C96.893617,49.2659574 97.4787234,49.3244681 98.0053191,49.2659574 C99.9361702,49.2074468 101.867021,49.2074468 103.797872,49.2074468 C104.031915,51.0797872 104.090426,53.0106383 104.090426,54.8829787 C104.090426,56.7553191 103.973404,58.6861702 103.797872,60.5 C103.037234,60.5 102.276596,60.5 101.574468,60.5 C100.170213,60.5 98.7659574,60.5 97.3617021,60.5 L97.0691489,60.5 C95.7234043,60.5 94.6117021,61.4361702 94.3191489,62.7819149 C93.2659574,67.9308511 91.2765957,72.787234 88.2925532,77.2925532 C87.6489362,78.2287234 87.6489362,79.4574468 88.2925532,80.393617 C88.4680851,80.6861702 88.7021277,80.9202128 89.0531915,81.2712766 C90.5159574,82.6755319 91.9202128,84.1382979 93.3829787,85.6010638 C91.0425532,88.5265957 88.4095745,91.1595745 85.4840426,93.5 C84.9574468,92.9734043 84.4308511,92.4468085 83.9042553,91.9202128 C82.9680851,90.9840426 82.0319149,90.106383 81.1542553,89.1702128 C81.0957447,89.1117021 81.037234,89.0531915 80.9787234,88.9946809 L80.4521277,88.5851064 C79.5159574,87.7659574 78.1117021,87.7074468 77.1170213,88.4095745 C76.1223404,89.1117021 75.0691489,89.6968085 73.9574468,90.2819149 C72.6117021,91.0425532 72.0851064,92.7393617 72.8457447,94.0851064 C73.606383,95.4308511 75.3031915,95.9574468 76.6489362,95.1968085 C77.2340426,94.9042553 77.7606383,94.5531915 78.3457447,94.2606383 C78.8723404,94.787234 79.4574468,95.3723404 79.9840426,95.8989362 C81.037234,96.9521277 82.0319149,97.9468085 83.0265957,99 C83.2021277,99.1755319 83.4946809,99.4680851 83.6702128,99.5851064 C84.1382979,99.8776596 84.6648936,100.053191 85.25,100.053191 C85.8351064,100.053191 86.4202128,99.8776596 86.8882979,99.5265957 C91.7446809,96.0744681 95.9574468,91.8617021 99.4095745,87.0638298 C100.170213,86.0106383 100.111702,84.5478723 99.2340426,83.6117021 C99.0585106,83.3776596 98.8244681,83.143617 98.5319149,82.8510638 C97.0691489,81.3882979 95.6648936,79.9255319 94.2021277,78.5212766 C96.5425532,74.6595745 98.2393617,70.5053191 99.3510638,66.2340426 C100.111702,66.2340426 100.87234,66.2340426 101.632979,66.2340426 C103.037234,66.2340426 104.382979,66.2340426 105.787234,66.2340426 C106.021277,66.2340426 106.255319,66.2340426 106.31383,66.2340426 C107.659574,66.2340426 108.829787,65.2393617 109.06383,63.893617 C109.531915,60.9680851 109.765957,57.9840426 109.765957,55 C109.765957,52.0159574 109.531915,49.0319149 109.06383,46.106383 L109.06383,46.106383 Z" id="svg_2"></path>
                    <path d="M67.9893617,73.9574468 C67.9893617,73.2553191 67.8138298,72.4946809 67.462766,71.8510638 L59.037234,55.9361702 C58.8031915,55.5265957 58.5106383,55.1170213 58.2765957,54.9414894 C57.3989362,54.0638298 56.2287234,53.537234 55.1170213,53.5957447 C53.8297872,53.537234 52.6595745,54.0638298 51.9574468,54.8244681 C51.606383,55.1755319 51.3138298,55.5265957 51.0797872,55.9946809 L42.6542553,71.9095745 C42.3031915,72.5531915 42.1276596,73.2553191 42.1276596,74.0159574 L41.893617,132.819149 C41.8351064,138.026596 45.9308511,142.297872 51.1382979,142.473404 L55.1755319,142.590426 L59.037234,142.473404 C64.2446809,142.297872 68.2819149,138.085106 68.2819149,132.819149 L67.9893617,73.9574468 L67.9893617,73.9574468 Z M55,60.3244681 L61.0851064,71.7925532 L48.9734043,71.7925532 L55,60.3244681 L55,60.3244681 Z M58.7446809,136.797872 L55.0585106,136.914894 L51.1968085,136.797872 C49.0319149,136.739362 47.3351064,134.984043 47.3351064,132.760638 L47.5691489,77.3510638 L62.3138298,77.3510638 L62.5478723,132.760638 C62.606383,134.925532 60.9095745,136.680851 58.7446809,136.797872 Z" id="svg_3"></path>
                </g>
            </g>
        </g>
        <g id="Group-14" transform="translate(-118.000000, -192.000000)" fill="#5BA4A4">
            <path d="M100,200 C139.938993,200 174.409425,176.586302 190.434099,142.7361 C196.568679,129.777535 200,115.289482 200,100 C200,44.771525 155.228475,0 100,0 C44.771525,0 0,44.771525 0,100 C0,155.228475 44.771525,200 100,200 Z" id="Oval"></path>
        </g>
    </g>
</svg>