<?xml version="1.0" encoding="UTF-8"?>
<svg width="200px" height="200px" viewBox="0 0 200 200" version="1.1" xmlns="http://www.w3.org/2000/svg" xmlns:xlink="http://www.w3.org/1999/xlink">
    <title>Untitled</title>
    <g id="Page-1" stroke="none" stroke-width="1" fill="none" fill-rule="evenodd">
        <g id="Group-15">
            <path d="M100,200 C139.938993,200 174.409425,176.586302 190.434099,142.7361 C196.568679,129.777535 200,115.289482 200,100 C200,44.771525 155.228475,0 100,0 C44.771525,0 0,44.771525 0,100 C0,155.228475 44.771525,200 100,200 Z" id="Oval" fill="#5BA4A4"></path>
            <g id="iconfinder-icon-(20)" transform="translate(39.000000, 30.000000)" fill="#FFFFFF" fill-rule="nonzero">
                <g id="Layer-1">
                    <path d="M58,127.999996 L10,127.999996 C8.94426927,128.002232 8.06862029,127.183501 8,126.13 L4,62.13 C3.96400528,61.5774252 4.15871889,61.0346578 4.5377636,60.6309752 C4.9168083,60.2272926 5.44625533,59.9988289 6,59.9999955 L62,59.9999955 C62.5537447,59.9988289 63.0831917,60.2272926 63.4622364,60.6309752 C63.8412811,61.0346578 64.0359947,61.5774252 64,62.13 L60,126.13 C59.9313797,127.183501 59.0557307,128.002232 58,127.999996 Z M11.88,124 L56.12,124 L59.87,64 L8.13,64 L11.88,124 Z" id="svg_1"></path>
                    <path d="M66,64 L2,64 C0.8954305,64 0,63.1045695 0,62 C0,60.8954305 0.8954305,60 2,60 L66,60 C67.1045695,60 68,60.8954305 68,62 C68,63.1045695 67.1045695,64 66,64 Z" id="svg_2"></path>
                    <path d="M60,83.59 C56.6563473,83.6665426 53.3453691,82.9177944 50.36,81.41 C47.8885054,80.1410855 45.1371981,79.515163 42.36,79.59 C39.5825461,79.512565 36.8306013,80.1386325 34.36,81.41 C31.3729605,82.9131415 28.0631586,83.6616237 24.72,83.59 C21.3768414,83.6616237 18.0670395,82.9131415 15.08,81.41 C12.6085054,80.1410855 9.85719805,79.515163 7.08,79.59 C5.9754305,79.59 5.08,78.6945695 5.08,77.59 C5.08,76.4854305 5.9754305,75.59 7.08,75.59 C10.4231586,75.5183763 13.7329605,76.2668585 16.72,77.77 C19.1887904,79.0463293 21.9420323,79.6726918 24.72,79.59 C27.4977104,79.6700532 30.2503001,79.043839 32.72,77.77 C35.7070395,76.2668585 39.0168414,75.5183763 42.36,75.59 C45.7031586,75.5183763 49.0129605,76.2668585 52,77.77 C54.4696999,79.043839 57.2222896,79.6700532 60,79.59 C61.1045695,79.59 62,80.4854305 62,81.59 C62,82.6945695 61.1045695,83.59 60,83.59 L60,83.59 Z" id="svg_3"></path>
                    <path d="M94,73 L82,73 C80.8954305,73 80,72.1045695 80,71 L80,8 C80,3.581722 83.581722,0 88,0 C92.418278,0 96,3.581722 96,8 L96,71 C96,72.1045695 95.1045695,73 94,73 Z M84,69 L92,69 L92,8 C92,5.790861 90.209139,4 88,4 C85.790861,4 84,5.790861 84,8 L84,69 Z" id="svg_4"></path>
                    <path d="M79,93 C77.8954305,93 77,92.1045695 77,91 L77,71 C77,69.8954305 77.8954305,69 79,69 L97,69 C98.1045695,69 99,69.8954305 99,71 L99,82 C99,83.1045695 98.1045695,84 97,84 C95.8954305,84 95,83.1045695 95,82 L95,73 L81,73 L81,91 C81,92.1045695 80.1045695,93 79,93 Z" id="svg_5"></path>
                    <path d="M122.62,121.83 L122.47,121.83 C121.88,121.83 107.96,120.73 100.04,118.75 C91.69,116.66 83.67,107.75 83.33,107.34 C82.8548368,106.804102 82.7016662,106.055415 82.9281862,105.375962 C83.1547062,104.696509 83.726503,104.189516 84.4281862,104.045962 C85.1298694,103.902408 85.8548368,104.144102 86.33,104.68 C86.41,104.77 93.87,113.08 101.02,114.87 C108.61,116.76 122.64,117.87 122.78,117.87 C123.884569,117.911421 124.746421,118.840431 124.705,119.945 C124.663579,121.049569 123.734569,121.911421 122.63,121.87 L122.62,121.83 L122.62,121.83 Z" id="svg_6"></path>
                    <path d="M114.26,107 C113.906909,106.993317 113.561884,106.89326 113.26,106.71 C98.63,97.71 78.07,96.22 77.86,96.21 C76.766605,96.135086 75.9371589,95.1941552 76,94.1 C76.0383885,93.5708668 76.2854373,93.0786655 76.6867813,92.7317092 C77.0881253,92.384753 77.6108769,92.2114726 78.14,92.25 C79.02,92.31 99.9,93.86 115.35,103.33 C116.101832,103.795264 116.458955,104.698979 116.228272,105.552506 C115.997589,106.406033 115.233847,107.006811 114.35,107.03 L114.26,107 L114.26,107 Z" id="svg_7"></path>
                    <path d="M120.47,114.940002 C119.804748,114.941002 119.182541,114.611158 118.81,114.06 C118.7,113.89 107.42,97.32 95.92,93.18 C91.4110844,91.7168603 86.793291,90.613405 82.11,89.88 C81.0054305,89.7143146 80.2443146,88.6845695 80.41,87.58 C80.5756854,86.4754305 81.6054305,85.7143146 82.71,85.88 C87.6530719,86.6520134 92.5256187,87.8224948 97.28,89.38 C110,94 121.64,111.1 122.13,111.82 C122.544638,112.433435 122.586443,113.225753 122.238661,113.879416 C121.890879,114.533079 121.210423,114.941117 120.47,114.940002 L120.47,114.940002 Z" id="svg_8"></path>
                    <path d="M108.75,128 C98.75,128 87.31,126.06 79.98,118.73 C71.3487224,110.089593 71.3487224,96.0904066 79.98,87.45 L79.98,87.45 C88.6249603,78.8297312 102.61504,78.8297312 111.26,87.45 C117.58,93.77 119.79,102.35 121.75,109.92 C121.92,110.57 122.08,111.23 122.25,111.87 L127.25,115.87 C127.707682,116.235976 127.981828,116.784269 128,117.37 C127.967836,119.054119 126.944092,120.560317 125.39,121.21 C125.749483,121.962084 126.156991,122.690256 126.61,123.39 C126.948903,123.947962 126.994163,124.63621 126.731246,125.233748 C126.468329,125.831287 125.93033,126.262901 125.29,126.39 C119.834951,127.413503 114.300031,127.952271 108.75,128 L108.75,128 Z M82.81,90.26 C75.7373989,97.3356649 75.7373989,108.804335 82.81,115.88 C92.68,125.75 111.7,124.49 121.81,122.95 C121.44,122.21 121.1,121.41 120.81,120.56 C120.576753,119.967169 120.639888,119.298681 120.98,118.76 C121.321359,118.2247 121.896597,117.883268 122.53,117.84 C122.772355,117.820886 123.012993,117.784122 123.25,117.73 L119.25,114.56 C118.925575,114.304821 118.688047,113.955516 118.57,113.56 L117.88,110.94 C115.97,103.52 113.99,95.85 108.44,90.3 C101.364335,83.2273989 89.8956649,83.2273989 82.82,90.3 L82.81,90.26 L82.81,90.26 Z" id="svg_9"></path>
                    <path d="M120.49,115 L120.31,115 C115.864349,114.597651 111.457352,113.845319 107.13,112.75 C101.8,111.18 99.3,108.89 99.04,108.63 C98.4869266,108.144224 98.2454059,107.393899 98.4112585,106.676709 C98.5771112,105.959518 99.1235248,105.391406 99.833716,105.197764 C100.543907,105.004121 101.303064,105.216254 101.81,105.75 C103.714304,107.244482 105.911992,108.321179 108.26,108.91 C112.338118,109.918259 116.486595,110.616915 120.67,111 C121.384531,111.032154 122.027631,111.443063 122.357051,112.077942 C122.68647,112.712821 122.652162,113.475217 122.267051,114.077942 C121.881939,114.680667 121.204531,115.032154 120.49,115 L120.49,115 Z" id="svg_10"></path>
                </g>
            </g>
        </g>
    </g>
</svg>