<?xml version="1.0" encoding="UTF-8"?>
<svg width="200px" height="200px" viewBox="0 0 200 200" version="1.1" xmlns="http://www.w3.org/2000/svg" xmlns:xlink="http://www.w3.org/1999/xlink">
    <title>Untitled</title>
    <g id="Page-1" stroke="none" stroke-width="1" fill="none" fill-rule="evenodd">
        <g id="Group-22">
            <path d="M100,200 C139.938993,200 174.409425,176.586302 190.434099,142.7361 C196.568679,129.777535 200,115.289482 200,100 C200,44.771525 155.228475,0 100,0 C44.771525,0 0,44.771525 0,100 C0,155.228475 44.771525,200 100,200 Z" id="Oval" fill="#5BA4A4"></path>
            <g id="iconfinder-icon-(27)" transform="translate(50.000000, 37.000000)" fill="#FFFFFF" fill-rule="nonzero">
                <g id="Layer-1">
                    <path d="M3.36498516,71.5816024 L56.9465875,71.5816024 C59.115727,71.5816024 60.694362,73.6350148 60.1364985,75.7299703 L46.7032641,126.231454 C46.7002967,126.238553 46.7091988,126.240356 46.7121662,126.238553 L99.1543027,52.5341246 C100.709199,50.3501484 99.148368,47.3204748 96.4658754,47.3204748 L52.8575668,47.3204748 C50.4243323,47.3204748 48.8278932,44.7774481 49.884273,42.5875371 L68.0504451,4.884273 C69.1068249,2.69139466 67.5103858,0.151335312 65.0771513,0.151335312 L27.4718101,0.151335312 C26.0919881,0.151335312 24.8575668,1.00890208 24.3768546,2.30267062 L0.272997033,67.1305638 C-0.528189911,69.2878338 1.0652819,71.5816024 3.36498516,71.5816024 Z" id="svg_2"></path>
                </g>
            </g>
        </g>
    </g>
</svg>