<?xml version="1.0" encoding="UTF-8"?>
<svg width="200px" height="200px" viewBox="0 0 200 200" version="1.1" xmlns="http://www.w3.org/2000/svg" xmlns:xlink="http://www.w3.org/1999/xlink">
    <title>Untitled</title>
    <g id="Page-1" stroke="none" stroke-width="1" fill="none" fill-rule="evenodd">
        <g id="Group-26">
            <path d="M100,200 C139.938993,200 174.409425,176.586302 190.434099,142.7361 C196.568679,129.777535 200,115.289482 200,100 C200,44.771525 155.228475,0 100,0 C44.771525,0 0,44.771525 0,100 C0,155.228475 44.771525,200 100,200 Z" id="Oval" fill="#5BA4A4"></path>
            <g id="iconfinder-icon-(32)" transform="translate(43.000000, 47.000000)" fill="#FFFFFF">
                <g id="Layer-1">
                    <path d="M66.9469565,3.39078261 C58.2858261,3.39078261 49.6252174,3.39078261 40.964087,3.39078261 L40.964087,18.3208696 L40.964087,18.3422609 L40.964087,20.6543478 C49.6252174,20.6543478 58.2858261,20.6543478 66.9469565,20.6543478 C66.9469565,14.900087 66.9469565,9.14582609 66.9469565,3.39078261 M71.5053913,18.234 L71.5053913,5.81869565 L68.7224348,5.81869565 L68.7224348,18.2342609 L71.5053913,18.2342609 L71.5053913,18.234 Z M39.1883478,17.4297391 L39.1883478,3.64486957 C34.8106957,4.8333913 31.2232174,6.63078261 28.3241739,8.91365217 C25.3236522,11.2766087 23.0551304,14.1607826 21.3952174,17.43 L39.1883478,17.43 L39.1883478,17.4297391 L39.1883478,17.4297391 Z M58.959913,22.437913 L48.9508696,22.437913 L48.9508696,45.4638261 L58.959913,45.4638261 L58.959913,22.437913 Z M80.6233043,3.39078261 L73.2813913,3.39078261 C73.2813913,9.14582609 73.2813913,14.900087 73.2813913,20.6546087 L80.6233043,20.6546087 L80.6233043,3.39078261 Z M58.959913,83.0496522 L58.959913,58.0964348 L48.9508696,58.0964348 L48.9508696,83.0496522 L58.959913,83.0496522 Z M75.1150435,56.3133913 C75.4048696,56.3201739 75.6949565,56.4654783 75.8613913,56.7333913 C76.7165217,58.0666957 77.8254783,59.1688696 79.188,59.9152174 C80.442,60.603913 81.9276522,60.9952174 83.6381739,60.9952174 C85.413913,60.9952174 87.1893913,60.408 88.7042609,59.4078261 C89.8132174,58.6685217 90.7768696,57.7116522 91.4801739,56.6029565 L80.4566087,56.6029565 C79.9635652,56.6029565 79.5652174,56.2043478 79.5652174,55.7118261 L79.5652174,47.8552174 C79.5652174,47.3621739 79.9635652,46.9635652 80.4566087,46.9635652 L91.4801739,46.9635652 C90.7771304,45.8475652 89.8132174,44.8909565 88.7042609,44.1586957 C87.1893913,43.1585217 85.413913,42.5715652 83.6381739,42.5715652 C81.9276522,42.5715652 80.442,42.9631304 79.188,43.6518261 C77.8471304,44.3835652 76.7527826,45.4635652 75.9046957,46.767913 C75.7528696,47.0504348 75.4552174,47.2463478 75.1150435,47.2463478 C61.0111304,47.2463478 46.9069565,47.2463478 32.7957391,47.2463478 C32.505913,47.2393043 32.216087,47.094 32.0493913,46.8331304 C31.2232174,45.5282609 30.0633913,44.4485217 28.7008696,43.6951304 C27.3892174,42.9772174 25.8816522,42.5715652 24.2726087,42.5715652 C22.3956522,42.5715652 20.6415652,43.1298261 19.1921739,44.094 C18.0688696,44.8398261 17.1193043,45.8186087 16.4162609,46.9635652 L27.4544348,46.9635652 C27.9472174,46.9635652 28.3458261,47.3621739 28.3458261,47.8552174 L28.3458261,55.7118261 C28.3458261,56.2043478 27.9469565,56.6029565 27.4544348,56.6029565 L16.4162609,56.6029565 C17.1266087,57.7484348 18.0688696,58.7266957 19.1921739,59.466 C20.6415652,60.429913 22.3956522,60.9952174 24.2726087,60.9952174 C25.8816522,60.9952174 27.3892174,60.5817391 28.7008696,59.8646087 C30.0417391,59.1326087 31.1796522,58.0666957 32.0058261,56.7986087 C32.157913,56.5087826 32.4550435,56.3133913 32.7957391,56.3133913 C46.9072174,56.3133913 61.0111304,56.3133913 75.1150435,56.3133913 L75.1150435,56.3133913 Z M48.9511304,1.61504348 L58.9601739,1.61504348 L58.9601739,0.107478261 L48.9511304,0.107478261 L48.9511304,1.61504348 Z M54.8214783,11.1602609 C54.5968696,10.9426957 54.2924348,10.8052174 53.9590435,10.8052174 C53.6186087,10.8052174 53.3141739,10.9426957 53.0966087,11.1602609 C52.8717391,11.3848696 52.734,11.6893043 52.734,12.0226957 C52.734,12.3633913 52.8717391,12.6678261 53.0966087,12.8851304 C53.313913,13.1097391 53.6183478,13.248 53.9590435,13.248 C54.2707826,13.248 54.5606087,13.1321739 54.7781739,12.9286957 L54.8217391,12.8851304 C55.0390435,12.6678261 55.1770435,12.3633913 55.1770435,12.0226957 C55.1767826,11.6895652 55.0390435,11.3851304 54.8214783,11.1602609 L54.8214783,11.1602609 Z M53.9590435,9.02191304 C54.7852174,9.02191304 55.5391304,9.3633913 56.0827826,9.89921739 C56.6191304,10.4428696 56.9598261,11.1965217 56.9598261,12.0226957 C56.9598261,12.8564348 56.6191304,13.6030435 56.0827826,14.1464348 L56.0102609,14.211913 C55.473913,14.7117391 54.7492174,15.0234783 53.9593043,15.0234783 C53.1331304,15.0234783 52.3794783,14.6903478 51.8358261,14.1464348 C51.2924348,13.6030435 50.9517391,12.8566957 50.9517391,12.0226957 C50.9517391,11.1965217 51.2924348,10.4428696 51.8358261,9.89921739 C52.371913,9.3633913 53.1255652,9.02191304 53.9590435,9.02191304 L53.9590435,9.02191304 Z M89.5163478,22.7206957 L89.4581739,22.7206957 C88.8566087,22.7206957 88.3129565,22.9596522 87.9216522,23.3582609 C87.530087,23.7495652 87.2838261,24.2929565 87.2838261,24.8945217 L87.3273913,25.4021739 C87.3273913,25.8949565 86.9214783,26.2933043 86.436,26.2933043 L86.4070435,26.2933043 C85.8052174,26.2933043 85.2618261,26.5327826 84.8702609,26.9311304 C84.471913,27.3224348 84.2324348,27.866087 84.2324348,28.467913 C84.2324348,29.0692174 84.471913,29.619913 84.8702609,30.0112174 C85.2618261,30.4027826 85.8052174,30.6495652 86.4070435,30.6495652 L103.460609,30.6495652 C104.062174,30.6495652 104.605826,30.4027826 105.004435,30.0112174 C105.395739,29.619913 105.642261,29.0692174 105.642261,28.467913 C105.642261,28.1848696 105.591391,27.9172174 105.496957,27.6777391 L105.468261,27.620087 C105.359478,27.3592174 105.200087,27.1267826 105.004435,26.9311304 C104.779826,26.7206087 104.671043,26.4091304 104.736261,26.0903478 L104.78687,25.8002609 L104.794174,25.5106957 C104.794174,24.764087 104.496783,24.0902609 104.011565,23.6045217 C103.518522,23.1112174 102.844435,22.8143478 102.098087,22.8143478 C101.916783,22.8143478 101.735478,22.8292174 101.569043,22.8652174 C101.395304,22.9014783 101.228348,22.952087 101.076,23.0105217 C100.930957,23.0681739 100.764522,23.090087 100.597565,23.0681739 C100.119391,22.995913 99.7862609,22.5393913 99.8585217,22.0536522 L99.8874783,21.6187826 C99.8874783,20.8721739 99.590087,20.1907826 99.0975652,19.7053043 C98.612087,19.2198261 97.938,18.9151304 97.1911304,18.9151304 C96.7129565,18.9151304 96.2710435,19.0385217 95.8867826,19.2487826 C95.5025217,19.4590435 95.1693913,19.7634783 94.929913,20.1255652 L94.9082609,20.1761739 C94.6544348,20.5896522 94.1037391,20.7266087 93.6832174,20.4662609 C93.5243478,20.372087 93.3571304,20.2925217 93.1763478,20.2416522 L93.1398261,20.2267826 C92.9587826,20.1761739 92.7558261,20.1545217 92.5455652,20.1545217 C92.0094783,20.1545217 91.5164348,20.3428696 91.1397391,20.661913 C90.7698261,20.9809565 90.501913,21.4158261 90.4074783,21.908087 C90.363913,22.358087 89.979913,22.7206957 89.5163478,22.7206957 L89.5163478,22.7206957 Z M39.4781739,50.9209565 C39.2608696,50.7033913 38.9491304,50.558087 38.6157391,50.558087 C38.2823478,50.558087 37.9706087,50.7033913 37.7533043,50.9209565 C37.536,51.1382609 37.398,51.4426957 37.398,51.7833913 C37.398,52.1165217 37.5357391,52.4209565 37.7533043,52.6458261 C37.9708696,52.8706957 38.2823478,53.0086957 38.6157391,53.0086957 C38.9345217,53.0086957 39.2243478,52.8853043 39.441913,52.682087 L39.4781739,52.6458261 C39.6954783,52.4212174 39.8334783,52.1167826 39.8334783,51.7833913 C39.8334783,51.4426957 39.6957391,51.1382609 39.4781739,50.9209565 Z M38.616,48.7826087 C39.4421739,48.7826087 40.196087,49.1162609 40.7394783,49.659913 C41.2831304,50.2035652 41.6162609,50.9496522 41.6162609,51.7833913 C41.6162609,52.6095652 41.2831304,53.3637391 40.7394783,53.9068696 L40.6669565,53.9653043 C40.1306087,54.4724348 39.405913,54.7766087 38.616,54.7766087 C37.7898261,54.7766087 37.035913,54.4434783 36.4925217,53.8998261 C35.9488696,53.3637391 35.6154783,52.6098261 35.6154783,51.7836522 C35.6154783,50.9501739 35.9488696,50.2038261 36.4925217,49.6601739 C37.035913,49.1162609 37.7895652,48.7826087 38.616,48.7826087 Z M70.1577391,50.9209565 C69.9404348,50.7033913 69.636,50.558087 69.2950435,50.558087 C68.961913,50.558087 68.6574783,50.7033913 68.4326087,50.9209565 C68.2150435,51.1382609 68.0775652,51.4426957 68.0775652,51.7833913 C68.0775652,52.1165217 68.2150435,52.4209565 68.4326087,52.6458261 C68.6572174,52.8704348 68.9616522,53.0086957 69.2950435,53.0086957 C69.614087,53.0086957 69.903913,52.8853043 70.1212174,52.682087 L70.1577391,52.6458261 C70.3823478,52.4212174 70.520087,52.1167826 70.520087,51.7833913 C70.5198261,51.4426957 70.3823478,51.1382609 70.1577391,50.9209565 Z M4.05182609,88.5941739 C3.55904348,88.5941739 3.16043478,88.188 3.16043478,87.7027826 C3.16043478,87.2097391 3.55904348,86.8111304 4.05182609,86.8111304 L84.24,86.8111304 C84.7327826,86.8111304 85.1313913,87.2097391 85.1313913,87.7027826 C85.1313913,88.188 84.7327826,88.5941739 84.24,88.5941739 L4.05182609,88.5941739 Z M51.0093913,93.8053043 C50.5166087,93.8053043 50.118,93.4066957 50.118,92.9136522 C50.118,92.4284348 50.5166087,92.0225217 51.0093913,92.0225217 L106.497391,92.0225217 C106.990435,92.0225217 107.389043,92.4284348 107.389043,92.9136522 C107.389043,93.4066957 106.990435,93.8053043 106.497391,93.8053043 L51.0093913,93.8053043 Z M112.172087,93.8053043 C111.68687,93.8053043 111.280696,93.4066957 111.280696,92.9136522 C111.280696,92.4284348 111.68687,92.0225217 112.172087,92.0225217 L119.108087,92.0225217 C119.60113,92.0225217 119.999739,92.4284348 119.999739,92.9136522 C119.999739,93.4066957 119.60113,93.8053043 119.108087,93.8053043 L112.172087,93.8053043 Z M0.891913043,93.6456522 C0.406434783,93.6456522 0.00052173913,93.2475652 0.00052173913,92.7615652 C0.00052173913,92.2685217 0.406434783,91.869913 0.891913043,91.869913 L27.1862609,91.869913 C27.6790435,91.869913 28.0776522,92.2685217 28.0776522,92.7615652 C28.0776522,93.2473043 27.6787826,93.6456522 27.1862609,93.6456522 L0.891913043,93.6456522 Z M89.2338261,88.5941739 C88.7405217,88.5941739 88.3421739,88.188 88.3421739,87.7027826 C88.3421739,87.2097391 88.7405217,86.8111304 89.2338261,86.8111304 L96.1698261,86.8111304 C96.6626087,86.8111304 97.0609565,87.2097391 97.0609565,87.7027826 C97.0609565,88.188 96.6626087,88.5941739 96.1698261,88.5941739 L89.2338261,88.5941739 Z M69.2950435,48.7826087 C70.1285217,48.7826087 70.8753913,49.1162609 71.4187826,49.659913 C71.9621739,50.2035652 72.2955652,50.9496522 72.2955652,51.7833913 C72.2955652,52.6095652 71.9621739,53.3637391 71.4187826,53.9068696 L71.3535652,53.9653043 C70.8172174,54.4724348 70.0925217,54.7766087 69.2950435,54.7766087 C68.4691304,54.7766087 67.7149565,54.4434783 67.1788696,53.8998261 C66.6352174,53.3637391 66.2945217,52.6098261 66.2945217,51.7836522 C66.2945217,50.9501739 66.6352174,50.2038261 67.1713043,49.6601739 C67.7149565,49.1162609 68.4691304,48.7826087 69.2950435,48.7826087 Z" id="svg_2"></path>
                </g>
            </g>
        </g>
    </g>
</svg>