<?xml version="1.0" encoding="UTF-8"?>
<svg width="200px" height="200px" viewBox="0 0 200 200" version="1.1" xmlns="http://www.w3.org/2000/svg" xmlns:xlink="http://www.w3.org/1999/xlink">
    <title>Untitled</title>
    <g id="Page-1" stroke="none" stroke-width="1" fill="none" fill-rule="evenodd">
        <g id="Group-25">
            <path d="M100,200 C139.938993,200 174.409425,176.586302 190.434099,142.7361 C196.568679,129.777535 200,115.289482 200,100 C200,44.771525 155.228475,0 100,0 C44.771525,0 0,44.771525 0,100 C0,155.228475 44.771525,200 100,200 Z" id="Oval" fill="#5BA4A4"></path>
            <g id="iconfinder-icon-(31)" transform="translate(35.000000, 49.000000)" fill="#FFFFFF" fill-rule="nonzero">
                <g id="Layer-1" transform="translate(0.000000, 0.000000)">
                    <path d="M128.395062,23.218107 C121.279835,20.6234568 114.191358,18.0288066 107.076132,15.4341564 C95.7613169,11.2880658 84.4465021,7.16872428 73.1049383,3.02263374 C70.6440329,2.11316872 68.1563786,0.962962963 65.6152263,0.294238683 C64.8127572,0.0802469136 64.2510288,0.347736626 63.5288066,0.588477366 C62.244856,1.04320988 60.9609053,1.52469136 59.6769547,1.97942387 C48.8703704,5.91152263 38.090535,9.87037037 27.2839506,13.8024691 C18.8580247,16.8786008 10.4053498,19.9012346 2.00617284,23.0308642 C1.87242798,23.0843621 1.73868313,23.1378601 1.5781893,23.191358 C-0.829218107,24.0740741 0.213619757,27.9526749 2.64814815,27.0699588 C9.76337449,24.4753086 16.8518519,21.8806584 23.9670782,19.2860082 C35.2283951,15.1666667 46.4897119,11.0740741 57.7510288,6.95473251 C60.345679,6.01851852 62.9135802,5.05555556 65.5082305,4.11934156 C65.1604938,4.11934156 64.7860082,4.11934156 64.4382716,4.11934156 C71.5534979,6.71399177 78.6419753,9.30864198 85.7572016,11.9032922 C97.0185185,16.0226337 108.279835,20.1152263 119.541152,24.2345679 C122.135802,25.1707819 124.703704,26.1337449 127.298354,27.0699588 C129.757981,27.9794239 130.802469,24.100823 128.395062,23.218107 L128.395062,23.218107 Z" id="svg_5"></path>
                    <path d="M127.325103,23.218107 C120.209877,25.8127572 113.121399,28.4074074 106.006173,31.0020576 C94.744856,35.1213992 83.4835391,39.2139918 72.2222222,43.3333333 C69.627572,44.2695473 67.0596708,45.2325103 64.4650206,46.1687243 C64.8127572,46.1687243 65.1872428,46.1687243 65.5349794,46.1687243 C58.4197531,43.5740741 51.3312757,40.9794239 44.2160494,38.3847737 C32.9547325,34.2654321 21.6934156,30.1728395 10.4320988,26.0534979 C7.83744856,25.117284 5.26954733,24.154321 2.67489712,23.218107 C0.240368728,22.3353909 -0.802469136,26.2139918 1.60493827,27.0967078 C8.72016461,29.691358 15.808642,32.2860082 22.9238683,34.8806584 C34.2386831,39.026749 45.5534979,43.1460905 56.8950617,47.2921811 C59.3559671,48.2016461 61.8436214,49.3518519 64.3847737,50.0205761 C65.1872428,50.2345679 65.7489712,49.9670782 66.4711934,49.7263374 C67.755144,49.2716049 69.0390947,48.7901235 70.3230453,48.3353909 C81.1296296,44.4032922 91.909465,40.4444444 102.716049,36.5123457 C111.141975,33.436214 119.59465,30.4135802 127.993827,27.2839506 C128.127572,27.2304527 128.261317,27.1769547 128.421811,27.1234568 C130.802469,26.2139918 129.759259,22.3353909 127.325103,23.218107 L127.325103,23.218107 Z" id="svg_8"></path>
                    <path d="M18.1625514,31.7510288 C18.1625514,36.9135802 18.1625514,42.1028807 18.1625514,47.2654321 C18.1625514,55.5843621 18.1625514,63.9032922 18.1625514,72.2489712 C18.1625514,74.281893 18.1358025,76.3148148 18.1625514,78.3477366 C18.1893004,83.1893004 21.1584362,87.2283951 25.7057613,88.8333333 C31.6975309,90.9465021 37.7427984,92.872428 43.7613169,94.9053498 C49.6995885,96.9115226 55.6111111,98.9711934 61.5761317,100.897119 C64.7057613,101.91358 67.4876543,101.191358 70.4300412,100.201646 C73.6666667,99.1049383 76.9032922,98.0349794 80.1399177,96.9382716 C87.5226337,94.4506173 94.9053498,91.962963 102.314815,89.4753086 C105.497942,88.4053498 108.440329,87.1213992 110.286008,84.0720165 C111.783951,81.5843621 111.8107,78.962963 111.8107,76.2078189 C111.8107,68.691358 111.8107,61.1748971 111.8107,53.6851852 C111.8107,46.7839506 111.8107,39.8559671 111.8107,32.9547325 C111.8107,32.5534979 111.8107,32.1522634 111.8107,31.7777778 C111.8107,29.1831276 107.798354,29.1831276 107.798354,31.7777778 C107.798354,44.9917695 107.798354,58.2057613 107.798354,71.3930041 C107.798354,73.6399177 107.798354,75.8868313 107.798354,78.1069959 C107.798354,81.2633745 106.139918,83.9650206 103.090535,85.0082305 C97.0720165,87.0679012 91.026749,89.0740741 85.0082305,91.0802469 C79.1234568,93.0596708 73.2654321,95.0925926 67.3539095,97.0185185 C64.8127572,97.8477366 62.7530864,97.0720165 60.399177,96.2695473 C57.2160494,95.1995885 54.0596708,94.1296296 50.8765432,93.0596708 C43.5740741,90.5987654 36.2716049,88.1378601 28.9691358,85.7037037 C26.4547325,84.8477366 24.0473251,84.0720165 22.7901235,81.4238683 C21.9341564,79.6049383 22.1481481,77.4382716 22.1481481,75.4855967 C22.1481481,61.281893 22.1481481,47.0514403 22.1481481,32.8477366 C22.1481481,32.473251 22.1481481,32.1255144 22.1481481,31.7510288 C22.1748971,29.1563786 18.1625514,29.1563786 18.1625514,31.7510288 L18.1625514,31.7510288 L18.1625514,31.7510288 Z" id="svg_12"></path>
                    <path d="M63.5823045,24.2078189 C70.4567901,31.0823045 77.3580247,37.9835391 84.2325103,44.8580247 C85.1954733,45.8209877 86.1584362,46.7839506 87.1213992,47.7469136 C88.9403292,49.5658436 91.7757202,46.7304527 89.9567901,44.9115226 C83.0823045,38.037037 76.18107,31.1358025 69.3065844,24.2613169 C68.3436214,23.2983539 67.3806584,22.3353909 66.4176955,21.372428 C64.5987654,19.526749 61.7633745,22.3621399 63.5823045,24.2078189 L63.5823045,24.2078189 L63.5823045,24.2078189 Z" id="svg_15"></path>
                    <path d="M90.5452675,63.9567901 C90.5452675,58.0720165 90.5452675,52.1872428 90.5452675,46.3292181 C90.5452675,43.7345679 86.5329218,43.7345679 86.5329218,46.3292181 C86.5329218,52.2139918 86.5329218,58.0987654 86.5329218,63.9567901 C86.5329218,66.5514403 90.5452675,66.5514403 90.5452675,63.9567901 L90.5452675,63.9567901 Z" id="svg_18"></path>
                    <path d="M92.1502058,69.5740741 C92.0967078,71.526749 90.5720165,73.1851852 88.5390947,73.1851852 C86.5596708,73.1851852 84.9279835,71.5534979 84.9279835,69.5740741 C84.9279835,67.6748971 86.4526749,66.0967078 88.3518519,65.9897119 C90.4650206,65.8559671 92.0967078,67.5411523 92.1502058,69.5740741 C92.2304527,72.1419753 96.2427984,72.1687243 96.1625514,69.5740741 C96.0288066,65.4279835 92.7921811,61.9506173 88.5390947,61.9506173 C84.3930041,61.9506173 80.9156379,65.4279835 80.9156379,69.5740741 C80.9156379,73.7201646 84.3930041,77.1975309 88.5390947,77.1975309 C92.7654321,77.1975309 96.0288066,73.7201646 96.1625514,69.5740741 C96.2427984,66.9794239 92.2304527,67.0061728 92.1502058,69.5740741 Z" id="svg_21"></path>
                </g>
            </g>
        </g>
    </g>
</svg>