<?xml version="1.0" encoding="UTF-8"?>
<svg width="200px" height="200px" viewBox="0 0 200 200" version="1.1" xmlns="http://www.w3.org/2000/svg" xmlns:xlink="http://www.w3.org/1999/xlink">
    <title>Untitled</title>
    <g id="Page-1" stroke="none" stroke-width="1" fill="none" fill-rule="evenodd">
        <g id="Group-13">
            <path d="M100,200 C139.938993,200 174.409425,176.586302 190.434099,142.7361 C196.568679,129.777535 200,115.289482 200,100 C200,44.771525 155.228475,0 100,0 C44.771525,0 0,44.771525 0,100 C0,155.228475 44.771525,200 100,200 Z" id="Oval" fill="#5BA4A4"></path>
            <g id="iconfinder-icon-(18)" transform="translate(50.000000, 52.000000)">
                <g id="background" transform="translate(0.000000, 13.000000)">
                    <rect id="canvas_background" x="0" y="0" width="100" height="69.0721649"></rect>
                </g>
                <g id="Layer-1" transform="translate(0.000000, 0.000000)" fill="#FFFFFF" fill-rule="nonzero">
                    <path d="M49.9681913,95.8328482 C49.4367983,95.8328482 48.9054054,95.6303534 48.4995842,95.2253638 C46.4108108,93.1407484 44.2866944,91.0432432 42.2324324,89.014553 C21.6203742,68.6590437 2.15114345,49.4322245 2.15114345,28.1297297 C2.15114345,21.5340956 4.73243243,14.6424116 9.23305613,9.22203742 C14.0644491,3.4033264 20.2893971,0.198752599 26.7609148,0.198752599 C38.3330561,0.198752599 44.9209979,7.91683992 49.9679834,17.0588358 C55.0139293,7.91683992 61.5952183,0.198752599 73.1382536,0.198752599 C79.6253638,0.198752599 85.8613306,3.4029106 90.697921,9.22120582 C95.202079,14.639501 97.7852391,21.5313929 97.7852391,28.1297297 C97.7852391,49.3810811 78.385447,68.5600832 57.8465696,88.8650728 C55.7459459,90.9417879 53.5735967,93.0893971 51.4380457,95.2241164 C51.0322245,95.6299376 50.5,95.8328482 49.9681913,95.8328482 Z M26.7609148,4.35675676 C15.2430353,4.35675676 6.30914761,17.1363825 6.30914761,28.1299376 C6.30914761,47.6948025 25.1777547,66.3284823 45.154262,86.0561331 C46.7326403,87.6149688 48.3519751,89.2141372 49.9671518,90.8189189 C51.6299376,89.1642412 53.297921,87.5149688 54.9234927,85.9081081 C74.8272349,66.2309771 93.6274428,47.6451143 93.6274428,28.1297297 C93.6274428,17.1361746 84.6773389,4.35675676 73.1384615,4.35675676 C62.9817048,4.35675676 57.2731809,11.5966736 51.827027,22.4671518 C51.4746362,23.1706861 50.7550936,23.6149688 49.9681913,23.6149688 C49.181289,23.6149688 48.4619543,23.1706861 48.1093555,22.4671518 C42.6629938,11.5966736 36.9484407,4.35675676 26.7609148,4.35675676 Z" id="svg_5"></path>
                    <path d="M70.75842,45.9370062 C70.0632017,45.9370062 69.4141372,45.589605 69.0286902,45.0112266 L62.4424116,35.1320166 L55.8561331,45.0112266 C55.4706861,45.589605 54.8214137,45.9370062 54.1264033,45.9370062 C53.4313929,45.9370062 52.7821206,45.589605 52.3966736,45.0112266 L45.810395,35.1320166 L39.2241164,45.0112266 C38.8386694,45.589605 38.1893971,45.9370062 37.4943867,45.9370062 C36.7993763,45.9370062 36.150104,45.589605 35.764657,45.0112266 L29.1783784,35.1320166 L22.5920998,45.0112266 C22.2066528,45.589605 21.5573805,45.9370062 20.8623701,45.9370062 C20.1673597,45.9370062 19.5180873,45.589605 19.1326403,45.0112266 L15.591684,39.7 L2.15114345,39.7 C1.0029106,39.7 0.0721413721,38.7692308 0.0721413721,37.6209979 C0.0721413721,36.4727651 1.0029106,35.5419958 2.15114345,35.5419958 L16.704158,35.5419958 C17.3993763,35.5419958 18.0484407,35.8893971 18.4338877,36.4677755 L20.8621622,40.1099792 L27.4484407,30.2307692 C27.8338877,29.6523909 28.4831601,29.3049896 29.1781705,29.3049896 C29.8731809,29.3049896 30.5224532,29.6523909 30.9079002,30.2307692 L37.4941788,40.1099792 L44.0804574,30.2307692 C44.4659044,29.6523909 45.1151767,29.3049896 45.8101871,29.3049896 C46.5051975,29.3049896 47.1544699,29.6523909 47.5399168,30.2307692 L54.1261954,40.1101871 L60.712474,30.2307692 C61.097921,29.6523909 61.7471933,29.3049896 62.4422037,29.3049896 C63.1372141,29.3049896 63.7864865,29.6523909 64.1719335,30.2307692 L70.7582121,40.1099792 L77.3444906,30.2307692 C77.7557173,29.6141372 78.4652807,29.2621622 79.2033264,29.3089397 C79.9430353,29.3548857 80.6022869,29.7912682 80.9336798,30.4540541 L84.5170478,37.62079 L97.7850312,37.62079 C98.9330561,37.62079 99.8640333,38.5515593 99.8640333,39.6997921 C99.8640333,40.8480249 98.9330561,41.7787942 97.7850312,41.7787942 L83.2320166,41.7787942 C82.4444906,41.7787942 81.7247401,41.3338877 81.3725572,40.6295218 L78.816632,35.5178794 L72.4879418,45.0110187 C72.1024948,45.589605 71.4534304,45.9370062 70.75842,45.9370062 L70.75842,45.9370062 Z" id="svg_7"></path>
                </g>
            </g>
        </g>
    </g>
</svg>