<?xml version="1.0" encoding="UTF-8"?>
<svg width="200px" height="200px" viewBox="0 0 200 200" version="1.1" xmlns="http://www.w3.org/2000/svg" xmlns:xlink="http://www.w3.org/1999/xlink">
    <title>Untitled</title>
    <g id="Page-1" stroke="none" stroke-width="1" fill="none" fill-rule="evenodd">
        <g id="Group-18">
            <path d="M100,200 C139.938993,200 174.409425,176.586302 190.434099,142.7361 C196.568679,129.777535 200,115.289482 200,100 C200,44.771525 155.228475,0 100,0 C44.771525,0 0,44.771525 0,100 C0,155.228475 44.771525,200 100,200 Z" id="Oval" fill="#5BA4A4"></path>
            <g id="iconfinder-icon-(23)" transform="translate(40.000000, 58.000000)" fill="#FFFFFF" fill-rule="nonzero">
                <g id="Layer-1">
                    <path d="M27.2693878,51.5878246 L27.2693878,51.5878246 C21.2961434,51.6084869 16.3311715,46.9916522 15.9183673,41.0326531 L15.5877551,36.2326531 C15.3735688,33.0920166 16.4746446,30.0036894 18.6274127,27.7069389 C20.7801808,25.4101884 23.7908621,24.1117544 26.9387755,24.1223834 L27.6,24.1223834 C30.7438124,24.1217214 33.7468152,25.42627 35.8918958,27.7245707 C38.0369764,30.0228714 39.1315687,33.1086032 38.9142857,36.244898 L38.5836735,41.044898 C38.1656868,46.9849162 33.224094,51.5895822 27.2693878,51.5878246 L27.2693878,51.5878246 Z" id="svg_1"></path>
                    <path d="M42.5510204,34.0653061 L42.5510204,34.0653061 C41.824707,26.3499593 35.3494576,20.4527625 27.6,20.4489757 L26.9387755,20.4489757 C22.7799872,20.4459805 18.8066101,22.1696973 15.9674211,25.208535 C13.128232,28.2473727 11.6780901,32.3285507 11.9632653,36.477551 L12.244898,41.277551 C12.7985235,49.1635517 19.3639884,55.2741962 27.2693878,55.2613504 C27.9000305,55.2639305 28.5301053,55.2230166 29.155102,55.1387755 C31.3981169,54.8566769 33.5468351,54.0650439 35.4367347,52.8244898 C38.0381127,51.1293793 40.0557146,48.6757703 41.2163265,45.7959184 C41.7923075,44.3525241 42.1393458,42.8280347 42.244898,41.277551 L42.5755102,36.4897959 C42.6347719,35.6823575 42.6265803,34.8713827 42.5510204,34.0653061 L42.5510204,34.0653061 Z M35.2040816,35.9877551 L34.8734694,40.7755102 C34.5542989,44.7587578 31.2286674,47.8285714 27.2326531,47.8285714 C23.2366387,47.8285714 19.9110072,44.7587578 19.5918367,40.7755102 L19.2734694,35.9877551 C19.1235874,33.8642842 19.8649247,31.7743352 21.319398,30.2199541 C22.7738713,28.6655729 24.8100393,27.7872293 26.9387755,27.7958545 L27.6,27.7958545 C29.723313,27.7976869 31.75077,28.6801123 33.1990494,30.232835 C34.6473289,31.7855577 35.3866677,33.8694566 35.2408163,35.9877551 L35.2040816,35.9877551 L35.2040816,35.9877551 Z" id="svg_2"></path>
                    <path d="M49.677551,79.0408163 L4.89795918,79.0408163 C4.89795918,79.0408163 4.66530612,63.2081633 9.19591837,59.4489796 C12.2693878,56.8530612 20.7306122,55.7755102 28.8734694,56.0571429 C31.4316032,56.1198383 33.9834119,56.3406679 36.5142857,56.7183673 C35.9453334,57.8246826 35.5017657,58.9911012 35.1918367,60.1959184 C33.9702923,65.1849785 33.3009651,70.2932178 33.1959184,75.4285714 L49.7142857,75.4285714 C49.7510204,77.5469388 49.677551,79.0408163 49.677551,79.0408163 Z" id="svg_3"></path>
                    <path d="M53.4122449,75.3673469 L8.57142857,75.3673469 C8.85306122,69.5510204 9.94285714,63.5142857 11.4979592,62.2040816 C13.5428571,60.477551 19.8857143,59.6204082 26.4489796,59.6204082 L27.6734694,59.6204082 C30.1624215,59.6513357 32.6477969,59.818935 35.1183673,60.122449 C35.4282963,58.9176319 35.871864,57.7512132 36.4408163,56.644898 C36.7474434,56.0505168 37.16278,55.518886 37.6653061,55.077551 C38.4601991,54.4548126 39.3543514,53.9704801 40.3102041,53.644898 C38.8040816,53.3142857 37.1632653,53.0326531 35.4122449,52.8122449 C33.6612245,52.5918367 32.1673469,52.4693878 30.5142857,52.3714286 C26.6349321,52.1522031 22.7440867,52.2545938 18.8816327,52.677551 C13.677551,53.277551 9.17142857,54.5510204 6.77142857,56.5714286 C1.33469388,61.1632653 1.11428571,74.9387755 1.1755102,79.077551 L1.1755102,82.7510204 L53.1795918,82.7510204 L53.3510204,79.2489796 C53.3510204,78.4897959 53.4244898,77.4244898 53.4244898,76.1387755 C53.4244898,75.9183673 53.4244898,75.6244898 53.4122449,75.3673469 L53.4122449,75.3673469 Z" id="svg_4"></path>
                    <path d="M92.7061224,51.5877881 L92.7061224,51.5877881 C86.7470186,51.5891342 81.8036969,46.9775073 81.3918367,41.0326531 L81.0612245,36.2326531 C80.8439415,33.0963583 81.9385338,30.0106265 84.0836144,27.7123258 C86.228695,25.4140251 89.2316978,24.1094765 92.3755102,24.1102038 L93.0612245,24.1102038 C96.2050369,24.1094765 99.2080397,25.4140251 101.35312,27.7123258 C103.498201,30.0106265 104.592793,33.0963583 104.37551,36.2326531 L104.044898,41.0326531 C103.632402,46.986931 98.6746545,51.6020263 92.7061224,51.5877881 L92.7061224,51.5877881 Z" id="svg_5"></path>
                    <path d="M104.008163,25.2122449 C101.151908,22.1681777 97.1620227,20.4436605 92.9877551,20.4489673 L92.3265306,20.4489673 C84.6348883,20.4571901 78.1894859,26.2686185 77.3877551,33.9183673 C77.3140382,34.7657467 77.3140382,35.6179267 77.3877551,36.4653061 L77.7183673,41.2530612 C78.0410656,45.8680103 80.4768712,50.0753109 84.3183673,52.6530612 C86.3604121,54.0177774 88.7069963,54.858847 91.1510204,55.1020408 C91.6672295,55.1614238 92.186514,55.1900458 92.7061224,55.1878824 C100.58795,55.1630943 107.117765,49.0657521 107.681633,41.2040816 L108.012245,36.4163265 C108.268885,32.290789 106.821461,28.240657 104.008163,25.2122449 L104.008163,25.2122449 Z M86.7673469,30.2204082 C88.2103683,28.6534376 90.245331,27.7648076 92.3755102,27.7713918 L93.0612245,27.7713918 C95.1845375,27.7731971 97.2119944,28.6556226 98.6602739,30.2083452 C100.108553,31.7610679 100.847892,33.8449668 100.702041,35.9632653 L100.408163,40.7755102 C100.129512,44.7934756 96.7888407,47.9104907 92.7612245,47.9104907 C88.7336083,47.9104907 85.3929371,44.7934756 85.1142857,40.7755102 L84.7836735,35.9877551 C84.6187071,33.8736835 85.3368586,31.7857246 86.7673469,30.2204082 L86.7673469,30.2204082 Z" id="svg_6"></path>
                    <path d="M115.102041,79.0408163 L70.2734694,79.0408163 C70.2734694,79.0408163 70.2734694,77.5469388 70.3591837,75.3673469 L86.9387755,75.3673469 C87.0121814,70.1882853 86.4070363,65.0219103 85.1387755,60 C84.8057519,58.7728461 84.3029338,57.5982299 83.644898,56.5102041 C86.2393301,56.1711211 88.8528932,55.9993376 91.4693878,55.9959184 C99.3183673,55.9959184 107.473469,57.2204082 110.816327,59.4367347 C115.910204,62.8653061 115.102041,79.0408163 115.102041,79.0408163 L115.102041,79.0408163 Z" id="svg_7"></path>
                    <path d="M112.885714,56.3265306 C110.436735,54.6489796 105.991837,53.4489796 100.873469,52.8 C97.1409578,52.3429811 93.3790465,52.1710548 89.6204082,52.2857143 C87.8081633,52.2857143 86.0204082,52.4693878 84.3183673,52.6653061 C82.483114,52.8642084 80.6628812,53.1832605 78.8693878,53.6204082 C80.1666252,53.9985757 81.4034959,54.5592904 82.5428571,55.2857143 C82.9690951,55.5968381 83.3308882,55.987741 83.6081633,56.4367347 C84.2853161,57.5456094 84.8007183,58.7454657 85.1387755,60 C87.3634925,59.7593072 89.5990685,59.6326109 91.8367347,59.6204082 L92.5591837,59.6204082 C99.2571429,59.6204082 106.028571,60.6244898 108.685714,62.4122449 C110.179592,63.4285714 111.318367,69.1469388 111.428571,75.355102 L66.6489796,75.355102 C66.6489796,76.9102041 66.6489796,78.2081633 66.6489796,79.0285714 L66.6489796,82.7020408 L118.591837,82.7020408 L118.763265,79.2 C118.763265,78.4285714 118.836872,77.3265306 118.836872,76.0163265 C118.84898,70.1020408 118.053061,59.877551 112.885714,56.3265306 L112.885714,56.3265306 Z" id="svg_8"></path>
                    <path d="M74.4,6.6244898 C70.7898988,2.73941507 65.7319852,0.522976154 60.4285714,0.501977214 L59.522449,0.501977214 C54.2062126,0.488338113 49.1244357,2.68930432 45.497638,6.57632063 C41.8708404,10.4633369 40.0267103,15.6852038 40.4081633,20.9877551 L40.8489796,27.5142857 C40.8489796,27.9306122 40.922449,28.3469388 40.9836735,28.7387755 C41.227467,30.5630641 41.7390991,32.3413984 42.5020408,34.0163265 L42.5020408,34.0163265 C44.6262811,38.6554255 48.5002355,42.2652466 53.277551,44.0571429 C57.4494033,45.6307302 62.0440739,45.6741171 66.244898,44.1795918 C71.2146877,42.4277173 75.2445295,38.7078633 77.3877551,33.8938776 C78.1119916,32.277671 78.6026212,30.5666519 78.844898,28.8122449 C78.9183673,28.3714286 78.955102,27.9183673 78.9918367,27.4653061 L79.444898,20.9387755 C79.8034665,15.676584 77.9787025,10.4990374 74.4,6.6244898 L74.4,6.6244898 Z M72.1714286,20.4857143 L71.7183673,27.0122449 C71.3182958,33.2036707 66.1798482,38.0208033 59.9755102,38.0208033 C53.7711722,38.0208033 48.6327246,33.2036707 48.2326531,27.0122449 L47.755102,20.4857143 C47.5312391,17.2304448 48.6676585,14.0281498 50.8934552,11.6422071 C53.119252,9.25626435 56.2350023,7.90044635 59.4979592,7.89795918 L60.4040816,7.89795918 C63.6658714,7.90406858 66.779428,9.26098918 69.0044319,11.646082 C71.2294358,14.0311748 72.3671072,17.2313579 72.1469388,20.4857143 L72.1714286,20.4857143 L72.1714286,20.4857143 Z" id="svg_9"></path>
                    <path d="M92.6204082,59.6326531 C92.3154183,58.3848834 91.9309606,57.1578907 91.4693878,55.9591837 L91.1510204,55.1877551 C90.7321998,54.1865772 90.2197182,53.2272117 89.6204082,52.322449 C89.2645888,51.7649256 88.8544234,51.2440155 88.3959184,50.7673469 C87.8905369,50.1912256 87.3145713,49.6810847 86.6816327,49.2489796 C85.9459093,48.7766359 85.1717505,48.367028 84.3673469,48.0244898 C82.586876,47.2548558 80.7433,46.6403305 78.8571429,46.1877551 C74.7171285,45.2063404 70.5025569,44.5714924 66.2571429,44.2897959 C61.9559911,43.940535 57.6366958,43.8710009 53.3265306,44.0816327 C49.2472149,44.2797957 45.1940727,44.8453504 41.2163265,45.7714286 C39.3743243,46.2174514 37.578588,46.8365294 35.8530612,47.6204082 C34.7979473,48.0975318 33.8099369,48.7109216 32.9142857,49.444898 C32.4658326,49.8106782 32.0555762,50.2209346 31.6897959,50.6693878 C31.2318505,51.1992085 30.8220643,51.7688113 30.4653061,52.3714286 C29.9551172,53.2445285 29.5169321,54.1577553 29.155102,55.1020408 C29.0326531,55.3836735 28.922449,55.6653061 28.8244898,55.9591837 C28.3764761,57.1602541 28.0003016,58.3869101 27.6979592,59.6326531 C26.5195586,64.7975115 25.8794068,70.0705564 25.7877551,75.3673469 C25.7877551,77.0081633 25.7877551,78.2938776 25.7877551,79.0408163 L25.7877551,79.0408163 L25.7877551,82.7142857 L94.0040816,82.7142857 L94.1755102,79.2122449 C94.1698626,79.1552416 94.1698626,79.0978196 94.1755102,79.0408163 C94.1755102,78.2571429 94.2489796,76.9836735 94.2489796,75.3673469 C94.3296685,70.0765277 93.7829984,64.7947905 92.6204082,59.6326531 L92.6204082,59.6326531 Z M33.1469388,75.3673469 C33.2519855,70.2319933 33.9213127,65.123754 35.1428571,60.1346939 C35.4527861,58.9298768 35.8963538,57.7634581 36.4653061,56.6571429 C36.7719332,56.0627617 37.1872698,55.5311309 37.6897959,55.0897959 C38.4846889,54.4670575 39.3788412,53.982725 40.3346939,53.6571429 C44.5102041,52.0653061 51.6979592,51.2816327 59.0571429,51.2816327 C66.4163265,51.2816327 73.9959184,52.077551 78.9061224,53.644898 C80.2033599,54.0230655 81.4402306,54.5837802 82.5795918,55.3102041 C83.0058298,55.6213279 83.3676229,56.0122308 83.644898,56.4612245 C84.3071322,57.5645241 84.8100676,58.7559039 85.1387755,60 C86.4070363,65.0219103 87.0121814,70.1882853 86.9387755,75.3673469 L33.1469388,75.3673469 Z" id="svg_10"></path>
                </g>
            </g>
        </g>
    </g>
</svg>