<?xml version="1.0" encoding="UTF-8"?>
<svg width="200px" height="200px" viewBox="0 0 200 200" version="1.1" xmlns="http://www.w3.org/2000/svg" xmlns:xlink="http://www.w3.org/1999/xlink">
    <title>Untitled</title>
    <g id="Page-1" stroke="none" stroke-width="1" fill="none" fill-rule="evenodd">
        <g id="Group-17">
            <path d="M100,200 C139.938993,200 174.409425,176.586302 190.434099,142.7361 C196.568679,129.777535 200,115.289482 200,100 C200,44.771525 155.228475,0 100,0 C44.771525,0 0,44.771525 0,100 C0,155.228475 44.771525,200 100,200 Z" id="Oval" fill="#5BA4A4"></path>
            <g id="iconfinder-icon-(22)" transform="translate(25.000000, 32.000000)">
                <g id="background">
                    <rect id="canvas_background" x="0" y="0" width="150" height="103.608247"></rect>
                </g>
                <g id="Layer-1" transform="translate(4.123711, 17.525773)" fill="#FFFFFF" fill-rule="nonzero">
                    <rect id="svg_3" x="36.0618557" y="6.33582474" width="3.56005155" height="2.57731959"></rect>
                    <rect id="svg_4" x="6.6814433" y="25.3752577" width="5.20670103" height="2.57731959"></rect>
                    <rect id="svg_5" x="0.200257732" y="61.1115979" width="4.29278351" height="2.57731959"></rect>
                    <rect id="svg_6" x="7.59536082" y="69.1659794" width="4.29278351" height="2.57731959"></rect>
                    <path d="M107.183505,19.7360825 C101.982474,14.4087629 95.4724227,10.367268 88.1786082,8.13298969 C100.444072,1.94742268 110.232474,0.870103093 114.68866,5.32371134 C117.72732,8.36494845 118.219588,14.0273196 116.108763,21.3597938 L114.124485,16.9886598 L111.776546,18.0530928 L115.585825,26.4474227 L124.026546,22.6201031 L122.962113,20.2721649 L118.523711,22.2850515 C121.016237,13.8005155 120.33067,7.32113402 116.510825,3.50154639 C110.82268,-2.18659794 99.157732,-0.841237113 84.4695876,7.17164948 C81.9438144,6.63015464 79.3381443,6.30051546 76.6786082,6.20515464 C76.4489691,6.1871134 76.2221649,6.17164948 75.9930412,6.17164948 C75.8976804,6.17164948 75.8023196,6.17680412 75.7092784,6.18195876 C75.4878866,6.17680412 75.2659794,6.17164948 75.0417526,6.17164948 C74.6628866,6.17164948 74.2865979,6.17680412 73.9103093,6.18969072 C73.3845361,6.20257732 72.8613402,6.2257732 72.3407216,6.25670103 L42.9025773,6.25670103 L42.9025773,8.83402062 L59.8046392,8.83402062 C53.3613402,11.1639175 47.5984536,14.9242268 42.9025773,19.7335052 C42.2840206,20.3675258 41.6835052,21.0170103 41.1036082,21.6871134 C40.0804124,22.8649485 39.1164948,24.0943299 38.2195876,25.3752577 L16.6835052,25.3752577 L16.6835052,27.9525773 L36.5391753,27.9525773 C35.5881443,29.5298969 34.7298969,31.1688144 33.9747423,32.8623711 L24.4386598,32.8623711 L24.4386598,35.4396907 L32.9180412,35.4396907 C31.093299,40.3237113 30.0958763,45.6072165 30.0958763,51.1201031 C30.0958763,54.0840206 30.3871134,56.9809278 30.9360825,59.7876289 C30.6809278,60.2309278 30.4309278,60.6719072 30.1860825,61.1123711 L8.57010309,61.1123711 L8.57010309,63.6896907 L28.8020619,63.6896907 C27.8381443,65.5582474 26.9798969,67.3884021 26.2324742,69.1664948 L15.7685567,69.1664948 L15.7685567,71.7438144 L25.214433,71.7438144 C24.1835052,74.5378866 23.4438144,77.1796392 23.028866,79.6152062 C21.956701,85.893299 23.0185567,90.8365979 26.0958763,93.9139175 C28.4128866,96.2309278 31.6757732,97.3987113 35.8252577,97.3961383 C36.7041237,97.3961383 37.6242268,97.3443299 38.5829897,97.2389175 C43.4927835,96.7 49.1963918,94.8059278 55.5391753,91.6126289 C60.6396907,94.078866 66.2737113,95.6100515 72.2195876,95.9786082 C72.2247423,95.9811856 72.2296392,95.9811856 72.2373711,95.9811856 C72.7837629,96.0146907 73.332732,96.0402062 73.8845361,96.0530928 C74.268299,96.0634021 74.6548969,96.0688144 75.0414948,96.0688144 C75.2837629,96.0688144 75.5234536,96.0634021 75.7659794,96.0610825 C75.8407216,96.0636598 75.9154639,96.0688144 75.9927835,96.0688144 C76.2041237,96.0688144 76.4177835,96.0556701 76.6293814,96.0378866 C85.2814433,95.7389175 93.5649485,92.9917526 100.678608,88.0453608 C103.245619,86.2592784 105.598711,84.2337629 107.712113,81.9992268 C107.941495,81.7592784 108.163144,81.5198454 108.382216,81.2747423 C112.029124,77.2518041 114.923454,72.589433 116.923454,67.4680412 L114.523969,66.5298969 C113.039433,70.3314433 111.062629,73.8185567 108.68634,76.9345361 C104.158247,74.5636598 98.5806701,72.7360825 92.3976804,71.5479381 C93.5884021,65.6951031 94.2768041,59.0762887 94.3280928,52.0092784 L117.39768,52.0092784 C117.328093,55.4216495 116.856443,58.8007732 115.985567,62.0685567 L118.475258,62.7335052 C119.480155,58.9654639 119.990722,55.0582474 119.990722,51.1198454 C119.990722,39.8724227 115.836082,29.5760309 108.98299,21.6842784 C108.402835,21.0167526 107.804639,20.367268 107.183505,19.7360825 L107.183505,19.7360825 Z M59.521134,71.2154639 C58.6835052,71.3569588 57.8536082,71.5092784 57.0365979,71.6739691 C51.1345361,72.8621134 45.8097938,74.632732 41.4489691,76.9087629 C37.7221649,72.0657216 35.0185567,66.3984536 33.6628866,60.2335052 C35.2685567,57.514433 37.0572165,54.764433 39.0159794,52.0092784 L57.6551546,52.0092784 C57.6551546,52.0530928 57.6551546,52.0997423 57.657732,52.1435567 C57.6603093,52.5247423 57.6654639,52.9061856 57.6731959,53.2853093 C57.6706186,53.3010309 57.6731959,53.3159794 57.6731959,53.331701 C57.6783505,53.6667526 57.6860825,53.9992268 57.6963918,54.3291237 C57.706701,54.6976804 57.7170103,55.0662371 57.7324742,55.4347938 C57.7324742,55.5043814 57.7376289,55.5739691 57.7402062,55.6438144 C57.7608247,56.1435567 57.7840206,56.6435567 57.8123711,57.1384021 C57.8304124,57.5043814 57.8510309,57.8677835 57.8768041,58.2286082 C58.160567,62.8417526 58.7198454,67.207732 59.521134,71.2154639 Z M86.8487113,20.7180412 C87.7069588,22.9113402 88.4569588,25.3030928 89.1012887,27.8520619 C84.6373711,28.5479381 79.8948454,28.9139175 75.0417526,28.9139175 C70.846134,28.9139175 66.7353093,28.6407216 62.8175258,28.1177835 C63.0082474,27.3497423 63.206701,26.5971649 63.4180412,25.8574742 C63.4927835,25.5945876 63.5675258,25.3342784 63.6448454,25.0765464 C69.0494845,20.3729381 74.5546392,16.2363402 79.9824742,12.8059278 C80.5445876,12.4476804 81.1061856,12.0997423 81.6654639,11.7595361 C83.5600515,13.8030928 85.3332474,16.8365979 86.8487113,20.7180412 L86.8487113,20.7180412 Z M91.5729381,44.681701 C91.5935567,45.0425258 91.6113402,45.4059278 91.6296392,45.7693299 C91.6479381,46.132732 91.6631443,46.496134 91.6760309,46.8621134 C91.6760309,46.8927835 91.678866,46.9213918 91.6814433,46.9497423 C91.7095361,47.7716495 91.7301546,48.5992268 91.743299,49.431701 L60.2407216,49.431701 C60.3412371,42.7615979 61.0293814,36.3646907 62.2407216,30.6378866 C66.3466495,31.1971649 70.6533505,31.4909794 75.042268,31.4909794 C79.1969072,31.4909794 83.2768041,31.2280928 87.1840206,30.7231959 C88.0270619,30.6149485 88.8618557,30.4963918 89.6865979,30.3649485 C90.6399485,34.7927835 91.278866,39.6275773 91.5729381,44.681701 L91.5729381,44.681701 Z M89.8484536,71.0966495 C89.0237113,70.9652062 88.1889175,70.8443299 87.343299,70.7360825 C83.392268,70.2206186 79.2582474,69.95 75.0417526,69.95 C70.5884021,69.95 66.2301546,70.2515464 62.0778351,70.8237113 C60.9206186,65.0685567 60.2840206,58.6664948 60.2324742,52.0092784 L91.7505155,52.0092784 C91.7505155,52.0476804 91.7505155,52.0865979 91.7479381,52.1252577 C91.7453608,52.5092784 91.7402062,52.8930412 91.7324742,53.2747423 C91.7247423,53.6948454 91.714433,54.1149485 91.7041237,54.5324742 C91.6938144,54.8984536 91.6809278,55.264433 91.6654639,55.6278351 C91.4466495,61.0840206 90.8278351,66.3185567 89.8484536,71.0966495 L89.8484536,71.0966495 Z M78.2018041,10.882732 C73.9128866,13.6201031 69.585567,16.7796392 65.2994845,20.3028351 C67.9257732,13.7693299 71.2865979,9.72036082 74.7121134,8.90592784 C75.0548969,8.82345361 75.3948454,8.77448454 75.7376289,8.75902062 C75.9953608,8.76159794 76.2530928,8.7693299 76.5082474,8.77706186 C77.5572165,8.88015464 78.6061856,9.28737113 79.6345361,9.98041237 C79.1579897,10.2744845 78.6783505,10.5762887 78.2018041,10.882732 L78.2018041,10.882732 Z M57.910567,43.5311856 C57.8806701,43.9664948 57.8525773,44.4028351 57.8278351,44.8414948 C57.7994845,45.3543814 57.771134,45.867268 57.7505155,46.3853093 C57.7453608,46.439433 57.7427835,46.4935567 57.7427835,46.5502577 C57.7350515,46.7641753 57.7247423,46.9780928 57.7195876,47.1945876 C57.706701,47.4654639 57.6989691,47.7384021 57.6938144,48.014433 C57.6886598,48.146134 57.6860825,48.2798969 57.6835052,48.4139175 C57.6731959,48.7518041 57.6680412,49.0917526 57.6628866,49.4322165 L40.9025773,49.4322165 C45.1216495,43.7953608 50.0030928,38.1719072 55.3871134,32.7902062 C55.8845361,32.2927835 56.3845361,31.7979381 56.8845361,31.3108247 C57.3381443,30.8675258 57.7917526,30.4319588 58.2479381,29.9963918 C58.7221649,30.0837629 59.1989691,30.1690722 59.6783505,30.2487113 C58.8265464,34.3296392 58.2244845,38.7963918 57.910567,43.5311856 L57.910567,43.5311856 Z M65.1347938,81.5224227 C64.4157216,79.6845361 63.7713918,77.707732 63.2043814,75.6149485 C63.0033505,74.8726804 62.8126289,74.1152062 62.6296392,73.3469072 C66.5987113,72.8082474 70.7742268,72.5273196 75.0420103,72.5273196 C79.9752577,72.5273196 84.7791237,72.9007732 89.289433,73.6149485 C88.6090206,76.4554124 87.7920103,79.1095361 86.8487113,81.5224227 C84.0007732,88.8134021 80.2481959,93.1203608 76.4801546,93.4657216 C76.2507732,93.4731959 76.0188144,93.4783505 75.789433,93.4835052 C75.4311856,93.4706186 75.0729381,93.4190722 74.7146907,93.3340206 C71.2146907,92.5041237 67.7814433,88.3028351 65.1347938,81.5224227 L65.1347938,81.5224227 Z M84.8536082,9.89845361 C92.4927835,11.7180412 99.3329897,15.6072165 104.750515,20.942268 C105.340722,21.5247423 105.915464,22.1226804 106.472165,22.7386598 C102.286598,24.7775773 97.2273196,26.3597938 91.6551546,27.4113402 C91.4646907,26.6407216 91.2634021,25.8881443 91.0520619,25.1510309 C89.2533505,18.828866 86.8023196,13.7386598 83.9157216,10.4319588 C84.2275773,10.2512887 84.5417526,10.0734536 84.8536082,9.89845361 Z M66.1731959,9.68685567 C67.2069588,9.46520619 68.2556701,9.28221649 69.3149485,9.1378866 C66.1319588,12.1018041 63.4,17.1481959 61.3819588,23.632732 C60.0597938,24.7951031 58.7427835,25.9909794 57.4360825,27.2177835 C52.2530928,26.1688144 47.5469072,24.6559278 43.6113402,22.7384021 C44.1680412,22.1224227 44.7402062,21.5247423 45.3329897,20.9420103 C50.9721649,15.3881443 58.1554124,11.4007732 66.1731959,9.68685567 Z M41.8951031,24.7618557 C45.6992268,26.6871134 50.2146907,28.2412371 55.1863402,29.3675258 C54.6425258,29.8958763 54.103866,30.4293814 53.5652062,30.9680412 C47.6064433,36.9268041 42.2456186,43.1793814 37.7018041,49.4319588 L32.7095361,49.4319588 C33.0755155,40.1304124 36.4518041,31.5917526 41.8951031,24.7618557 L41.8951031,24.7618557 Z M35.8719072,52.0092784 C34.8641753,53.4680412 33.9079897,54.9216495 32.9981959,56.3726804 C32.8203608,54.9396907 32.7146907,53.4835052 32.6837629,52.0092784 L35.8719072,52.0092784 Z M27.9208763,92.0917526 C25.4569588,89.6301546 24.6451031,85.4652062 25.5677835,80.0479381 C26.3847938,75.2641753 28.5342784,69.5840206 31.8229381,63.4811856 C33.7275773,70.1304124 37.1296392,76.1536082 41.6373711,81.1590206 L42.4002577,81.9860825 C45.4157216,85.1742268 48.8925258,87.9216495 52.7198454,90.1226804 C41.1525773,95.6201031 32.1837629,96.3569588 27.9208763,92.0917526 Z M44.7917526,80.7515464 C44.214433,80.1662371 43.657732,79.5657216 43.1190722,78.9474227 C47.8020619,76.5865979 53.6162371,74.810567 60.0623711,73.7335052 C62.1216495,82.568299 65.3716495,89.4319588 69.3149485,93.1020619 C68.2556701,92.9574742 67.2092784,92.7744845 66.1757732,92.5528351 C57.8976804,90.7824742 50.5056701,86.5891753 44.7917526,80.7515464 L44.7917526,80.7515464 Z M83.0368557,92.746134 C86.4234536,89.385567 89.2739691,83.6484536 91.2636598,76.3314433 C91.4646907,75.5917526 91.6579897,74.8337629 91.8409794,74.060567 C97.5909794,75.1585052 102.776546,76.8260309 107.023711,78.9780928 C106.487887,79.5966495 105.931186,80.1997423 105.361598,80.7847938 C99.3796392,86.9242268 91.6242268,91.1252577 83.0368557,92.746134 Z M117.374227,49.4319588 L94.3203608,49.4319588 C94.217268,42.3546392 93.4798969,35.7435567 92.2350515,29.9216495 C98.2582474,28.7747423 103.717268,27.0247423 108.18866,24.7618557 C113.632216,31.5917526 117.008247,40.1304124 117.374227,49.4319588 L117.374227,49.4319588 Z" id="svg_7"></path>
                </g>
            </g>
        </g>
    </g>
</svg>