<?xml version="1.0" encoding="UTF-8"?>
<svg width="200px" height="200px" viewBox="0 0 200 200" version="1.1" xmlns="http://www.w3.org/2000/svg" xmlns:xlink="http://www.w3.org/1999/xlink">
    <title>Untitled</title>
    <g id="Page-1" stroke="none" stroke-width="1" fill="none" fill-rule="evenodd">
        <g id="Group" fill="#5BA4A4">
            <g id="bg-header-mobile">
                <circle id="Oval" cx="100" cy="100" r="100"></circle>
            </g>
        </g>
        <g id="iconfinder-icon-(16)" transform="translate(50.000000, 40.000000)" fill="#FFFFFF" fill-rule="nonzero">
            <g id="Layer-1">
                <path d="M98.0952381,53.0952381 C97.3809524,52.6190476 96.1904762,52.8571429 95.4761905,53.3333333 L77.1428571,67.8571429 L77.1428571,54.047619 C77.1428571,53.0952381 76.6666667,52.3809524 75.952381,51.9047619 C75.2380952,51.4285714 74.2857143,51.6666667 73.5714286,52.1428571 L51.1904762,68.3333333 L50,53.3333333 C50,52.6190476 49.5238095,51.6666667 48.8095238,51.4285714 C48.0952381,50.952381 47.1428571,51.1904762 46.4285714,51.4285714 L19.5238095,67.6190476 L19.5238095,45.7142857 C21.1904762,44.7619048 22.6190476,43.5714286 23.5714286,41.9047619 C24.7619048,42.3809524 26.1904762,42.3809524 27.6190476,42.3809524 C32.8571429,42.3809524 37.3809524,39.5238095 39.7619048,35.2380952 C40.4761905,35.2380952 41.1904762,35.4761905 42.1428571,35.4761905 C51.9047619,35.4761905 59.7619048,27.6190476 59.7619048,17.8571429 C59.7619048,8.0952381 51.9047619,4.22942105e-15 42.1428571,4.22942105e-15 C33.3333333,4.22942105e-15 26.1904762,6.19047619 24.7619048,14.7619048 C18.5714286,15.952381 14.047619,21.1904762 13.5714286,27.6190476 C9.04761905,28.3333333 5.47619048,32.3809524 5.47619048,37.1428571 C5.47619048,37.3809524 5.47619048,37.6190476 5.47619048,37.6190476 L3.0952381,37.6190476 C1.66666667,37.6190476 0.714285714,38.5714286 0.714285714,40 L0.714285714,116.666667 C0.714285714,118.095238 1.66666667,119.047619 3.0952381,119.047619 L97.1428571,119.047619 C98.5714286,119.047619 99.5238095,118.095238 99.5238095,116.666667 L99.5238095,55.2380952 C99.2857143,54.2857143 98.8095238,53.5714286 98.0952381,53.0952381 Z M10.2380952,37.1428571 C10.2380952,34.2857143 12.3809524,32.1428571 15.2380952,32.1428571 C15.4761905,32.1428571 15.7142857,32.1428571 15.952381,32.1428571 C16.6666667,32.1428571 17.3809524,31.9047619 17.8571429,31.4285714 C18.3333333,30.952381 18.5714286,30.2380952 18.5714286,29.5238095 C18.5714286,29.047619 18.5714286,28.8095238 18.5714286,28.3333333 C18.5714286,23.5714286 22.3809524,19.2857143 27.1428571,19.047619 C28.3333333,19.047619 29.2857143,18.0952381 29.2857143,16.9047619 C29.5238095,10 35.2380952,4.76190476 42.1428571,4.76190476 C49.2857143,4.76190476 55,10.4761905 55,17.8571429 C55,25 49.2857143,30.7142857 42.1428571,30.7142857 C41.1904762,30.7142857 40,30.4761905 39.047619,30.2380952 C37.8571429,30 36.6666667,30.4761905 36.1904762,31.6666667 C34.7619048,35.2380952 31.4285714,37.6190476 27.6190476,37.6190476 C26.1904762,37.6190476 24.7619048,37.3809524 23.3333333,36.6666667 C22.6190476,36.4285714 21.9047619,36.4285714 21.1904762,36.6666667 C20.4761905,36.9047619 20,37.6190476 19.7619048,38.3333333 C19.7619048,38.8095238 19.5238095,39.2857143 19.2857143,39.7619048 C19.047619,38.5714286 18.0952381,37.8571429 16.9047619,37.8571429 L10,37.8571429 C10.2380952,37.6190476 10.2380952,37.3809524 10.2380952,37.1428571 Z M8.33333333,42.3809524 C8.33333333,42.3809524 8.33333333,42.3809524 8.33333333,42.3809524 L14.7619048,42.3809524 L14.7619048,46.1904762 L5.47619048,46.1904762 L5.47619048,42.3809524 L8.33333333,42.3809524 L8.33333333,42.3809524 Z M94.5238095,114.285714 L5.47619048,114.285714 L5.47619048,51.1904762 L14.7619048,51.1904762 L14.7619048,71.9047619 C14.7619048,72.8571429 15.2380952,73.5714286 15.952381,74.047619 C16.6666667,74.5238095 17.6190476,74.5238095 18.3333333,74.047619 L45.4761905,57.8571429 L46.6666667,73.0952381 C46.6666667,74.047619 47.1428571,74.7619048 48.0952381,75 C48.8095238,75.4761905 49.7619048,75.2380952 50.4761905,74.7619048 L72.6190476,58.8095238 L72.6190476,72.8571429 C72.6190476,73.8095238 73.0952381,74.5238095 74.047619,75 C74.7619048,75.4761905 75.952381,75.2380952 76.6666667,74.7619048 L95,60.2380952 L95,114.285714 L94.5238095,114.285714 L94.5238095,114.285714 Z" id="svg_2"></path>
                <path d="M79.2857143,107.142857 L89.5238095,107.142857 C90.952381,107.142857 91.9047619,106.190476 91.9047619,104.761905 L91.9047619,94.5238095 C91.9047619,93.0952381 90.952381,92.1428571 89.5238095,92.1428571 L79.2857143,92.1428571 C77.8571429,92.1428571 76.9047619,93.0952381 76.9047619,94.5238095 L76.9047619,104.761905 C76.9047619,106.190476 77.8571429,107.142857 79.2857143,107.142857 Z M81.6666667,96.9047619 L87.1428571,96.9047619 L87.1428571,102.380952 L81.6666667,102.380952 L81.6666667,96.9047619 Z" id="svg_3"></path>
                <path d="M49.2857143,92.1428571 L39.047619,92.1428571 C37.6190476,92.1428571 36.6666667,93.0952381 36.6666667,94.5238095 L36.6666667,104.761905 C36.6666667,106.190476 37.6190476,107.142857 39.047619,107.142857 L49.2857143,107.142857 C50.7142857,107.142857 51.6666667,106.190476 51.6666667,104.761905 L51.6666667,94.5238095 C51.6666667,93.3333333 50.4761905,92.1428571 49.2857143,92.1428571 Z M46.9047619,102.380952 L41.4285714,102.380952 L41.4285714,96.9047619 L46.9047619,96.9047619 L46.9047619,102.380952 Z" id="svg_4"></path>
                <path d="M29.2857143,79.2857143 L19.047619,79.2857143 C17.6190476,79.2857143 16.6666667,80.2380952 16.6666667,81.6666667 L16.6666667,91.9047619 C16.6666667,93.3333333 17.6190476,94.2857143 19.047619,94.2857143 L29.2857143,94.2857143 C30.7142857,94.2857143 31.6666667,93.3333333 31.6666667,91.9047619 L31.6666667,81.6666667 C31.6666667,80.4761905 30.4761905,79.2857143 29.2857143,79.2857143 Z M26.9047619,89.7619048 L21.4285714,89.7619048 L21.4285714,84.2857143 L26.9047619,84.2857143 L26.9047619,89.7619048 Z" id="svg_5"></path>
                <path d="M69.2857143,79.2857143 L59.047619,79.2857143 C57.6190476,79.2857143 56.6666667,80.2380952 56.6666667,81.6666667 L56.6666667,91.9047619 C56.6666667,93.3333333 57.6190476,94.2857143 59.047619,94.2857143 L69.2857143,94.2857143 C70.7142857,94.2857143 71.6666667,93.3333333 71.6666667,91.9047619 L71.6666667,81.6666667 C71.6666667,80.4761905 70.7142857,79.2857143 69.2857143,79.2857143 Z M66.9047619,89.7619048 L61.4285714,89.7619048 L61.4285714,84.2857143 L66.9047619,84.2857143 L66.9047619,89.7619048 Z" id="svg_6"></path>
            </g>
        </g>
    </g>
</svg>