<?xml version="1.0" encoding="UTF-8"?>
<svg width="200px" height="200px" viewBox="0 0 200 200" version="1.1" xmlns="http://www.w3.org/2000/svg" xmlns:xlink="http://www.w3.org/1999/xlink">
    <title>Untitled</title>
    <g id="Page-1" stroke="none" stroke-width="1" fill="none" fill-rule="evenodd">
        <g id="Group-27">
            <path d="M100,200 C139.938993,200 174.409425,176.586302 190.434099,142.7361 C196.568679,129.777535 200,115.289482 200,100 C200,44.771525 155.228475,0 100,0 C44.771525,0 0,44.771525 0,100 C0,155.228475 44.771525,200 100,200 Z" id="Oval" fill="#5BA4A4"></path>
            <g id="iconfinder-icon-(33)" transform="translate(30.000000, 29.000000)" fill="#FFFFFF" fill-rule="nonzero">
                <g id="Layer-1">
                    <path d="M113.326,70.191 C113.326,67.221 110.949,64.815 108.019,64.815 L75.543,64.815 L75.543,32.387 L75.543,32.386 C75.543,29.406 73.125,26.989 70.147,26.989 C67.167,26.989 64.749,29.406 64.749,32.386 L64.749,70.17 C64.749,73.151 67.167,75.568 70.147,75.568 L108.022,75.568 C110.949,75.568 113.326,73.161 113.326,70.191 M129.533,70.157 C129.533,102.955 102.949,129.543 70.158,129.543 C37.365,129.543 10.783,102.955 10.783,70.157 C10.783,37.359 37.365,10.771 70.158,10.771 C102.949,10.771 129.533,37.359 129.533,70.157 M140.314,70.157 C140.314,31.41 108.904,1.42108547e-14 70.158,1.42108547e-14 C31.41,1.42108547e-14 -1.42108547e-14,31.41 -1.42108547e-14,70.157 C-1.42108547e-14,108.904 31.41,140.314 70.158,140.314 C108.904,140.314 140.314,108.904 140.314,70.157" id="svg_1"></path>
                </g>
            </g>
        </g>
    </g>
</svg>