<?xml version="1.0" encoding="UTF-8"?>
<svg width="200px" height="200px" viewBox="0 0 200 200" version="1.1" xmlns="http://www.w3.org/2000/svg" xmlns:xlink="http://www.w3.org/1999/xlink">
    <title>Untitled</title>
    <g id="Page-1" stroke="none" stroke-width="1" fill="none" fill-rule="evenodd">
        <g id="Group-19">
            <path d="M100,200 C139.938993,200 174.409425,176.586302 190.434099,142.7361 C196.568679,129.777535 200,115.289482 200,100 C200,44.771525 155.228475,0 100,0 C44.771525,0 0,44.771525 0,100 C0,155.228475 44.771525,200 100,200 Z" id="Oval" fill="#5BA4A4"></path>
            <g id="iconfinder-icon-(24)" transform="translate(50.000000, 50.000000)" fill="#FFFFFF" fill-rule="nonzero">
                <g id="Layer-1">
                    <path d="M72.5806452,67.4645161 C72.1677419,67.4645161 71.7548387,67.3064516 71.4403226,66.9919355 C70.8096774,66.3612903 70.8096774,65.3419355 71.4403226,64.7112903 C72.3532258,63.7983871 72.8580645,62.5822581 72.8580645,61.2903226 C72.8580645,59.9983871 72.3548387,58.7822581 71.4403226,57.8693548 C70.8096774,57.2387097 70.8096774,56.2193548 71.4403226,55.5887097 C72.0709677,54.9580645 73.0903226,54.9580645 73.7209677,55.5887097 C75.2435484,57.1112903 76.083871,59.1370968 76.083871,61.2903226 C76.083871,63.4435484 75.2435484,65.4693548 73.7209677,66.9919355 C73.4064516,67.3064516 72.9935484,67.4645161 72.5806452,67.4645161 L72.5806452,67.4645161 Z" id="svg_3"></path>
                    <path d="M78.0064516,73.1677419 C77.5935484,73.1677419 77.1806452,73.0096774 76.866129,72.6951613 C76.2354839,72.066129 76.2354839,71.0451613 76.866129,70.4145161 C79.3032258,67.9774194 80.6451613,64.7370968 80.6451613,61.2903226 C80.6451613,57.8435484 79.3032258,54.6032258 76.866129,52.166129 C76.2354839,51.5354839 76.2354839,50.5145161 76.866129,49.8854839 C77.4967742,49.2548387 78.516129,49.2548387 79.1467742,49.8854839 C82.1935484,52.9322581 83.8709677,56.983871 83.8709677,61.2903226 C83.8709677,65.5967742 82.1935484,69.6483871 79.1467742,72.6951613 C78.8322581,73.0112903 78.4193548,73.1677419 78.0064516,73.1677419 Z" id="svg_5"></path>
                    <path d="M83.8709677,78.8693548 C83.4580645,78.8693548 83.0451613,78.7112903 82.7306452,78.3967742 C82.1,77.766129 82.1,76.7467742 82.7306452,76.116129 C86.6903226,72.1564516 88.8725806,66.8903226 88.8725806,61.2903226 C88.8725806,55.6903226 86.6903226,50.4241935 82.7306452,46.4645161 C82.1,45.833871 82.1,44.8145161 82.7306452,44.183871 C83.3612903,43.5532258 84.3806452,43.5532258 85.0112903,44.183871 C89.5806452,48.7532258 92.0983871,54.8290323 92.0983871,61.2903226 C92.0983871,67.7516129 89.5806452,73.8274194 85.0112903,78.3967742 C84.6967742,78.7129032 84.283871,78.8693548 83.8709677,78.8693548 Z" id="svg_7"></path>
                    <path d="M64.0048387,24.0096774 C63.0919355,21.2709677 60.766129,19.2177419 57.9354839,18.6532258 L54.8387097,18.033871 L54.8387097,17.7419355 C54.8387097,17.7290323 54.8322581,17.7193548 54.8322581,17.7064516 C56.7822581,16.233871 58.0645161,13.9177419 58.0645161,11.2903226 L58.0645161,8.06451613 C58.0645161,3.61774194 54.4467742,0 50,0 C45.5532258,0 41.9354839,3.61774194 41.9354839,8.06451613 L41.9354839,11.2903226 C41.9354839,13.9177419 43.2177419,16.233871 45.1677419,17.7064516 C45.1677419,17.7193548 45.1612903,17.7290323 45.1612903,17.7419355 L45.1612903,18.033871 L42.0645161,18.6532258 C39.233871,19.2193548 36.9096774,21.2709677 35.9951613,24.0096774 L33.9532258,30.1354839 C33.7870968,30.6290323 33.8709677,31.1693548 34.1741935,31.5887097 C34.4790323,32.0096774 34.966129,32.2580645 35.483871,32.2580645 L64.516129,32.2580645 C65.033871,32.2580645 65.5209677,32.0096774 65.8258065,31.5887097 C66.1290323,31.1677419 66.2112903,30.6274194 66.0467742,30.1354839 L64.0048387,24.0096774 Z M48.3870968,19.1919355 C48.9080645,19.2983871 49.4483871,19.3548387 50,19.3548387 C50.5516129,19.3548387 51.0919355,19.2983871 51.6129032,19.1919355 L51.6129032,19.3548387 C51.6129032,20.2451613 50.8903226,20.9677419 50,20.9677419 C49.1096774,20.9677419 48.3870968,20.2451613 48.3870968,19.3548387 L48.3870968,19.1919355 Z M45.1612903,8.06451613 C45.1612903,5.39677419 47.3322581,3.22580645 50,3.22580645 C52.6677419,3.22580645 54.8387097,5.39677419 54.8387097,8.06451613 L54.8387097,11.2903226 C54.8387097,13.9580645 52.6677419,16.1290323 50,16.1290323 C47.3322581,16.1290323 45.1612903,13.9580645 45.1612903,11.2903226 L45.1612903,8.06451613 Z M37.7225806,29.0322581 L39.0548387,25.0306452 C39.6032258,23.3870968 40.9983871,22.1564516 42.6983871,21.816129 L45.5467742,21.2467742 C46.283871,22.9758065 48.0016129,24.1935484 50,24.1935484 C51.9983871,24.1935484 53.716129,22.9758065 54.4532258,21.2451613 L57.3016129,21.8145161 C59.0016129,22.1548387 60.3967742,23.3870968 60.9451613,25.0290323 L62.2774194,29.0322581 L37.7225806,29.0322581 L37.7225806,29.0322581 Z" id="svg_9"></path>
                    <path d="M99.916129,30.1354839 L97.8741935,24.0096774 C96.9612903,21.2709677 94.6354839,19.2177419 91.8048387,18.6532258 L88.7096774,18.033871 L88.7096774,17.7419355 C88.7096774,17.7290323 88.7032258,17.7193548 88.7032258,17.7064516 C90.6532258,16.233871 91.9354839,13.9177419 91.9354839,11.2903226 L91.9354839,8.06451613 C91.9354839,3.61774194 88.3177419,2.86509168e-15 83.8709677,2.86509168e-15 C79.4241935,2.86509168e-15 75.8064516,3.61774194 75.8064516,8.06451613 L75.8064516,11.2903226 C75.8064516,13.9177419 77.0887097,16.233871 79.0387097,17.7064516 C79.0387097,17.7193548 79.0322581,17.7290323 79.0322581,17.7419355 L79.0322581,18.033871 L75.9354839,18.6532258 C73.1048387,19.2193548 70.7806452,21.2709677 69.866129,24.0096774 L67.8241935,30.1354839 C67.6580645,30.6290323 67.7419355,31.1693548 68.0451613,31.5887097 C68.35,32.0096774 68.8370968,32.2580645 69.3548387,32.2580645 L98.3870968,32.2580645 C98.9048387,32.2580645 99.3919355,32.0096774 99.6967742,31.5887097 C99.9983871,31.1677419 100.082258,30.6274194 99.916129,30.1354839 L99.916129,30.1354839 Z M82.2580645,19.1919355 C82.7790323,19.2983871 83.3193548,19.3548387 83.8709677,19.3548387 C84.4225806,19.3548387 84.9629032,19.2983871 85.483871,19.1919355 L85.483871,19.3548387 C85.483871,20.2451613 84.7612903,20.9677419 83.8709677,20.9677419 C82.9806452,20.9677419 82.2580645,20.2451613 82.2580645,19.3548387 L82.2580645,19.1919355 Z M79.0322581,8.06451613 C79.0322581,5.39677419 81.2032258,3.22580645 83.8709677,3.22580645 C86.5387097,3.22580645 88.7096774,5.39677419 88.7096774,8.06451613 L88.7096774,11.2903226 C88.7096774,13.9580645 86.5387097,16.1290323 83.8709677,16.1290323 C81.2032258,16.1290323 79.0322581,13.9580645 79.0322581,11.2903226 L79.0322581,8.06451613 Z M71.5935484,29.0322581 L72.9258065,25.0306452 C73.4741935,23.3870968 74.8693548,22.1564516 76.5693548,21.816129 L79.4177419,21.2467742 C80.1548387,22.9758065 81.8725806,24.1935484 83.8709677,24.1935484 C85.8693548,24.1935484 87.5870968,22.9758065 88.3241935,21.2451613 L91.1725806,21.8145161 C92.8725806,22.1548387 94.2677419,23.3870968 94.816129,25.0290323 L96.1483871,29.0322581 L71.5935484,29.0322581 L71.5935484,29.0322581 Z" id="svg_10"></path>
                    <path d="M30.133871,24.0096774 C29.2209677,21.2709677 26.8951613,19.2177419 24.0645161,18.6532258 L20.9677419,18.033871 L20.9677419,17.7419355 C20.9677419,17.7290323 20.9612903,17.7193548 20.9612903,17.7064516 C22.9112903,16.233871 24.1935484,13.9177419 24.1935484,11.2903226 L24.1935484,8.06451613 C24.1935484,3.61774194 20.5758065,0 16.1290323,0 C11.6822581,0 8.06451613,3.61774194 8.06451613,8.06451613 L8.06451613,11.2903226 C8.06451613,13.9177419 9.34677419,16.233871 11.2967742,17.7064516 C11.2967742,17.7193548 11.2903226,17.7290323 11.2903226,17.7419355 L11.2903226,18.033871 L8.19354839,18.6532258 C5.36290323,19.2193548 3.03870968,21.2709677 2.12419355,24.0096774 L0.0822580645,30.1354839 C-0.0838709677,30.6290323 2.68665298e-16,31.1693548 0.303225806,31.5887097 C0.608064516,32.0096774 1.09516129,32.2580645 1.61290323,32.2580645 L30.6451613,32.2580645 C31.1629032,32.2580645 31.65,32.0096774 31.9548387,31.5887097 C32.2580645,31.1677419 32.3403226,30.6274194 32.1758065,30.1354839 L30.133871,24.0096774 Z M14.516129,19.1919355 C15.0370968,19.2983871 15.5774194,19.3548387 16.1290323,19.3548387 C16.6806452,19.3548387 17.2209677,19.2983871 17.7419355,19.1919355 L17.7419355,19.3548387 C17.7419355,20.2451613 17.0193548,20.9677419 16.1290323,20.9677419 C15.2387097,20.9677419 14.516129,20.2451613 14.516129,19.3548387 L14.516129,19.1919355 Z M11.2903226,8.06451613 C11.2903226,5.39677419 13.4612903,3.22580645 16.1290323,3.22580645 C18.7967742,3.22580645 20.9677419,5.39677419 20.9677419,8.06451613 L20.9677419,11.2903226 C20.9677419,13.9580645 18.7967742,16.1290323 16.1290323,16.1290323 C13.4612903,16.1290323 11.2903226,13.9580645 11.2903226,11.2903226 L11.2903226,8.06451613 Z M3.8516129,29.0322581 L5.18387097,25.0306452 C5.73225806,23.3870968 7.12741935,22.1564516 8.82741935,21.816129 L11.6758065,21.2467742 C12.4129032,22.9758065 14.1306452,24.1935484 16.1290323,24.1935484 C18.1274194,24.1935484 19.8451613,22.9758065 20.5822581,21.2451613 L23.4306452,21.8145161 C25.1306452,22.1548387 26.5258065,23.3870968 27.0741935,25.0290323 L28.4064516,29.0322581 L3.8516129,29.0322581 L3.8516129,29.0322581 Z" id="svg_11"></path>
                    <path d="M35.483871,58.0645161 C34.5919355,58.0645161 33.8709677,58.7854839 33.8709677,59.6774194 L33.8709677,66.1290323 C33.8709677,67.0209677 34.5919355,67.7419355 35.483871,67.7419355 L48.3870968,67.7419355 C49.2790323,67.7419355 50,67.0209677 50,66.1290323 L50,59.6774194 C50,58.7854839 49.2790323,58.0645161 48.3870968,58.0645161 L35.483871,58.0645161 Z M37.0967742,61.2903226 L40.3225806,61.2903226 L40.3225806,64.516129 L37.0967742,64.516129 L37.0967742,61.2903226 Z M46.7741935,64.516129 L43.5483871,64.516129 L43.5483871,61.2903226 L46.7741935,61.2903226 L46.7741935,64.516129 Z" id="svg_13"></path>
                    <path d="M60.3451613,79.1774194 L58.7548387,78.4548387 C48.316129,73.7096774 37.2403226,71.2 25.8064516,70.983871 L25.8064516,54.8225806 C37.2403226,54.6064516 48.316129,52.0967742 58.7548387,47.3516129 L60.3451613,46.6290323 C61.1564516,46.2596774 61.5145161,45.3048387 61.1451613,44.4935484 C60.7774194,43.6854839 59.8306452,43.3193548 59.0096774,43.6935484 L57.4193548,44.416129 C46.9129032,49.1919355 35.733871,51.6129032 24.1935484,51.6129032 L17.7419355,51.6129032 C15.5919355,51.6129032 13.7854839,53.0322581 13.1580645,54.9758065 C9.35806452,55.6258065 6.4516129,58.9225806 6.4516129,62.9032258 C6.4516129,66.883871 9.35806452,70.1806452 13.1580645,70.8306452 C13.7854839,72.7741935 15.5919355,74.1935484 17.7419355,74.1935484 L24.1935484,74.1935484 C25.2725806,74.1935484 26.3467742,74.2354839 27.4193548,74.2790323 L27.4193548,91.9354839 C27.4193548,96.3822581 31.0370968,100 35.483871,100 C39.9306452,100 43.5483871,96.3822581 43.5483871,91.9354839 L43.5483871,76.5774194 C48.2774194,77.7548387 52.9129032,79.3419355 57.4193548,81.3903226 L59.0096774,82.1129032 C59.2274194,82.2129032 59.4532258,82.2580645 59.6758065,82.2580645 C60.2903226,82.2580645 60.8758065,81.9064516 61.1451613,81.3129032 C61.5145161,80.5016129 61.1564516,79.5451613 60.3451613,79.1774194 L60.3451613,79.1774194 Z M9.67741935,62.9032258 C9.67741935,60.8032258 11.0306452,59.0290323 12.9032258,58.3612903 L12.9032258,67.4435484 C11.0306452,66.7774194 9.67741935,65.0032258 9.67741935,62.9032258 Z M16.1290323,69.3548387 L16.1290323,56.4516129 C16.1290323,55.5612903 16.8516129,54.8387097 17.7419355,54.8387097 L22.5806452,54.8387097 L22.5806452,58.0645161 L20.9677419,58.0645161 C20.0758065,58.0645161 19.3548387,58.7854839 19.3548387,59.6774194 C19.3548387,60.5693548 20.0758065,61.2903226 20.9677419,61.2903226 L22.5806452,61.2903226 L22.5806452,64.516129 L20.9677419,64.516129 C20.0758065,64.516129 19.3548387,65.2370968 19.3548387,66.1290323 C19.3548387,67.0209677 20.0758065,67.7419355 20.9677419,67.7419355 L22.5806452,67.7419355 L22.5806452,70.9677419 L17.7419355,70.9677419 C16.8516129,70.9677419 16.1290323,70.2451613 16.1290323,69.3548387 Z M30.6451613,80.6451613 L33.8709677,80.6451613 L33.8709677,88.7096774 L30.6451613,88.7096774 L30.6451613,80.6451613 Z M40.3225806,91.9354839 C40.3225806,94.6032258 38.1516129,96.7741935 35.483871,96.7741935 C32.816129,96.7741935 30.6451613,94.6032258 30.6451613,91.9354839 L35.483871,91.9354839 C36.3758065,91.9354839 37.0967742,91.2145161 37.0967742,90.3225806 L37.0967742,79.0322581 C37.0967742,78.1403226 36.3758065,77.4193548 35.483871,77.4193548 L30.6451613,77.4193548 L30.6451613,74.4774194 C33.9080645,74.7370968 37.1370968,75.183871 40.3225806,75.8370968 L40.3225806,91.9354839 L40.3225806,91.9354839 Z" id="svg_14"></path>
                    <path d="M62.9032258,85.483871 C60.2354839,85.483871 58.0645161,83.3129032 58.0645161,80.6451613 L58.0645161,45.1612903 C58.0645161,42.4935484 60.2354839,40.3225806 62.9032258,40.3225806 C65.5709677,40.3225806 67.7419355,42.4935484 67.7419355,45.1612903 L67.7419355,80.6451613 C67.7419355,83.3129032 65.5709677,85.483871 62.9032258,85.483871 Z" id="svg_17"></path>
                </g>
            </g>
        </g>
    </g>
</svg>