<?xml version="1.0" encoding="UTF-8"?>
<svg width="200px" height="200px" viewBox="0 0 200 200" version="1.1" xmlns="http://www.w3.org/2000/svg" xmlns:xlink="http://www.w3.org/1999/xlink">
    <title>Untitled</title>
    <g id="Page-1" stroke="none" stroke-width="1" fill="none" fill-rule="evenodd">
        <g id="Group">
            <g id="bg-header-mobile" fill="#5BA4A4">
                <circle id="Oval" cx="100" cy="100" r="100"></circle>
            </g>
            <g id="iconfinder-icon-(15)" transform="translate(60.000000, 43.000000)" fill="#FFFFFF" fill-rule="nonzero">
                <g id="Layer-1">
                    <path d="M0,112.042353 L11.7647059,106.16 L21.1764706,110.865882 L30.5882353,106.16 L40,110.865882 L49.4117647,106.16 L58.8235294,110.865882 L68.2352941,106.16 L80,112.042353 L80,0 L0,0 L0,112.042353 Z M4.70588235,4.70588235 L75.2941176,4.70588235 L75.2941176,104.428235 L68.2352941,100.898824 L58.8235294,105.604706 L49.4117647,100.898824 L40,105.604706 L30.5882353,100.898824 L21.1764706,105.604706 L11.7647059,100.898824 L4.70588235,104.428235 L4.70588235,4.70588235 Z" id="svg_1"></path>
                    <path d="M40,35.2941176 C46.4870588,35.2941176 51.7647059,30.0164706 51.7647059,23.5294118 C51.7647059,17.0423529 46.4870588,11.7647059 40,11.7647059 C33.5129412,11.7647059 28.2352941,17.0423529 28.2352941,23.5294118 C28.2352941,30.0164706 33.5129412,35.2941176 40,35.2941176 Z M40,16.4705882 C43.8917647,16.4705882 47.0588235,19.6376471 47.0588235,23.5294118 C47.0588235,27.4211765 43.8917647,30.5882353 40,30.5882353 C36.1082353,30.5882353 32.9411765,27.4211765 32.9411765,23.5294118 C32.9411765,19.6376471 36.1082353,16.4705882 40,16.4705882 Z" id="svg_2"></path>
                    <rect id="svg_3" x="14.1176471" y="49.4117647" width="28.2352941" height="4.70588235"></rect>
                    <rect id="svg_4" x="56.4705882" y="49.4117647" width="9.41176471" height="4.70588235"></rect>
                    <rect id="svg_5" x="14.1176471" y="61.1764706" width="28.2352941" height="4.70588235"></rect>
                    <rect id="svg_6" x="56.4705882" y="61.1764706" width="9.41176471" height="4.70588235"></rect>
                    <rect id="svg_7" x="14.1176471" y="72.9411765" width="28.2352941" height="4.70588235"></rect>
                    <rect id="svg_8" x="56.4705882" y="72.9411765" width="9.41176471" height="4.70588235"></rect>
                    <rect id="svg_9" x="14.1176471" y="84.7058824" width="28.2352941" height="4.70588235"></rect>
                    <rect id="svg_10" x="56.4705882" y="84.7058824" width="9.41176471" height="4.70588235"></rect>
                </g>
            </g>
        </g>
        <g id="Group-2"></g>
    </g>
</svg>