<?xml version="1.0" encoding="UTF-8"?>
<svg width="200px" height="200px" viewBox="0 0 200 200" version="1.1" xmlns="http://www.w3.org/2000/svg" xmlns:xlink="http://www.w3.org/1999/xlink">
    <title>Untitled</title>
    <g id="Page-1" stroke="none" stroke-width="1" fill="none" fill-rule="evenodd">
        <g id="Group-28">
            <path d="M100,200 C139.938993,200 174.409425,176.586302 190.434099,142.7361 C196.568679,129.777535 200,115.289482 200,100 C200,44.771525 155.228475,0 100,0 C44.771525,0 0,44.771525 0,100 C0,155.228475 44.771525,200 100,200 Z" id="Oval" fill="#5BA4A4"></path>
            <g id="iconfinder-icon-(34)" transform="translate(40.000000, 39.000000)" fill="#FFFFFF">
                <g id="Layer-1">
                    <path d="M65.5458667,82.1130667 L58.7096,82.1130667 L58.7096,90.3701333 L65.5458667,90.3701333 L65.5458667,82.1130667 Z M67.6909333,82.1130667 L67.6909333,91.3552 L71.1432,109.326133 L90.9370667,109.326133 L90.9370667,89.6205333 C90.9370667,89.0013333 91.4338667,88.5042667 92.0528,88.5042667 C92.672,88.5042667 93.1693333,89.0010667 93.1693333,89.6205333 L93.1693333,109.430667 L106.205067,109.430667 L106.205067,78.0408 L77.3869333,66.7229333 L78.128,80.988 C78.1544,81.5810667 77.7013333,82.0864 77.1165333,82.1130667 L67.6909333,82.1130667 L67.6909333,82.1130667 Z M57.6106667,79.9765333 L57.6464,79.9765333 L66.6186667,79.9765333 L66.6448,79.9765333 L75.9304,79.9765333 L75.2856,67.4032 L62.3549333,78.9650667 C61.9450667,79.3576 61.2909333,79.3661333 60.8722667,78.9650667 L48.9701333,67.5077333 L48.3253333,79.9765333 L57.6106667,79.9765333 L57.6106667,79.9765333 Z M52.2397333,109.326133 L56.5736,91.3381333 L56.5736,82.1130667 L47.2,82.1130667 C46.6066667,82.1130667 46.1274667,81.6333333 46.1274667,81.0490667 L46.8688,66.7229333 L18.06,78.0408 L18.06,109.4304 L31.0864,109.4304 L31.0864,89.6202667 C31.0864,89.0010667 31.5925333,88.504 32.2112,88.504 C32.8213333,88.504 33.3277333,89.0008 33.3277333,89.6202667 L33.3277333,109.325867 L52.2397333,109.325867 L52.2397333,109.326133 L52.2397333,109.326133 Z M68.9637333,109.326133 L65.7376,92.5152 L58.4826667,92.5152 L54.4370667,109.326133 L68.9637333,109.326133 Z M64.8130667,26.64 C61.0818667,29.064 56.1461333,30.5461333 50.7312,30.5461333 C49.0056,30.5461333 47.3218667,30.3893333 45.7093333,30.1101333 C44.4533333,29.8834667 43.2330667,29.5784 42.0733333,29.1944 C41.5586667,31.0429333 41.2797333,32.9786667 41.2797333,34.9928 C41.2797333,40.8610667 43.6597333,46.1797333 47.4968,50.0162667 C51.3506667,53.8704 56.6690667,56.2506667 62.5368,56.2506667 C68.4058667,56.2506667 73.716,53.8704 77.5696,50.0162667 L77.6221333,49.9642667 C81.4413333,46.1277333 83.7949333,40.8352 83.7949333,34.9928 C83.7949333,33.528 83.6469333,32.0981333 83.3682667,30.7114667 C82.8973333,30.7725333 82.4349333,30.8250667 81.9728,30.8685333 C81.1616,30.9296 80.3426667,30.9730667 79.5048,30.9730667 C76.5496,30.9730667 73.7325333,30.5285333 71.1784,29.7264 C68.7978667,28.9853333 66.6445333,27.9306667 64.8130667,26.64 Z M71.8154667,15.8629333 C71.5973333,19.4464 69.7133333,22.6989333 66.7056,25.236 C68.2141333,26.204 69.9408,27.0061333 71.8416,27.5989333 C74.1786667,28.3314667 76.7765333,28.7410667 79.5053333,28.7410667 C80.2813333,28.7410667 81.0402667,28.7061333 81.7898667,28.6453333 C82.1304,28.6104 82.4618667,28.5754667 82.7930667,28.532 C81.0317333,22.9952 77.0386667,18.3917333 71.8154667,15.8629333 L71.8154667,15.8629333 Z M42.7968,27.0848 C43.8432,27.4336 44.9504,27.7037333 46.0928,27.9128 C47.5752,28.1744 49.1269333,28.3138667 50.7309333,28.3138667 C55.9888,28.3138667 60.7410667,26.8056 64.1765333,24.3816 L64.2205333,24.3466667 C67.2368,21.8269333 69.6082667,19.3941333 69.6082667,15.1477333 C69.6082667,15.0778667 69.6176,15.0082667 69.6258667,14.9384 C67.4114667,14.1538667 65.0221333,13.7352 62.5365333,13.7352 C56.6688,13.7352 51.3504,16.1154667 47.5048,19.9608 C45.4912,21.9752 43.8778667,24.3992 42.7968,27.0848 L42.7968,27.0848 Z M16.56,50.0605333 C14.8333333,48.3253333 12.4450667,47.2616 9.80293333,47.2616 C7.16,47.2616 4.77173333,48.3338667 3.04506667,50.0605333 C1.30986667,51.7872 0.245866667,54.1848 0.245866667,56.8178667 C0.245866667,59.46 1.30986667,61.8490667 3.04506667,63.5842667 C4.77173333,65.3106667 7.16,66.3832 9.80293333,66.3832 C12.4450667,66.3832 14.8333333,65.3106667 16.56,63.5842667 C18.2949333,61.8490667 19.3674667,59.46 19.3674667,56.8178667 C19.3674667,54.1845333 18.2949333,51.7869333 16.56,50.0605333 Z M10.3168,60.2098667 C10.6658667,60.14 10.9533333,59.9656 11.1712,59.7128 C11.3893333,59.4512 11.5026667,59.1546667 11.5026667,58.8058667 C11.5026667,58.4922667 11.4154667,58.2221333 11.2237333,58.0037333 C11.0410667,57.7770667 10.7352,57.6026667 10.3168,57.4808 L10.3168,60.2098667 L10.3168,60.2098667 Z M9.30506667,52.7808 C9.02613333,52.8856 8.81733333,53.0421333 8.66026667,53.2693333 C8.4944,53.4869333 8.416,53.7312 8.416,54.0016 C8.416,54.2458667 8.48613333,54.4725333 8.63386667,54.6904 C8.78186667,54.8994667 9,55.0738667 9.30506667,55.196 L9.30506667,52.7808 Z M9.30506667,60.0962667 L9.30506667,57.1837333 C8.39813333,56.9224 7.73546667,56.5301333 7.3088,56.0066667 C6.8904,55.4749333 6.67226667,54.8384 6.67226667,54.0797333 C6.67226667,53.3210667 6.91653333,52.6848 7.39573333,52.1616 C7.87493333,51.6472 8.51226667,51.3506667 9.30506667,51.2722667 L9.30506667,50.5832 L10.3165333,50.5832 L10.3165333,51.2722667 C11.0578667,51.3592 11.6512,51.6122667 12.0957333,52.0309333 C12.5317333,52.4405333 12.8106667,52.9986667 12.9322667,53.6962667 L11.1626667,53.9229333 C11.0493333,53.3824 10.7704,53.0074667 10.3165333,52.8157333 L10.3165333,55.536 C11.4416,55.8325333 12.2005333,56.2250667 12.6104,56.7048 C13.0194667,57.184 13.2205333,57.8032 13.2205333,58.5533333 C13.2205333,59.3992 12.9584,60.1053333 12.4530667,60.6810667 C11.9384,61.2562667 11.2317333,61.6138667 10.3165333,61.7533333 L10.3165333,63.0525333 L9.30506667,63.0525333 L9.30506667,61.7704 C8.50293333,61.6746667 7.85813333,61.3781333 7.35173333,60.8813333 C6.8464,60.3842667 6.5328,59.6776 6.39333333,58.7712 L8.2072,58.5533333 C8.27653333,58.928 8.416,59.2421333 8.6256,59.5122667 C8.82586667,59.7824 9.05226667,59.9744 9.30506667,60.0962667 L9.30506667,60.0962667 Z M117.304267,50.6533333 C115.7872,49.136 113.694667,48.2032 111.384,48.2032 C109.073333,48.2032 106.980533,49.136 105.472,50.6533333 C103.9552,52.1616 103.021867,54.2544 103.021867,56.5736 C103.021867,58.8493333 103.928533,60.9157333 105.402667,62.4242667 L105.472,62.4853333 C106.980533,64.0024 109.073333,64.9354667 111.384,64.9354667 C113.694667,64.9354667 115.7872,64.0026667 117.304267,62.4853333 C118.8128,60.9770667 119.7544,58.8842667 119.7544,56.5736 C119.7544,54.2893333 118.838933,52.2229333 117.365067,50.7141333 L117.304267,50.6533333 L117.304267,50.6533333 Z M111.846133,59.5821333 C112.151467,59.512 112.404,59.3642667 112.604267,59.1373333 C112.796267,58.9104 112.892533,58.6402667 112.892533,58.3349333 C112.892533,58.056 112.813867,57.8205333 112.648267,57.62 C112.482667,57.4194667 112.220533,57.2624 111.846133,57.1578667 L111.846133,59.5821333 L111.846133,59.5821333 Z M110.9392,52.9813333 C110.694933,53.0688 110.511467,53.2168 110.363467,53.4088 C110.224267,53.6093333 110.154133,53.8272 110.154133,54.0714667 C110.154133,54.2893333 110.215733,54.4898667 110.345867,54.6730667 C110.4768,54.8648 110.677067,55.0130667 110.939467,55.1264 L110.939467,52.9813333 L110.9392,52.9813333 Z M6.8288,118.202133 C6.2448,118.202133 5.75626667,117.713867 5.75626667,117.129867 C5.75626667,116.5368 6.2448,116.0576 6.8288,116.0576 L80.212,116.0576 C80.8042667,116.0576 81.2842667,116.537067 81.2842667,117.129867 C81.2842667,117.713867 80.804,118.202133 80.212,118.202133 L6.8288,118.202133 Z M49.8074667,122.666667 C49.2141333,122.666667 48.7352,122.178133 48.7352,121.594133 C48.7352,121.001067 49.2144,120.521867 49.8074667,120.521867 L100.580267,120.521867 C101.1736,120.521867 101.652533,121.001067 101.652533,121.594133 C101.652533,122.178133 101.173333,122.666667 100.580267,122.666667 L49.8074667,122.666667 Z M105.777067,122.666667 C105.193067,122.666667 104.704533,122.178133 104.704533,121.594133 C104.704533,121.001067 105.193067,120.521867 105.777067,120.521867 L112.133333,120.521867 C112.717333,120.521867 113.197333,121.001067 113.197333,121.594133 C113.197333,122.178133 112.717333,122.666667 112.133333,122.666667 L105.777067,122.666667 Z M3.94346667,122.5272 C3.35013333,122.5272 2.87093333,122.047467 2.87093333,121.454933 C2.87093333,120.861867 3.35013333,120.3824 3.94346667,120.3824 L28.0082667,120.3824 C28.5930667,120.3824 29.0722667,120.862133 29.0722667,121.454933 C29.0722667,122.047733 28.5930667,122.5272 28.0082667,122.5272 L3.94346667,122.5272 Z M23.4917333,42.7098667 C23.4917333,43.3029333 23.0125333,43.7821333 22.4192,43.7821333 C21.8354667,43.7821333 21.3469333,43.3026667 21.3469333,42.7098667 L21.3469333,11.2504 L15.6530667,11.2504 C15.0608,11.2504 14.5805333,10.7706667 14.5805333,10.1778667 C14.5805333,9.81146667 14.7725333,9.48026667 15.0608,9.28853333 L26.9714667,0.220266667 C27.3552,-0.076 27.8869333,-0.0672 28.2621333,0.211466667 L40.4781333,9.32346667 C40.9573333,9.67226667 41.0528,10.3437333 40.6952,10.8229333 C40.4864,11.1021333 40.1637333,11.2506667 39.8408,11.2506667 L34.1466667,11.2506667 L34.1466667,34.1389333 C34.1466667,34.732 33.6589333,35.2114667 33.0741333,35.2114667 C32.4816,35.2114667 32.0016,34.7317333 32.0016,34.1389333 L32.0016,11.2242667 L23.4917333,11.2242667 L23.4917333,42.7098667 Z M105.140533,42.7098667 C105.140533,43.3029333 105.629067,43.7821333 106.2128,43.7821333 C106.8064,43.7821333 107.285333,43.3026667 107.285333,42.7098667 L107.285333,11.2504 L112.987467,11.2504 C113.572267,11.2504 114.051467,10.7706667 114.051467,10.1778667 C114.051467,9.81146667 113.868,9.48026667 113.572267,9.28853333 L101.669867,0.220266667 C101.277867,-0.076 100.754667,-0.0672 100.379467,0.211466667 L88.1552,9.32346667 C87.6842667,9.67226667 87.588,10.3437333 87.9370667,10.8229333 C88.1552,11.1021333 88.4685333,11.2506667 88.8,11.2506667 L94.4938667,11.2506667 L94.4938667,34.1389333 C94.4938667,34.732 94.9730667,35.2114667 95.5661333,35.2114667 C96.1592,35.2114667 96.6384,34.7317333 96.6384,34.1389333 L96.6384,11.2242667 L105.14,11.2242667 L105.14,42.7098667 L105.140533,42.7098667 L105.140533,42.7098667 Z M110.9392,59.4770667 L110.9392,56.8874667 C110.137067,56.6608 109.543733,56.312 109.168267,55.8410667 C108.794133,55.3792 108.6104,54.8125333 108.6104,54.1410667 C108.6104,53.4608 108.82,52.8941333 109.246933,52.432 C109.674667,51.9786667 110.232267,51.7082667 110.9392,51.6384 L110.9392,51.028 L111.845867,51.028 L111.845867,51.6384 C112.5,51.7170667 113.0232,51.9437333 113.415467,52.3098667 C113.807467,52.6848 114.060267,53.1818667 114.165067,53.8010667 L112.595733,54.0016 C112.490667,53.5133333 112.2464,53.1818667 111.845867,53.0074667 L111.845867,55.4314667 C112.84,55.6930667 113.52,56.0416 113.8776,56.4693333 C114.243467,56.8965333 114.4176,57.4456 114.4176,58.1082667 C114.4176,58.8584 114.190933,59.4858667 113.738133,60.0005333 C113.284267,60.5061333 112.647733,60.8285333 111.8456,60.9509333 L111.8456,62.1104 L110.938933,62.1104 L110.938933,60.9682667 C110.232267,60.8813333 109.656533,60.6194667 109.203733,60.1749333 C108.7592,59.7301333 108.4792,59.1109333 108.349333,58.3 L109.961867,58.1082667 C110.032,58.4394667 110.153867,58.7272 110.337067,58.9629333 C110.5208,59.2069333 110.721067,59.3725333 110.9392,59.4770667 L110.9392,59.4770667 Z" id="svg_2"></path>
                </g>
            </g>
        </g>
    </g>
</svg>