<?xml version="1.0" encoding="UTF-8"?>
<svg width="200px" height="200px" viewBox="0 0 200 200" version="1.1" xmlns="http://www.w3.org/2000/svg" xmlns:xlink="http://www.w3.org/1999/xlink">
    <title>Untitled</title>
    <g id="Page-1" stroke="none" stroke-width="1" fill="none" fill-rule="evenodd">
        <g id="Group-8">
            <path d="M100,200 C139.938993,200 174.409425,176.586302 190.434099,142.7361 C196.568679,129.777535 200,115.289482 200,100 C200,44.771525 155.228475,0 100,0 C44.771525,0 0,44.771525 0,100 C0,155.228475 44.771525,200 100,200 Z" id="Oval" fill="#5BA4A4"></path>
            <g id="iconfinder-icon-(12)" transform="translate(44.000000, 33.000000)" fill="#FFFFFF" fill-rule="nonzero">
                <g id="Layer-1">
                    <path d="M13.572262,41.508698 C36.976632,41.515672 60.381002,41.522646 83.785372,41.529598 C92.4682,41.532194 98.722382,39.787616 102.167472,49.878224 C103.721706,54.430574 102.87882,61.354348 103.05339,66.166606 C103.250532,71.600408 103.349488,77.038962 103.350148,82.47635 C103.350478,85.194802 103.33114,87.914618 103.277394,90.632586 C103.145966,97.280656 103.575384,97.127052 97.596004,102.395854 C91.7323,107.56273 92.116948,107.215834 85.646242,107.244764 C82.766354,107.257656 79.886444,107.270526 77.006534,107.283396 C71.246736,107.309158 65.486916,107.334898 59.727118,107.36066 C48.2075,107.412162 36.687882,107.463664 25.168264,107.515166 C22.868318,107.525462 19.53325,108.167466 17.32522,107.525418 C13.712974,106.475072 7.52532,98.801736 6.731516,95.09104 C5.70592,90.296932 6.93198,83.99358 6.95618,79.066262 C6.98423,73.347582 3.117334,42.679406 11.900086,41.914818 C15.049364,41.640654 15.078338,36.688124 11.900086,36.964818 C-0.462814,38.04108 1.653278,51.224866 1.852466,60.48878 C2.059574,70.122668 2.01828,79.752354 1.882034,89.386902 C1.81434,94.174036 1.112782,99.565642 2.995058,104.116386 C8.076882,116.402704 25.55476,112.46345 35.96791,112.416876 C55.096932,112.331362 74.745154,113.53727 93.812884,112.107028 C104.807164,111.28238 107.598304,104.813852 108.13572,94.709868 C108.639234,85.243114 108.346722,75.62995 108.00339,66.166606 C107.74291,58.986686 108.374574,50.653504 106.493464,43.700316 C103.24743,31.702044 84.433624,36.579796 75.008736,36.57698 C54.529904,36.570886 34.051094,36.564792 13.572262,36.558698 C10.387124,36.557752 10.381932,41.507752 13.572262,41.508698 L13.572262,41.508698 L13.572262,41.508698 Z" id="svg_3"></path>
                    <path d="M81.849878,56.548096 C77.30822,61.893568 72.615686,67.082092 67.634182,72.023336 C59.827504,79.766896 55.289102,73.080722 48.709518,66.934802 C47.735182,66.024684 46.1791,65.958662 45.20934,66.934802 C38.478396,73.709988 31.534448,80.201396 24.321682,86.461166 C21.911538,88.552882 25.425136,92.0414 27.82186,89.961344 C35.034626,83.701574 41.978574,77.210144 48.709518,70.43498 C47.542792,70.43498 46.376066,70.43498 45.20934,70.43498 C49.293772,74.25022 55.848078,84.11678 61.975672,83.32236 C65.503658,82.86498 68.792438,77.846494 71.13436,75.523514 C76.117602,70.580554 80.806286,65.396232 85.350056,60.048274 C87.401402,57.633884 83.916338,54.115886 81.849878,56.548096 L81.849878,56.548096 L81.849878,56.548096 Z" id="svg_5"></path>
                    <path d="M57.67872,6.85157 C58.706714,7.900618 58.841794,10.509356 58.11102,11.802912 C57.203564,13.409242 54.675874,14.956106 53.462024,13.062412 C53.065056,12.443112 52.869322,11.59983 52.750302,10.876734 C52.644746,10.2355 52.287686,7.910738 52.696182,7.331522 C53.293614,6.484434 56.461922,5.792556 57.007764,6.765748 C58.566244,9.54437 62.843638,7.051704 61.281946,4.267384 C59.06329,0.311696 53.020858,0.780604 49.781798,3.255868 C46.256056,5.95023 47.361314,12.905376 49.55577,16.13964 C52.555074,20.560144 57.794594,19.16013 61.064498,15.87344 C64.238372,12.683242 64.384056,6.622264 61.178898,3.351392 C58.945634,1.072324 55.446424,4.573492 57.67872,6.85157 L57.67872,6.85157 L57.67872,6.85157 Z" id="svg_7"></path>
                    <path d="M59.012404,15.997256 C68.256166,23.494218 77.499928,30.99118 86.74369,38.488142 C89.19669,40.47758 92.719814,36.996014 90.243868,34.987964 C81.000106,27.491002 71.756344,19.99404 62.512582,12.497078 C60.059604,10.50764 56.53648,13.989206 59.012404,15.997256 L59.012404,15.997256 L59.012404,15.997256 Z" id="svg_9"></path>
                    <path d="M48.603214,11.53031 C38.46205,19.4788 28.320864,27.42729 18.1797,35.37578 C15.67467,37.33917 19.199488,40.820032 21.679878,38.875958 C31.821042,30.927468 41.962228,22.978978 52.103392,15.030488 C54.608422,13.067076 51.083604,9.586214 48.603214,11.53031 L48.603214,11.53031 Z" id="svg_11"></path>
                </g>
            </g>
        </g>
    </g>
</svg>